<svg fill="none" height="20" viewBox="0 0 89 20" width="89" xmlns="http://www.w3.org/2000/svg"><path d="m4.66051 7.87079c0-.63987.46254-1.31827 1.31826-1.31827h7.37773c.8557 0 1.3182.6784 1.3182 1.31827 0 .63986-.4625 1.31826-1.3182 1.31826h-7.37773c-.85572 0-1.31826-.6784-1.31826-1.31826zm0 5.16511c0-.6398.46254-1.3182 1.31826-1.3182h7.37773c.8557 0 1.3182.6784 1.3182 1.3182 0 .6399-.4625 1.3183-1.3182 1.3183h-7.37773c-.85572 0-1.31826-.6784-1.31826-1.3183zm-.83259 6.6685h15.09458v-15.09459c0-1.88104-1.5342-3.41517-3.4152-3.41517h-11.67938c-1.88104 0-3.41517 1.53413-3.41517 3.41517v11.67939c0 1.881 1.53413 3.4152 3.41517 3.4152zm29.11748-5.4196c0 1.5727-1.2874 2.8524-2.8755 2.8524h-3.3149v-5.7279h3.3149c1.5881 0 2.8755 1.2874 2.8755 2.8755zm-.3546-7.99439c0 1.40307-1.1332 2.54402-2.5209 2.54402h-3.3149v-5.06492h3.3149c1.2875 0 2.359.96364 2.5209 2.20482zm2.9218 7.97129c0-1.6112-.7401-3.1608-2.0044-4.1938 1.0639-.97135 1.6652-2.33588 1.6652-3.77749 0-2.80614-2.2973-5.08806-5.1112-5.08806h-4.6024c-.6938 0-1.2797.5859-1.2797 1.28743v15.93482c0 .6939.5859 1.2798 1.2797 1.2798h4.6024c3.0143 0 5.4504-2.4438 5.4504-5.4427zm8.8039-3.0991h-4.7412v-.2621c0-1.32599 1.0408-2.36672 2.3667-2.36672 1.326 0 2.3668 1.04073 2.3668 2.36672v.2621zm2.5594 1.2797v-1.5495c0-2.72135-2.2125-4.93389-4.9339-4.93389-2.7213 0-4.9338 2.21254-4.9338 4.93389v4.0936c0 2.675 2.359 4.9338 5.1574 4.9338 1.5187 0 2.9064-.555 3.8006-1.511.2082-.2081.3084-.3777.3084-.3777.1696-.2467.2544-.4857.2544-.7401 0-.6707-.6322-1.2874-1.326-1.2874-.4086 0-.7632.2004-1.0253.5704-.5088.5243-1.1641.7787-2.0121.7787-1.3568 0-2.5903-1.1256-2.5903-2.3667v-1.2644h6.0209c.6938.0078 1.2797-.5781 1.2797-1.2797zm4.5561 5.9823v-15.93482c0-.84029-.6475-1.28743-1.2797-1.28743-.6399 0-1.2874.43943-1.2874 1.28743v15.93482c0 .8403.6475 1.2798 1.2874 1.2798.6322 0 1.2797-.4395 1.2797-1.2798zm10.5462-15.58019c0-.9251-.8789-1.857914-2.8524-1.857914-2.2742 0-3.9857 1.611214-3.9857 3.738944v1.45704h-.9713c-.8403 0-1.2797.64757-1.2797 1.28743s.4394 1.27972 1.2797 1.27972h.9713v9.67497c0 .8403.6476 1.2798 1.2875 1.2798.6398 0 1.2797-.4395 1.2797-1.2798v-9.67497h2.7059c.8403 0 1.2797-.64757 1.2797-1.27972 0-.63986-.4394-1.28743-1.2797-1.28743h-2.7059v-1.45704c0-.53964.3777-1.17179 1.4185-1.17179.4548 0 .848.20044.9868.28524.2389.15418.4933.23127.7632.23127.6244-.0077 1.1024-.53193 1.1024-1.22575zm3.8931.56277v-.9251c0-.8403-.6476-1.28744-1.2797-1.28744-.6399 0-1.2875.43943-1.2875 1.28744v.9251c0 .8403.6476 1.27972 1.2875 1.27972.6321.00771 1.2797-.43942 1.2797-1.27972zm0 15.01742v-10.95469c0-.8403-.6476-1.28743-1.2797-1.28743-.6399 0-1.2875.43942-1.2875 1.28743v10.95469c0 .8403.6476 1.2798 1.2798 1.2798.6398 0 1.2874-.4395 1.2874-1.2798zm12.2113-3.4305v-7.52419c0-.8403-.6475-1.28743-1.2797-1.28743-.6399 0-1.2874.43942-1.2874 1.28743v7.52419c0 1.3259-1.0408 2.3667-2.3667 2.3667-1.326 0-2.3668-1.0408-2.3668-2.3667v-7.52419c0-.8403-.6475-1.28743-1.2874-1.28743s-1.2797.43942-1.2797 1.28743v7.52419c0 2.7213 2.2125 4.9338 4.9339 4.9338 2.7213 0 4.9338-2.2125 4.9338-4.9338zm10.0836-6.29072c0-.26982-.0694-.50881-.2081-.71696-.7787-1.19492-2.3745-2.02751-3.8855-2.02751-2.0891 0-4.2092 1.30285-4.2092 3.7852 0 2.55949 2.0892 3.37659 3.7698 4.02419 1.3183.5165 2.4516.9559 2.4516 2.0352 0 .7709-.7479 1.5496-2.1663 1.5496-.7247 0-1.3646-.2313-1.7423-.6399l-.0386-.0617c-.2621-.3546-.6321-.5627-1.0253-.5627-.6938 0-1.3259.609-1.3259 1.2874 0 .2698.0848.5242.2467.7632.7786 1.1718 2.5517 1.7808 3.8854 1.7808 2.2973 0 4.7411-1.4416 4.7411-4.1167 0-2.7907-2.228-3.6695-4.0165-4.3711-1.1795-.4625-2.2048-.8634-2.2048-1.68829 0-.74008.6476-1.21804 1.6343-1.21804.6707 0 1.2104.26982 1.7346.85571.239.38546.6013.60132 1.033.60132.717.00771 1.326-.57819 1.326-1.27972z" fill="#ffeded"/></svg>