<svg fill="none" height="21" viewBox="0 0 88 21" width="88" xmlns="http://www.w3.org/2000/svg"><path d="m87.4104 15.299h-9.1662l8.3182-10.32254c.5319-.78633.848-1.87333.848-4.872193h-14.4161-.0155c0 2.998863-.3161 4.078153-.8481 4.872193h.0463 7.8403l-8.3799 10.32254c-.6629.9637-.9713 1.7809-.9713 4.9031h.0077 16.7366zm-16.3666-10.32254c.532-.78633.8557-1.87333.8557-4.872193h-16.2663-5.5737v4.872193 7.35454c0 1.9658-.9328 3.261-3.0914 3.261s-3.0991-1.2952-3.0991-3.261v-12.226733h-8.1255v3.207013c-1.0562-2.00438-3.2301-3.207013-6.3292-3.207013h-11.1783v2.651953c-1.0562-1.64205-3.261-2.651953-6.4141-2.651953h-10.962403v4.548413h2.189383v11.02412h-2.189383v4.5176h11.062603c4.5793 0 7.6784-2.0044 7.6784-5.9361 0-2.4515-1.5187-3.87-3.6465-4.41735v-.06168c1.5804-.44713 2.9989-1.83478 2.9989-4.51757 0-.20815-.0154-.40858-.0385-.60902h1.5033v8.37212 7.1696h5.9361v-7.1927h1.5572l2.6751 4.2246c1.804 2.8678 3.3226 3.2302 5.7047 3.2302.6476 0 1.2567-.1311 1.7732-.293v-4.2246c-.1928.0308-.4163.0308-.5474.0308-.6167 0-1.1949-.1927-1.7422-.9636l-2.0816-3.0605c1.804-1.0947 2.7754-2.99121 2.7754-5.4196 0-.66298-.0771-1.28743-.2236-1.86561h1.6883v7.70141c0 5.8667 3.5154 8.0947 9.0275 8.0947 5.512 0 8.6728-2.228 8.6728-8.0947v-7.38534h8.881l-8.3876 10.32254c-.663.9637-.9714 1.7809-.9714 4.9031h14.4239c0-3.1145.316-3.9394.9713-4.9031h-.0616-7.7555zm-58.0655 1.29514c0 1.06387-.5781 1.67289-2.066 1.67289h-1.93502v-3.29181h1.96582c1.4262 0 2.0352.57819 2.0352 1.61892zm.1927 7.4702c0 1.2566-.8017 1.935-2.1585 1.935h-2.03522v-3.8315h2.03522c1.3568 0 2.1585.6399 2.1585 1.8965zm17.4536-6.89201c0 1.22576-.6938 2.15857-2.1894 2.15857h-2.0891v-4.34797h2.0891c1.5264-.00771 2.1894.99448 2.1894 2.1894z" fill="#ffeded"/></svg>