<svg fill="none" height="38" viewBox="0 0 76 38" width="76" xmlns="http://www.w3.org/2000/svg" xmlns:xlink="http://www.w3.org/1999/xlink"><clipPath id="a"><path d="m0 0h75.9136v38h-75.9136z"/></clipPath><g clip-path="url(#a)"><path d="m75.4819 19.0863c0-10.19087-8.291-18.481777-18.4819-18.481777s-18.4818 8.290907-18.4818 18.481777c0 10.191 8.2909 18.4819 18.4818 18.4819s18.4819-8.2909 18.4819-18.4819z" fill="#300029" stroke="#ffeded" stroke-linejoin="round" stroke-miterlimit="10" stroke-width=".9733"/><path d="m38 19c0-10.53636-8.4636-19-19-19-10.53636 0-19 8.46364-19 19 0 10.5364 8.46364 19 19 19 10.5364 0 19-8.4636 19-19z" fill="#ffeded"/><path d="m12.6084 25.0468c0-.1727-.0863-.4318-.1727-.5182-.0864-.1727-.2591-.2591-.4318-.2591h-1.9864v1.4682h1.9c.1727 0 .3455-.0864.5182-.1727.0864-.0864.1727-.2591.1727-.5182zm-2.67725-3.9727v1.3818h1.64095c.1727 0 .3454-.0864.4318-.1728.1727-.0863.1727-.259.1727-.5181s-.0864-.4319-.1727-.5182c-.0864-.0864-.2591-.1727-.4318-.1727zm5.09545 4.4909c0 .4318-.0864.7772-.2591 1.0363s-.4318.5182-.6909.6909c-.2591.1728-.6045.3455-1.0364.4319-.3454.0863-.7772.1727-1.209.1727h-4.31823v-8.8955h5.09543c.3455 0 .6046.0864.8637.1728.2591.1727.4318.3454.6045.5181.1727.1728.3455.4319.4318.6909.0864.2591.1728.5182.1728.8637 0 .4318-.0864.7773-.3455 1.2091-.1727.3454-.5182.6909-.95.8636.5182.1727.8636.4318 1.2091.7773.2591.3454.4318.8636.4318 1.4682z" fill="#300029"/><path d="m17.4448 19.0013 1.5545 2.7637 1.6409-2.7637h2.5909l-2.9363 4.4909 2.85 4.3182h-2.6773l-1.4682-2.6772-1.4681 2.6772h-2.6773l2.85-4.3182-2.9364-4.4909z" fill="#300029"/><path d="m24.0084 27.8104v-8.8091h2.5046v6.7364h3.9727v2.0727z" fill="#300029"/><path d="m25.9084 14.4241v-.0864c0-2.5045-1.3818-4.66361-3.4545-5.8727-.1728-.08636-.4319-.17273-.6046-.17273-.7773 0-1.3818 1.38182-1.6409 1.64091-.0864.08632-.0864.08632-.1727.08632-.0864 0-.1727.0864-.2591.0864-.1727 0-.3455-.0864-.4318-.17272l-.0864-.08636v-.08636h.0864l.0863-.08637s0 0 0-.08636c0 0 0 0 0-.08637 0 0 0 0 0-.08636 0-.60454-.4318-1.12273-.95-1.12273-.5181 0-.95.51819-.95 1.12273v.08636.08637.08636l.0864.08637h.0864v.08636s0 .08636-.0864.08636c-.0864.08632-.2591.17272-.4318.17272-.0864 0-.1727-.0864-.2591-.0864s-.1727-.08632-.1727-.08632c-.2591-.17272-.8637-1.64091-1.6409-1.64091-.1728 0-.4319 0-.6046.17273-2.0727 1.20909-3.3682 3.3682-3.4545 5.8727v.0864.0864.0863.3455.2591s0 0 0-.0864v.0864h.0863c.2591.0863.6046 0 .6909-.2591.0864-.1728.0864-.3455.0864-.5182l.0864.0864c.2591.1727.6045.0863.7772-.1728.0864-.1727.0864-.3454.0864-.4318h.0864.0863c.2591.1727.6046.0864.7773-.1727.0864-.1727.0864-.3455.0864-.5182 0 0 .0863 0 .0863.0864.2591.1727.6046.0863.7773-.1728.0864-.1727.0864-.3454 0-.5181l.0864.0863c.2591.1727.6045.0864.7772-.1727.0864-.1727.0864-.3455.0864-.4318h.0864.0863c.2591.1727.5182.0863.6909-.0864.0864.2591.1728.6046.1728.7773s-.2591 1.0363-.2591 1.0363c-.0864.3455 1.3818 1.5546 1.3818 1.5546s1.4682-1.2091 1.3818-1.5546c0 0-.2591-.8636-.2591-1.0363s.0864-.5182.1727-.7773c.1728.1727.4319.1727.691.0864h.0863.0864c-.0864.1727 0 .3454.0863.4318.1728.2591.5182.3454.7773.1727l.0864-.0863c-.0864.1727-.0864.3454 0 .5181.1727.2591.5182.3455.7773.1728 0 0 .0863 0 .0863-.0864-.0863.1727 0 .3455.0864.5182.1727.2591.5182.3454.7773.1727h.0863.0864c-.0864.1727 0 .3455.0863.4318.1728.2591.5182.3455.7773.1728 0 0 .0864 0 .0864-.0864-.0864.1727-.0864.3454.0864.5182.1727.2591.4318.3454.6909.2591h.0863s0 0 0-.0864v.0864c0-.0864 0-.1728 0-.2591 0-.0864 0-.2591 0-.3455 0 0 0 0 0-.0863 1.2091 0 1.2091 0 1.2091-.0864z" fill="#300029"/><g fill="#ffeded"><path d="m69.5227 13.9046v.95c-.6909 0-1.2954 0-1.9863 0v.5182h1.7272v.95c-.6045 0-1.1227 0-1.7272 0v.5182h1.9863v.95c-1.0363 0-2.0727 0-3.1091 0 0-1.2955 0-2.6773 0-3.9728.95.0864 1.9864.0864 3.1091.0864z"/><path d="m47.6727 17.8773c.0864-.0863.0864-.2591.1728-.3454.4318-1.2091.8636-2.4182 1.3818-3.5409 0-.0864.0863-.0864.0863-.0864h1.2091.0864c.5182 1.2955.95 2.5909 1.4682 3.8864v.0863s0 0-.0864 0c-.3454 0-.7773 0-1.1227 0 0 0-.0864 0-.0864-.0863-.0863-.1728-.1727-.4319-.1727-.6046 0 0 0-.0863-.0864-.0863-.4318 0-.8636 0-1.3818 0 0 0-.0864 0-.0864.0863-.0863.1727-.1727.4318-.1727.6046 0 0 0 .0863-.0863.0863-.3455 0-.7773 0-1.1228 0zm2.1591-2.9363c-.1727.4318-.2591.8636-.4318 1.2954h.8636c-.1727-.4318-.3454-.8636-.4318-1.2954z"/><path d="m53.3727 13.9046h.1728 1.0363c.0864 0 .0864 0 .0864.0864.2591.8636.6045 1.8136.8636 2.6772v.0864-.0864c.2591-.8636.6046-1.7272.8637-2.6772 0 0 0-.0864.0863-.0864h1.0364.0864v.0864c-.5182 1.2954-.95 2.5909-1.4682 3.8863 0 .0864 0 .0864-.0864.0864-.3454 0-.7773 0-1.1227 0 0 0-.0864 0-.0864-.0864-.4318-1.2954-.95-2.5909-1.4682-3.9727z"/><path d="m62.9591 17.8773c0-1.3818 0-2.6772 0-3.9727h1.1227v3.0227h.0864 1.7273c.0864 0 .0864 0 .0864.0864v.8636c0 .0864 0 .0864-.0864.0864-.95-.0864-1.9-.0864-2.9364-.0864.0864 0 .0864 0 0 0z"/><path d="m45.7727 16.9273h1.8137v.95c-.95 0-1.9864 0-2.9364 0 0-1.2954 0-2.6772 0-3.9727h1.1227z"/><path d="m59.5909 17.8773c0-1.2954 0-2.6772 0-3.9727h1.1227v3.0227h1.8137v.95c-.95 0-1.9 0-2.9364 0z"/><path d="m59.0727 13.9046v3.9727c-.3454 0-.7772 0-1.1227 0 0-1.2954 0-2.6772 0-3.9727z"/><path d="m65.3773 19.4318c.0863 0 .0863 0 0 0h1.7272c.5182 0 .95.0864 1.2955.4319.4318.3454.6909.7772.7773 1.2954.0863.4318 0 .8636-.2591 1.2955-.2591.5181-.6909.7772-1.2955.95-.1727 0-.3454.0863-.5182.0863-.6045 0-1.1227 0-1.7272 0 0 0 0 0-.0864 0 .0864-1.3818.0864-2.6772.0864-4.0591zm1.2091 1.0364v2.0727h.6045c.3455 0 .5182-.1727.6909-.5182.0864-.2591.1727-.5181.0864-.7772-.0864-.4318-.4318-.7773-.8637-.7773-.1727 0-.3454 0-.5181 0z"/><path d="m44.9091 19.4318h1.7273c.4318 0 .8636.0864 1.2954.4319.4318.3454.6909.7772.7773 1.2954.0864.6045-.0864 1.1227-.5182 1.6409-.3455.3455-.7773.6046-1.2955.6046-.0863 0-.259 0-.3454 0-.5182 0-1.1227 0-1.6409 0 0 0 0 0-.0864 0 .0864-1.2955.0864-2.5909.0864-3.9728zm1.1227 3.1091h.6046c.3454 0 .6045-.1727.6909-.5182.0863-.2591.1727-.5181.0863-.8636-.0863-.4318-.4318-.6909-.95-.6909-.1727 0-.2591 0-.4318 0 0 0 0 0-.0863 0 .0863.6909.0863 1.3818.0863 2.0727z"/><path d="m51.9909 20.9864v.95c-.6045 0-1.1227 0-1.7273 0v.5182h1.9864v.95c-1.0364 0-2.0727 0-3.1091 0 0-1.2955 0-2.6773 0-3.9728h3.1091v.95c-.6909 0-1.2955 0-1.9864 0v.5182c.6046.0864 1.2091.0864 1.7273.0864z"/><path d="m65.2045 23.4909c-.0863 0-.0863 0 0 0-.4318 0-.7772 0-1.2091 0-.0863 0-.0863 0-.0863-.0864-.0864-.1727-.1727-.4318-.1727-.6045 0 0 0-.0864-.0864-.0864-.4318 0-.8636 0-1.3818 0 0 0-.0864 0-.0864.0864-.0863.1727-.1727.4318-.1727.6045 0 0 0 0-.0864 0-.3454 0-.7772 0-1.1227 0 0 0 0 0 0-.0863.5182-1.2955.95-2.5909 1.4682-3.8864 0 0 0-.0863.0863-.0863h1.2091s.0864 0 .0864.0863c.5182 1.3818 1.0364 2.6773 1.5545 4.0591 0 0-.0863-.0864 0 0zm-1.8136-1.7273c-.1727-.4318-.2591-.8636-.4318-1.2954-.1727.4318-.2591.8636-.4318 1.2954z"/><path d="m54.2364 22.1954h1.1227c0 .1727.1727.3455.3454.3455.1728.0863.4319.0863.6046 0 .0863 0 .0864 0 .1727-.0864.1727-.0864.0864-.2591 0-.3455-.0863-.0863-.2591-.0863-.3454-.0863-.2591 0-.4319-.0864-.691-.0864-.1727 0-.4318-.0864-.6045-.1727-.2591-.1727-.4318-.3455-.4318-.6909-.0864-.3455 0-.6909.1727-1.0364.1727-.2591.4318-.3454.6909-.4318.5182-.1727 1.1228-.1727 1.6409.0864.4319.1727.6909.5181.7773 1.0363v.0864s0 0-.0864 0c-.3454 0-.6909 0-1.0363 0 0 0-.0864 0-.0864-.0864 0-.1727-.1727-.2591-.3454-.3454-.1728-.0864-.3455-.0864-.5182 0-.0864 0-.0864.0863-.1728.0863-.0863.0864-.0863.2591 0 .3455.0864.0863.2591.0863.3455.0863.2591 0 .4318.0864.6909.0864.1727 0 .3455.0864.5182.1727.2591.1728.4318.3455.5182.6909.0863.3455.0863.691-.1727.95-.1728.2591-.3455.3455-.6046.5182-.3455.1728-.6909.1728-1.0364.1728-.2591 0-.6045-.0864-.8636-.1728-.4318-.1727-.6909-.6045-.6909-1.0363.0864 0 .0864 0 .0864-.0864z"/><path d="m58.9 20.4682c-.4318 0-.7773 0-1.1228 0-.0863 0-.0863 0-.0863-.0864 0-.2591 0-.6045 0-.8636 0-.0864 0-.0864.0863-.0864h3.4546.0864v.8637c-.4319 0-.7773 0-1.2091 0v3.0227c-.3455 0-.7773 0-1.1228 0-.0863-.8636-.0863-1.8136-.0863-2.85z"/></g></g></svg>