<svg fill="none" height="29" viewBox="0 0 89 29" width="89" xmlns="http://www.w3.org/2000/svg"><path d="m34.1495 24.7832c2.9295 1.75 4.0627 3.2841 4.0627 3.2841-2.3821-1.2335-4.1938-1.8117-6.707-1.804-2.5209.0078-3.4074 1.8425-3.4074 1.8425-2.9295-5.0803-11.849-2.1662-13.5913-1.7654-1.7423.4009-4.3325 1.0639-6.46799 1.2643-3.05283.2544-5.61228-.9174-6.84575-3.1299-1.595794-3.1762-.531908-7.1001.6476-9.8292 2.03522-4.5253 5.64309-8.65737 10.15294-11.64082 2.1355-1.29514 4.6178-2.320457 6.4835-2.181692.9328.069383 1.4647.508802 1.7962 1.033032.7786 1.45703-.2159 3.03741-.8788 3.85458-.6168.73237-2.0661 1.00219-2.0045-.32378.0386-.86343.7787-1.511 1.0485-1.70373.3315-.20815.7632-.24669 1.0176-.2544.239-.20815.4317-1.71144-1.5727-1.22576-2.6134.78634-4.6023 2.72905-6.7378 5.00325-3.83143 4.36342-5.98232 8.30282-6.77636 12.38862-.3315 2.3821.06172 4.055 1.20267 5.142.06168.054-.07709-.0462 0 0 2.83698 2.3205 6.27529 1.2489 13.72229-.424 7.1464-1.8964 11.556-1.5033 14.8556.4703zm-14.5395-13.3831c.2313-.6245.3469-1.087.3469-1.58041 0-.37004-.0462-.69383-.3238-.96365-.2775-.26982-.8788-.22356-1.4493.13877-.4394.31607-1.4262 1.17949-1.1872 2.28189.1773.5705.7092 1.1101 1.4955 1.2643.3932.0771.5474.0848.5474.0848s.3392-.5936.5705-1.2257zm-2.3976 4.1783s1.2721-1.9041 1.2952-2.0891c0-.0078-.0077-.0232-.0077-.0309-.8172-.2313-1.9196-.7246-2.5055-1.8039 0-.0077-.0077-.0154-.0077-.0154-.0077-.0078-.0386 0-.0463.0154-.9328 1.2797-1.8887 2.6519-2.4978 4.2246l-.077.2313c-.2159.6398-.4703 1.4416.0308 2.0121.7015.7632 2.2896-.4472 3.816-2.5441zm16.3743-3.1993c-2.174 2.7985-2.8601 4.8183-2.9372 5.4735-.0617.5551.4548.6553.7555.5628.7401-.2467 1.565-1.2489 2.1509-2.1123 0 0 1.8425-2.9449 3.2532-5.2654.4395-.7246 1.0099-1.57263 1.1024-1.88871.0771-.26211-.5396-.78634-1.827.29295-.3932.30836-1.9659 2.22026-2.4978 2.93716zm-13.3985-4.66402c1.696 1.18722.0848 4.33252-.1156 4.83362.5936.1465 2.5131-1.1641 3.631-2.3281.8865-.94055 2.4052-2.13547 3.3611-2.48239.717-.33149 1.8194-.43942 2.5518-.02313.4856.26983.8095.82489.848 1.40307.0617.98675-.7709 2.47465-1.6035 3.07595-.5782.424-1.1101.2621-1.2412-.054-.2004-.4702-.0231-1.2797.6245-1.9272.3237-.32383.7323-.4703 1.2334-.44718.2004-.30065.1465-.73237-.1696-.91739-.3238-.18502-.9867-.06167-1.5958.39317-2.1508 1.6343-4.0473 4.3403-5.1497 7.3314-.1927.5628-.3007 1.4108.0463 1.989.9405 1.3876 3.153-.5397 3.153-.5397 1.4879-1.272 2.9295-3.0297 4.0627-4.5792 2.9372-4.05502 6.8304-7.54728 8.5572-5.27307.0309.03083.0771.10792.0925.12334.0309-.03083.3315-.52422.3315-.52422h2.783s-5.8821 9.75985-5.8898 9.77525c-.1233.2312-.2004.5936-.0077.7555.1619.1002.4394-.0232.4394-.0232 1.5264-.7092 3.8778-3.9239 3.8855-3.9393h.9559c-1.4956 2.066-3.3612 4.5021-5.6585 6.0594-.6399.4008-1.4802.8248-2.3128.5396s-.7169-1.1872-.663-1.9812c-.0077 0-2.1894 2.5286-4.0165 2.0275-.609-.1851-1.5726-.6862-.8557-3.0683 0 0 .054-.2158.0925-.37-.1619.1542-.4625.424-.4625.424-1.7268 1.6112-3.6773 3.5077-6.1288 3.0297-1.8425-.5474-1.8579-2.3899-1.8579-2.837.0386-2.066 1.8194-4.8568 1.8271-4.8722-.5319.1465-1.0022.2544-1.3877.3238-.0308.0463-.663 1.0407-.663 1.0407-.6938 1.0947-1.403 2.228-2.3281 3.1685l-.1774.1773c-1.3491 1.511-4.5407 4.3326-6.2521 2.3899-1.15636-1.6421-.0925-5.2114 2.359-8.2797 2.6828-3.44599 6.0286-5.43495 7.7015-4.39422zm23.3665.03855-1.4879 2.40527h2.5903l1.4878-2.40527zm30.3047 16.48987c1.3877-1.6574 2.5055-3.5308 3.5771-5.3501.2929-.4934.7709-1.2104 1.2489-2.043.3931-.6784.74-1.0099.3006-1.3105-.2775-.185-.7786.0231-1.1332.2698-2.6057 1.8965-4.9185 6.1905-4.9185 6.1905-1.1178 2.1662-.9945 2.7753-.6244 2.9757.6398.3469 1.5495-.7246 1.5495-.7324zm-11.5021-4.664c.4472-.7478.8172-1.6343.9868-2.3436.1388-.6167.239-1.8271-.3006-1.9427-1.1718-.2467-2.837 1.272-2.4747 2.6134.3392 1.2489 1.7114 1.7269 1.7885 1.6729zm-5.4735 5.1497c1.2181 1.3491 4.1399-2.544 4.9956-4.348-.6861-.2852-1.8194-.9019-2.3282-2.0198-1.2026 1.5033-2.8986 4.1707-2.8678 5.674.0077.239.054.4857.2004.6938zm24.0912-19.97444c-.2159.04626-.5396.11564-.5396.11564.5858-1.28743 1.3799-2.76759.5704-2.65966-.6475.0848-1.6574 1.0099-2.5902 1.88104l-.6014.54735c-3.8237 3.64643-8.3259 11.25537-9.0197 12.85117 1.5495-.7169 6.6068-5.4812 9.1739-8.85011.1002-.14648.1388-.18503.3392-.48568 0 0 .1927-.02313.3623-.03855.2698-.03854.6553-.12334.6553-.12334-.0848.14647-.0848.13876-.3777.55505-.6167.97907-3.2687 4.17063-6.3832 7.01533-1.5187 1.3877-3.1839 2.652-4.6486 3.6156-.717 1.4802-1.4339 3.1145-1.7423 4.8337-.0309.239-.1156 1.2566.6784 1.2026 1.0176-.2159 2.8524-3.1145 2.8524-3.1145 1.7422-2.598 3.9471-5.9361 6.9768-7.6244.6938-.3777 1.696-.555 2.3975-.1619.3084.1773.5474.5551.6784.7632 0 0 .2853-.4779.4163-.7092h2.8216l-4.109 6.9768s-1.4802 2.2125-1.8502 3.2764c-.1465.424.2467.5782.5319.3932 1.6266-.9174 2.9218-2.8447 3.9471-4.2786h.9405c-.7169 1.1024-3.4768 5.1189-5.7818 6.3138-.6399.3315-1.195.6861-1.935.555-1.0793-.131-1.1333-1.4262-.9405-2.1585-.6168.6167-1.9428 1.827-3.13 2.1431-1.033.1927-2.3976-.2081-2.0198-2.7059-1.7423 2.0892-3.8931 3.6696-5.1883 2.1432-.9096-1.0793-.4625-2.9064.5012-5.5892 0 0 .316-.9328.3545-1.0407-.0077-.0077-.0153-.0077-.0231-.0155-.6244.1619-1.4493.1774-1.511.1851-1.5187 2.5363-3.4382 5.3039-6.1904 6.6838-.4009.2005-1.4339.609-2.2511.2159-.7941-.4394-1.1101-1.2952-.9559-2.6289.2158-1.7037 1.0021-3.1915 1.7885-4.5715 1.4647-2.1894 3.4922-4.8413 6.2136-5.9129.6013-.2621 1.5804-.3932 2.2357-.0771.6475.3161.7863 1.0561.7863 1.7114 0 .3007-.0386.6245-.0771.9251-.2313 1.0793-.7016 2.0661-1.0793 2.7985.1773.1079 1.2412-.1234 1.5187-.3238 3.7929-7.555 8.8039-13.87654 13.2829-16.93708.7709-.52422 2.2819-1.480157 3.4306-1.27201.3546.06938.6167.33149.6784.67841.185 1.10241-.2853 1.95042-.7401 2.76759-.0077.00771-.0925.04625-.4471.13105zm-18.9492-1.35681c.0309-.31608.0232-.5011.0232-.5011-2.3051 1.12554-4.5099 3.34578-5.7665 5.93606-.8557 1.92729.1002 2.16629.663 2.05069.9174-.2082 4.6255-2.83702 5.0803-7.48565zm12.6508 1.12554c-.2776.24669-1.1487 1.05616-2.1817 2.22024-1.4801-.78634-4.8414-3.21472-6.3909-3.7004 0 0-2.174-.94823-3.2379-.4163.0154.19273.0309.43172.0309.61674 0 1.5187-.6168 3.04512-1.2875 4.25546-.663 1.21805-2.6673 4.05497-4.8336 4.28627-.3623.0386-1.0793-.0231-1.4185-.6013-.6476-1.1178-.0077-2.38983.4549-3.32264 1.8116-3.68498 5.6199-5.68166 5.6199-5.68166-.6553-.23898-1.4262-.14647-2.251.2467-4.0551 1.91187-7.0616 5.48121-9.7907 8.9812-2.6442 3.7543-4.4944 7.0539-4.9262 10.9316-.1002 1.3645.3624 2.4207 1.2644 2.9295 1.4184.8326 3.0451-.2467 4.1475-1.1333 1.2412-1.0561 2.4746-2.5826 3.2764-4.1244 1.087-2.0815 1.3722-4.2477.555-4.5021-.9328-.2544-1.7731.7015-2.1816 1.2874-1.1024 1.4339-1.3106 3.0297-1.3106 3.0297-1.5881.6784-2.9757 1.9119-3.6619 2.6597.2082-1.6652.532-2.7137 1.1256-3.9934 1.1332-2.4746 3.2224-4.2015 5.4272-4.3942.7016-.0309 1.3491.2621 1.6421.8711.5859 1.1795.2082 2.7291-.1311 3.8238-1.4184 3.6927-4.2708 6.8997-7.4316 8.3875-1.4647.5551-3.5385.8943-5.1035-.663-1.8348-1.8347-1.6035-4.9261-.8557-7.023.9791-3.1222 2.8061-6.283 5.7665-9.94483 4.0164-4.67176 7.7631-7.36226 11.8027-8.46467 1.1178-.262112 2.6443-.354621 3.5694.60902 0 0 .4471-.14647.9405-.31607 1.2488-.431714 3.7081-.979066 6.7301.5936 1.3183.68612 4.6409 2.55174 4.6409 2.55174zm9.5285-.54735c-1.8964 1.02532-3.6618 1.70372-6.0285 1.5958-.1234 0-.4934-.03855-.4934-.03855s-.3161.37775-1.0485 1.21034c-.7323.8403-.902 1.07928-.902 1.07928s.3547.10022.6631.13877c3.3766.54735 6.5836-1.2566 8.5648-2.98345 2.2126-1.82707 3.3458-4.139823 3.3458-4.139823s-1.6497 1.819363-4.1013 3.137633z" fill="#ffeded"/></svg>