<svg fill="none" height="28" viewBox="0 0 152 28" width="152" xmlns="http://www.w3.org/2000/svg" xmlns:xlink="http://www.w3.org/1999/xlink"><clipPath id="a"><path d="m0 0h151.073v28h-151.073z"/></clipPath><g clip-path="url(#a)"><path d="m41.3 0h-41.3v27.8727h41.3z" fill="#ffeded"/><path d="m31.0546 13.491h-.4455l-.6364-.0636-.2545-.5728-.1273-.3182-.1272.3182-.191.5728-.6363.0636h-.4455l.3818.2545.5091.3182-.1909.5727-.1273.3819.3182-.1909.5091-.3819.5728.3819.3181.1909-.1272-.3819-.1909-.5727.509-.3182z" fill="#300029" stroke="#300029" stroke-width=".2899"/><path d="m27.8727 9.60914-.1909.57276-.1273.3818.3182-.2546.5727-.31814.5091.31814.3182.2546-.1273-.3818-.1909-.57276.5091-.38182.3819-.25454h-.4455-.6364l-.1909-.57273-.1273-.38182-.1909.38182-.1909.57273h-.6363-.4455l.3818.25454z" fill="#300029" stroke="#300029" stroke-width=".2899"/><path d="m25.5182 5.72737-.1909-.57273-.1273-.38181-.1909.38181-.1909.57273h-.6364-.4454l.3818.25454.5091.38182-.1909.57273-.1273.38182.3182-.25455.5727-.31818.5091.31818.3182.25455-.1273-.38182-.1909-.57273.5091-.38182.3818-.25454h-.4455z" fill="#300029" stroke="#300029" stroke-width=".2899"/><path d="m21 4.5182-.2545-.57273-.1273-.38181-.1273.38181-.1909.57273h-.6363-.4455l.3818.25455.4455.38181-.1273.57273-.1273.38182.3182-.25455.5091-.31818.5091.31818.3818.25455-.1273-.38182-.1909-.57273.5091-.38181.3182-.25455h-.3818z" fill="#300029" stroke="#300029" stroke-width=".2899"/><path d="m16.4818 5.72737-.1909-.57273-.1909-.38181-.1273.38181-.1909.57273h-.6363-.4455l.3818.25454.5091.38182-.1909.50909-.1273.44546.3182-.25455.5091-.31818.5727.31818.3182.25455-.1272-.44546-.191-.50909.5091-.38182.3819-.25454h-.4455z" fill="#300029" stroke="#300029" stroke-width=".2899"/><path d="m13.1727 8.90914-.1909-.57272-.1272-.31819-.1273.31819-.1909.57272-.6364.06364h-.4454l.3181.25454.5091.31819-.1909.57269-.1273.3819.3819-.191.5091-.38178.509.38178.3182.191-.0636-.3819-.1909-.57269.5091-.31819.3182-.25454h-.4455z" fill="#300029" stroke="#300029" stroke-width=".2899"/><path d="m12.1545 14.8274.3182.1909-.1272-.3819-.191-.5727.5091-.3182.3819-.2545-.4455-.0636h-.6364l-.1909-.5728-.1272-.3182-.1273.3182-.2546.5728h-.6363l-.3818.0636.3181.2545.5091.3182-.1909.5727-.1273.3819.3182-.1909.5728-.3819z" fill="#300029" stroke="#300029" stroke-width=".2899"/><path d="m13.1727 17.882-.1909-.5727-.1272-.3182-.1273.3182-.2546.5727h-.6363l-.3818.0636.3181.2546.5091.3181-.1909.5728-.1273.3818.3182-.1909.5728-.3818.509.3818.3182.1909-.1272-.3818-.191-.5728.5091-.3181.3819-.2546-.4455-.0636z" fill="#300029" stroke="#300029" stroke-width=".2899"/><path d="m16.4182 21.1909-.1909-.5727-.1273-.3819-.1273.3819-.2545.5727h-.6364-.3818l.3182.2545.5091.3182-.1909.5727-.1273.3819.3818-.1909.5091-.3182.5091.3182.3182.1909-.1273-.3819-.1273-.5727.4455-.3182.3818-.2545h-.4454z" fill="#300029" stroke="#300029" stroke-width=".2899"/><path d="m20.9364 22.3364-.1909-.5091-.1273-.3818-.1273.3818-.1909.5091-.6363.0637h-.4455l.3182.2545.5091.3182-.1909.5727-.0637.3818.3182-.1909.5091-.3818.5091.3818.3818.1909-.1273-.3818-.1909-.5727.5091-.3182.3182-.2545h-.3818z" fill="#300029" stroke="#300029" stroke-width=".2899"/><path d="m25.4545 21.1909-.1909-.5727-.1272-.3819-.1273.3819-.1909.5727h-.6364-.4454l.3181.2545.5091.3818-.1909.5728-.1273.3818.3819-.2546.5091-.3181.509.3181.3182.2546-.0636-.3818-.1909-.5728.5091-.3818.3182-.2545h-.4455z" fill="#300029" stroke="#300029" stroke-width=".2899"/><path d="m28.7636 17.9456-.2545-.5727-.1273-.3818-.1273.3818-.1909.5727h-.6363-.4455l.3818.2546.5091.3818-.1909.5727-.1273.3818.3182-.2545.5091-.3182.5727.3182.3182.2545-.1273-.3818-.1909-.5727.5091-.3818.3819-.2546h-.4455z" fill="#300029" stroke="#300029" stroke-width=".2899"/><g fill="#ffeded"><path d="m50.2091 5.59998.7636.19091c-.1909.63636-.4455 1.14545-.8909 1.46363-.4455.31818-.9546.50909-1.5909.50909-.6364 0-1.1455-.12727-1.5909-.38181-.3818-.25455-.7-.63637-.8909-1.14546s-.3182-1.01818-.3182-1.59091c0-.63636.1273-1.14545.3818-1.65454.2546-.44546.5727-.82728 1.0182-1.01819.4454-.25454.8909-.38181 1.4636-.38181.5728 0 1.0818.12727 1.5273.44545.3818.31818.7.7.8273 1.27273l-.7637.19091c-.1272-.44546-.3181-.76364-.5727-.95455-.2545-.19091-.5727-.31818-1.0182-.31818-.4454 0-.8272.12727-1.1454.31818s-.5091.50909-.6364.89091-.1909.76364-.1909 1.14545c0 .5091.0636.95455.1909 1.33637s.3818.63636.7.82727.6364.25455 1.0182.25455c.4454 0 .8273-.12728 1.1454-.38182.2546-.19091.4455-.57273.5728-1.01818z"/><path d="m51.6091 5.47268c0-.82727.1909-1.4.6363-1.78182.3819-.31818.8273-.50909 1.3364-.50909.5727 0 1.0818.19091 1.4636.57273.3819.38182.5728.95454.5728 1.59091 0 .57272-.0637 1.01818-.2546 1.33636s-.3818.57273-.7.76363c-.3182.19091-.6363.25455-1.0182.25455-.6363 0-1.0818-.19091-1.4636-.57273-.3818-.31818-.5727-.89091-.5727-1.65454zm.7636 0c0 .57273.1273.95454.3818 1.27272.2546.25455.5728.38182.8909.38182.3819 0 .6364-.12727.8909-.44545.2546-.25455.3819-.7.3819-1.27273 0-.50909-.1273-.95454-.3819-1.20909-.2545-.19091-.5727-.38182-.8909-.38182-.3818 0-.7.12728-.8909.38182-.3182.31818-.3818.76364-.3818 1.27273z"/><path d="m56.1909 5.85454v-.7h2.2273v.76364h-2.2273z"/><path d="m59.4363 7.63634v-3.75455h-.6363v-.57272h.6363v-.44546c0-.31818 0-.50909.0637-.63636.0636-.19091.1909-.31818.3818-.44546.1909-.12727.4454-.1909.7636-.1909.1909 0 .4455 0 .7.06363l-.1272.63637c-.1273 0-.3182-.06364-.4455-.06364-.1909 0-.3818.06364-.4455.12727-.0636.06364-.1272.25455-.1272.50909v.38182h.8272v.57273h-.8272v3.81818z"/><path d="m64.4 7.63639v-.63636c-.3182.50909-.7636.76364-1.4.76364-.2546 0-.5091-.06364-.7-.12728-.1909-.12727-.3818-.1909-.5091-.38181-.1273-.12728-.1909-.31819-.2545-.57273 0-.12727-.0637-.38182-.0637-.7v-2.67273h.7637v2.41818c0 .38182 0 .63637.0636.76364.0636.19091.1273.31818.3182.44545.1272.12728.3182.19091.5727.19091.1909 0 .4455-.06363.6364-.19091.1909-.12727.3181-.25454.3818-.44545.0636-.19091.1273-.44545.1273-.82727v-2.35455h.7636v4.32727z"/><path d="m66.2454 7.63638v-4.32728h.6364v.63636c.3182-.44545.7636-.7 1.4-.7.2545 0 .5091.06364.7.12728.1909.06363.3818.19091.5091.38182.1272.12727.1909.31818.2545.57272 0 .12728.0637.38182.0637.7v2.6091h-.7637v-2.6091c0-.31818 0-.50909-.0636-.7-.0637-.12727-.1273-.25454-.3182-.38182-.1273-.06363-.3182-.12727-.5091-.12727-.3182 0-.5727.12727-.8273.31818-.2545.19091-.3181.57273-.3181 1.14546v2.35455z"/><path d="m73.6909 7.63635v-.57273c-.2545.44546-.7.63636-1.2091.63636-.3182 0-.6363-.06363-.9545-.25454s-.5091-.44546-.7-.82727c-.1273-.31819-.2546-.76364-.2546-1.14546 0-.44545.0637-.82727.1909-1.14545.1273-.38182.3818-.63637.6364-.82728.3182-.1909.6364-.25454.9545-.25454.2546 0 .5091.06364.7.19091.191.12727.3819.25454.5091.44545v-2.16363h.7v5.91818zm-2.3545-2.1c0 .57273.1272.95454.3818 1.27273.2545.25454.5091.38181.8273.38181.3181 0 .5727-.12727.8272-.38181.2546-.25455.3182-.63637.3182-1.2091 0-.57272-.1273-1.01818-.3182-1.27272-.1909-.25455-.5091-.50909-.8909-.50909-.3182 0-.5727.12727-.8273.38181-.1909.31819-.3181.76364-.3181 1.33637z"/><path d="m78.4636 6.30001.7637.06364c-.1273.44545-.3182.76363-.6364 1.01818s-.7637.38182-1.2091.38182c-.6364 0-1.1455-.19091-1.5273-.57273s-.5727-.95455-.5727-1.65455.1909-1.27272.5727-1.71818c.3818-.38182.8909-.57273 1.4637-.57273.5727 0 1.0818.19091 1.4.57273.3818.38182.5727.95455.5727 1.65455v.19091h-3.2455c0 .44545.1909.82727.3819 1.08182.2545.25454.5727.38181.8909.38181.2545 0 .509-.06363.7-.19091.1909-.12727.3181-.38181.4454-.63636zm-2.4182-1.20909h2.4182c-.0636-.38182-.1273-.63636-.2545-.82727-.2546-.25455-.5728-.44546-.8909-.44546-.3182 0-.6364.12727-.8273.31818-.2546.25455-.3818.57273-.4455.95455z"/><path d="m82.9181 7.63635v-.57273c-.2545.44546-.7.63636-1.209.63636-.3182 0-.6364-.06363-.9546-.25454s-.5091-.44546-.7-.82727c-.1272-.31819-.2545-.76364-.2545-1.14546 0-.44545.0636-.82727.1909-1.14545.1273-.38182.3818-.63637.6364-.82728.3181-.1909.6363-.25454.9545-.25454.2545 0 .5091.06364.7.19091s.3818.25454.5091.44545v-2.16363h.7v5.91818zm-2.2908-2.1c0 .57273.1272.95454.3818 1.27273.2545.25454.5091.38181.8272.38181.3182 0 .5728-.12727.8273-.38181.2545-.25455.3182-.63637.3182-1.2091 0-.57272-.1273-1.01818-.3182-1.27272-.1909-.25455-.5727-.50909-.8909-.50909s-.5727.12727-.8273.38181c-.1909.31819-.3181.76364-.3181 1.33637z"/><path d="m87.7545 7.63635h-.7v-5.91818h.7637v2.1c.3181-.38182.7-.57273 1.209-.57273.2546 0 .5091.06364.7637.19091.2545.12727.4454.25454.5727.44545s.2545.44546.3818.7c.0636.25455.1273.57273.1273.89091 0 .76364-.1909 1.33637-.5727 1.71819-.3819.38181-.8273.63636-1.3364.63636s-.8909-.19091-1.2091-.63636zm0-2.16364c0 .5091.0637.89091.1909 1.14546.2546.38182.5728.57273.9546.57273.3181 0 .5727-.12728.8272-.44546.2546-.25454.3819-.7.3819-1.27273 0-.57272-.1273-.95454-.3182-1.27272-.2546-.25455-.5091-.38182-.8273-.38182s-.5727.12727-.8273.44545c-.2545.25455-.3818.7-.3818 1.20909z"/><path d="m91.7 9.35457-.0636-.69999c.1909.06363.3182.06363.4454.06363.1909 0 .3182 0 .3818-.06363.1273-.06364.191-.12728.2546-.25455.0636-.06364.1273-.25455.2545-.57273 0-.06363.0637-.12727.0637-.19091l-1.6546-4.32727h.7637l.8909 2.48182c.1272.31818.1909.63636.3182 1.01818.0636-.31818.1909-.63636.3181-.95454l.9546-2.54546h.7636l-1.6545 4.39091c-.1909.44545-.3182.82727-.3818.95455-.1273.25454-.2546.44545-.4455.50909-.1909.12727-.3818.1909-.5727.1909-.3182.06364-.4455.06364-.6364 0z"/><path d="m99.8454 6.9999.1273.63637c-.1909.06363-.3818.06363-.5727.06363-.2546 0-.4455-.06363-.6364-.12727-.1273-.06364-.2545-.19091-.3182-.31818-.0636-.12728-.0636-.44546-.0636-.89091v-2.48182h-.5091v-.57273h.5091v-1.01818l.7-.44545v1.52727h.7636v.57273h-.7636v2.54545c0 .19091 0 .31818.0636.38182 0 .06364.0637.12727.1273.12727.0637.06364.1273.06364.2546.06364.0636 0 .1272-.06364.3181-.06364z"/><path d="m100.545 7.63635v-5.91818h.764v2.1c.318-.38182.764-.57273 1.273-.57273.318 0 .573.06364.827.19091.255.12727.382.31818.509.50909s.127.57273.127.95455v2.73636h-.763v-2.73636c0-.38182-.064-.63637-.255-.82728-.127-.19091-.382-.25454-.7-.25454-.191 0-.445.06363-.636.19091-.191.12727-.318.25454-.382.44545s-.127.44546-.127.82727v2.35455z"/><path d="m108.118 6.30001.764.06364c-.127.44545-.318.76363-.637 1.01818-.318.25455-.763.38182-1.209.38182-.636 0-1.145-.19091-1.527-.57273s-.573-.95455-.573-1.65455.191-1.27272.573-1.71818c.382-.38182.891-.57273 1.464-.57273.572 0 1.082.19091 1.4.57273.382.38182.572.95455.572 1.65455v.19091h-3.245c0 .44545.191.82727.382 1.08182.254.25454.573.38181.891.38181.254 0 .509-.06363.7-.19091.191-.12727.318-.38181.445-.63636zm-2.418-1.20909h2.418c-.063-.38182-.127-.63636-.254-.82727-.255-.25455-.509-.44546-.891-.44546-.318 0-.637.12727-.828.31818-.254.25455-.381.57273-.445.95455z"/><path d="m50.2091 14.8908.7636.1909c-.1909.6364-.4455 1.1455-.8909 1.4636-.4455.3182-.9546.5091-1.5909.5091-.6364 0-1.1455-.1272-1.5909-.3818-.3818-.2545-.7-.6364-.8909-1.1454-.1909-.5091-.3182-1.0182-.3182-1.591 0-.6363.1273-1.1454.3818-1.6545.2546-.4455.5727-.8273 1.0182-1.0818.4454-.2546.8909-.3818 1.4636-.3818.5728 0 1.0818.1272 1.5273.4454.3818.3182.7.7.8273 1.2727l-.7637.191c-.1272-.4455-.3181-.7637-.5727-.9546-.2545-.1909-.5727-.3182-1.0182-.3182-.4454 0-.8272.1273-1.1454.3182s-.5091.5091-.6364.8909-.1909.7637-.1909 1.1455c0 .5091.0636.9545.1909 1.3363.1273.3819.3818.6364.7.8273s.6364.2546 1.0182.2546c.4454 0 .8273-.1273 1.1454-.3819.2546-.0636.4455-.4454.5728-.9545z"/><path d="m51.8636 16.9909v-4.3273h.6364v.6364c.1909-.3182.3182-.5091.4454-.6364.1273-.1272.3182-.1272.4455-.1272.2545 0 .5091.0636.7636.2545l-.2545.7c-.1273-.1273-.3182-.1273-.5091-.1273s-.3182.0637-.4455.1273c-.1272.1273-.1909.2546-.2545.3818-.0636.2546-.1273.5728-.1273.8273v2.2909z"/><path d="m57.5909 15.5909.7636.0637c-.1273.4454-.3182.7636-.6364 1.0181-.3181.2546-.7636.3819-1.209.3819-.6364 0-1.1455-.191-1.5273-.5728s-.5727-.9545-.5727-1.6545.1909-1.2727.5727-1.7182c.3818-.3818.8909-.5727 1.4636-.5727.5728 0 1.0818.1909 1.4.5727.3818.3818.5727.9545.5727 1.6545v.191h-3.2454c0 .4454.1909.8272.3818 1.0818.2546.2545.5728.3818.8909.3818.2546 0 .5091-.0636.7-.1909.1909-.0637.3182-.3182.4455-.6364zm-2.4182-1.1454h2.4182c-.0637-.3819-.1273-.6364-.2546-.8273-.2545-.2546-.5091-.4455-.8909-.4455-.3181 0-.6363.1273-.8272.3182-.2546.2546-.3818.5727-.4455.9546z"/><path d="m62.1091 16.4818c-.2546.2545-.5091.3818-.7637.5091-.2545.0636-.5091.1273-.8272.1273-.4455 0-.8273-.1273-1.0818-.3182-.2546-.2546-.3819-.5091-.3819-.8909 0-.191.0637-.3819.1273-.5728.1273-.1909.1909-.3182.3818-.4454.1273-.1273.3182-.1909.5091-.2546.1273-.0636.3818-.0636.6364-.1272.5727-.0637 1.0181-.1273 1.3363-.2546 0-.1273 0-.1909 0-.1909 0-.3182-.0636-.5091-.1909-.6364-.1909-.1909-.4454-.2545-.8272-.2545-.3182 0-.5728.0636-.7637.1909s-.2545.3182-.3818.6364l-.7-.0637c.0636-.3182.1909-.5727.3182-.7636s.3818-.3182.6363-.4455c.2546-.1272.6364-.1272.9546-.1272.3818 0 .7.0636.8909.1272.2545.0637.3818.1909.5091.3182.1272.1273.1909.3182.2545.5091 0 .1273.0637.3818.0637.7v.9546c0 .7 0 1.0818.0636 1.2727 0 .1909.0636.3818.1909.5091h-.7636c-.1273-.1273-.1909-.3182-.1909-.5091zm-.0637-1.6546c-.2545.1273-.6363.1909-1.2091.2546-.3181.0636-.509.0636-.6363.1273-.1273.0636-.1909.1272-.3182.2545-.0636.1273-.0636.2545-.0636.3818 0 .1909.0636.3818.1909.5091.1272.1273.3818.1909.6363.1909.2546 0 .5091-.0636.7637-.1909.1909-.1273.3818-.3182.5091-.5091.0636-.1909.1272-.3818.1272-.7636z"/><path d="m65.4818 16.3545.1273.6364c-.1909.0636-.3818.0636-.5727.0636-.2546 0-.4455-.0636-.6364-.1273-.1273-.0636-.2545-.1909-.3182-.3182-.0636-.1272-.0636-.4454-.0636-.8909v-2.4818h-.5091v-.5727h.5091v-1.0818l.7-.4455v1.5273h.7636v.5727h-.7636v2.5455c0 .1909 0 .3181.0636.3818 0 .0636.0637.1273.1273.1273.0636.0636.1273.0636.2545.0636z"/><path d="m66.2454 11.9v-.8273h.7637v.8273zm0 5.0909v-4.3272h.7637v4.3272z"/><path d="m69.3 16.9907-1.6546-4.3272h.7637l.9545 2.6091c.1273.2545.1909.5727.2546.8909.0636-.2546.1272-.5091.2545-.8273l.9546-2.6091h.7636l-1.6545 4.3273h-.6364z"/><path d="m75.2182 15.5909.7636.0637c-.1273.4454-.3182.7636-.6364 1.0181-.3181.2546-.7636.3819-1.2091.3819-.6363 0-1.1454-.191-1.5272-.5728s-.5728-.9545-.5728-1.6545.191-1.2727.5728-1.7182c.3818-.3818.8909-.5727 1.4636-.5727s1.0818.1909 1.4.5727c.3818.3818.5727.9545.5727 1.6545v.191h-3.2454c0 .4454.1909.8272.3818 1.0818.2545.2545.5727.3818.8909.3818.2546 0 .5091-.0636.7-.1909.1909-.0637.3182-.3182.4455-.6364zm-2.4182-1.1454h2.4182c-.0637-.3819-.1273-.6364-.2546-.8273-.2545-.2546-.5091-.4455-.8909-.4455-.3182 0-.6364.1273-.8273.3182-.3181.2546-.4454.5727-.4454.9546z"/><path d="m79.2909 16.9908v-5.9818h4.3273v.7h-3.5v1.8455h3.3091v.7h-3.3091v2.0363h3.6909v.7z"/><path d="m87.6273 16.9907v-.6363c-.3182.5091-.7637.7636-1.4.7636-.2546 0-.5091-.0636-.7-.1273-.1909-.1272-.3818-.1909-.5091-.3818-.1273-.1272-.1909-.3182-.2546-.5727 0-.1273-.0636-.3818-.0636-.7v-2.6727h.7636v2.4182c0 .3818 0 .6363.0637.7636.0636.1909.1272.3182.3182.4454.1272.1273.3181.191.5727.191.2545 0 .4454-.0637.6363-.191.191-.1272.3182-.2545.3819-.4454.0636-.1909.1272-.4455.1272-.8273v-2.2909h.7637v4.3273h-.7z"/><path d="m89.4091 16.9909v-4.3273h.6363v.6364c.191-.3182.3182-.5091.4455-.6364.1273-.1272.3182-.1272.4454-.1272.2546 0 .5091.0636.7637.2545l-.2546.7c-.1909-.1273-.3818-.1273-.5091-.1273-.1909 0-.3181.0637-.4454.1273-.1273.1273-.1909.2546-.2545.3818-.0637.2546-.1273.5728-.1273.8273v2.2909z"/><path d="m91.8909 14.8273c0-.8273.1909-1.4.6364-1.7818.3818-.3182.8272-.5091 1.3363-.5091.5727 0 1.0818.1909 1.4637.5727.3818.3818.5727.9545.5727 1.5909 0 .5727-.0637 1.0182-.2546 1.3364s-.3818.5727-.7.7636c-.3181.1909-.6363.2546-1.0181.2546-.6364 0-1.0819-.191-1.4637-.5728s-.5727-.8909-.5727-1.6545zm.7636 0c0 .5727.1273.9545.3819 1.2727.2545.2546.5727.3818.8909.3818.3818 0 .6363-.1272.8909-.4454.2545-.2546.3818-.7.3818-1.2728 0-.509-.1273-.9545-.3818-1.209-.2546-.2546-.5728-.3819-.8909-.3819-.3819 0-.7.1273-.8909.3819-.2546.3181-.3819.7636-.3819 1.2727z"/><path d="m96.7909 18.6455v-5.9819h.6364v.5728c.1273-.1909.3182-.3818.5091-.5091s.4454-.1909.7-.1909c.3818 0 .7.0636.9545.2545s.5091.4455.6361.8273c.128.3182.191.7.191 1.1454 0 .4455-.063.8273-.254 1.2091-.128.3819-.3822.6364-.7004.8273-.3181.1909-.6363.2546-.9545.2546-.2545 0-.4455-.0637-.6364-.1273-.1909-.1273-.3818-.2546-.5091-.3818v2.1zm.7-3.7546c0 .5727.1273.9546.3182 1.2091.2545.2546.5091.3818.8273.3818.3181 0 .5727-.1272.8272-.3818.2546-.2545.3182-.7.3182-1.2727s-.1273-.9546-.3182-1.2091c-.2545-.2546-.5091-.3818-.8272-.3818-.3182 0-.5728.1272-.8273.4454-.1909.1909-.3182.6364-.3182 1.2091z"/><path d="m104.427 15.5909.764.0637c-.127.4454-.318.7636-.636 1.0181-.319.2546-.764.3819-1.21.3819-.636 0-1.145-.191-1.527-.5728s-.573-.9545-.573-1.6545.191-1.2727.573-1.7182c.382-.3818.891-.5727 1.464-.5727s1.082.1909 1.4.5727c.382.3818.573.9545.573 1.6545v.191h-3.246c0 .4454.191.8272.382 1.0818.254.2545.573.3818.891.3818.254 0 .509-.0636.7-.1909.191-.0637.318-.3182.445-.6364zm-2.418-1.1454h2.418c-.063-.3819-.127-.6364-.254-.8273-.255-.2546-.509-.4455-.891-.4455-.318 0-.637.1273-.827.3182-.319.2546-.446.5727-.446.9546z"/><path d="m108.5 16.9908v-5.9818h2.227c.382 0 .7 0 .891.0637.318.0636.509.1272.764.2545.191.1273.382.3182.509.5727.127.2546.191.5091.191.8273 0 .5091-.191.9546-.509 1.2727-.318.3819-.891.5091-1.782.5091h-1.527v2.4182h-.764zm.764-3.1181h1.527c.509 0 .891-.0637 1.082-.2546s.318-.4454.318-.8273c0-.2545-.064-.4454-.191-.6363s-.318-.3182-.509-.3818c-.127-.0637-.382-.0637-.764-.0637h-1.527v2.1637z"/><path d="m113.973 16.9909v-4.3273h.636v.6364c.191-.3182.318-.5091.446-.6364.127-.1272.318-.1272.445-.1272.255 0 .509.0636.764.2545l-.255.7c-.191-.1273-.382-.1273-.509-.1273-.191 0-.318.0637-.445.1273-.128.1273-.191.2546-.255.3818-.064.2546-.127.5728-.127.8273v2.2909z"/><path d="m116.454 14.8273c0-.8273.191-1.4.637-1.7818.382-.3182.827-.5091 1.336-.5091.573 0 1.082.1909 1.464.5727s.573.9545.573 1.5909c0 .5727-.064 1.0182-.255 1.3364s-.382.5727-.7.7636-.636.2546-1.018.2546c-.637 0-1.082-.191-1.464-.5728s-.573-.8909-.573-1.6545zm.764 0c0 .5727.127.9545.382 1.2727.254.2546.573.3818.891.3818.382 0 .636-.1272.891-.4454.254-.2546.382-.7.382-1.2728 0-.509-.128-.9545-.382-1.209-.255-.2546-.573-.3819-.891-.3819-.382 0-.7.1273-.891.3819-.255.3181-.382.7636-.382 1.2727z"/><path d="m121.227 17.3726.7.1272c0 .1909.128.3819.255.5091.191.1273.445.1909.763.1909.319 0 .573-.0636.764-.1909.191-.1272.318-.3182.382-.5727.064-.1273.064-.4455.064-.9545-.319.3818-.7.5727-1.21.5727-.572 0-1.081-.1909-1.4-.6364-.318-.4454-.509-.9545-.509-1.5273 0-.3818.064-.7636.255-1.1454.127-.3182.382-.6364.636-.8273.255-.1909.637-.2545 1.018-.2545.51 0 .955.1909 1.273.6363v-.5091h.7v3.7546c0 .7-.063 1.1454-.191 1.4-.127.2545-.382.5091-.636.6364-.318.1909-.636.2545-1.082.2545-.509 0-.954-.1273-1.273-.3182-.318-.3182-.509-.7-.509-1.1454zm.637-2.6091c0 .5727.127.9545.318 1.2727.254.2545.509.3818.827.3818s.636-.1273.827-.3818c.255-.2545.319-.6364.319-1.2091 0-.5091-.128-.9545-.382-1.2091-.255-.2545-.509-.3818-.828-.3818-.318 0-.572.1273-.827.3818-.127.2546-.254.6364-.254 1.1455z"/><path d="m126 16.9909v-4.3273h.636v.6364c.191-.3182.319-.5091.446-.6364.127-.1272.318-.1272.445-.1272.255 0 .509.0636.764.2545l-.255.7c-.191-.1273-.381-.1273-.509-.1273-.191 0-.318.0637-.445.1273-.127.1273-.191.2546-.255.3818-.063.2546-.127.5728-.127.8273v2.2909z"/><path d="m131.6 16.4818c-.255.2546-.509.3818-.764.5091-.254.0636-.509.1273-.827.1273-.445 0-.827-.1273-1.082-.3182-.254-.2545-.382-.5091-.382-.8909 0-.1909.064-.3818.128-.5727.127-.1909.191-.3182.382-.4455.127-.1273.318-.1909.509-.2545.127-.0637.381-.0637.636-.1273.573-.0636 1.018-.1273 1.336-.2546 0-.1272 0-.1909 0-.1909 0-.3181-.063-.5091-.191-.6363-.191-.1909-.445-.2546-.827-.2546-.318 0-.573.0637-.764.1909-.19.1273-.254.3182-.381.6364l-.7-.1273c.063-.3182.191-.5727.318-.7636s.382-.3182.636-.4455c.255-.1272.637-.1272.955-.1272.382 0 .7.0636.891.1272.254.0637.381.191.509.3182.127.1273.191.3182.254.5091 0 .1273.064.3818.064.7v.9546c0 .7 0 1.0818.064 1.2727 0 .1909.063.3818.191.5091h-.764c-.127-.0637-.127-.2546-.191-.4455zm-.064-1.6545c-.254.1272-.636.1909-1.209.2545-.318.0637-.509.0637-.636.1273s-.191.1273-.318.2545c-.064.1273-.128.1909-.128.3182 0 .1909.064.3818.191.5091.128.1273.382.1909.637.1909.254 0 .509-.0636.763-.1909.191-.1273.382-.3182.509-.5091.064-.1909.128-.3818.128-.7636v-.1909z"/><path d="m133.445 16.9909v-4.3273h.637v.6364c.127-.191.318-.3819.573-.5091.254-.1273.509-.1909.763-.1909.318 0 .573.0636.764.1909.191.1272.318.3181.445.5727.318-.5091.764-.7636 1.337-.7636.445 0 .763.1272 1.018.3818.254.2545.318.5727.318 1.0818v2.9909h-.7v-2.7364c0-.3181 0-.509-.064-.6363-.063-.1273-.127-.2546-.254-.3182s-.255-.1273-.446-.1273c-.318 0-.572.1273-.763.3182s-.318.5091-.318.9546v2.4818h-.764v-2.8c0-.3182-.064-.5728-.191-.7637s-.318-.2545-.573-.2545c-.191 0-.382.0636-.572.1909-.191.1273-.319.2545-.382.4455-.064.1909-.128.509-.128.8909v2.2272h-.7z"/><path d="m140.382 16.9909v-4.3273h.636v.6364c.127-.191.318-.3819.573-.5091.254-.1273.509-.1909.764-.1909.318 0 .572.0636.763.1909.191.1272.318.3181.446.5727.318-.5091.763-.7636 1.336-.7636.445 0 .764.1272 1.018.3818.255.2545.318.5727.318 1.0818v2.9909h-.7v-2.7364c0-.3181 0-.509-.063-.6363-.064-.1273-.128-.2546-.255-.3182s-.254-.1273-.445-.1273c-.318 0-.573.1273-.764.3182s-.318.5091-.318.9546v2.4818h-.764v-2.8c0-.3182-.063-.5728-.191-.7637-.127-.1909-.318-.2545-.572-.2545-.191 0-.382.0636-.573.1909s-.318.2545-.382.4455c-.064.1909-.127.509-.127.8909v2.2272h-.7z"/><path d="m150.309 15.5909.764.0637c-.128.4454-.318.7636-.637 1.0181-.318.2546-.763.3819-1.209.3819-.636 0-1.145-.191-1.527-.5728s-.573-.9545-.573-1.6545.191-1.2727.573-1.7182c.382-.3818.891-.5727 1.464-.5727.572 0 1.081.1909 1.4.5727.381.3818.572.9545.572 1.6545v.191h-3.245c0 .4454.191.8272.382 1.0818.254.2545.572.3818.891.3818.254 0 .509-.0636.7-.1909.191-.0637.318-.3182.445-.6364zm-2.418-1.1454h2.418c-.064-.3819-.127-.6364-.254-.8273-.255-.2546-.51-.4455-.891-.4455-.319 0-.637.1273-.828.3182-.318.2546-.445.5727-.445.9546z"/><path d="m45.5636 24.1818c0-.8272.1909-1.4.6364-1.7818.3818-.3182.8273-.5091 1.3364-.5091.5727 0 1.0818.1909 1.4636.5727.3818.3819.5727.9546.5727 1.591 0 .5727-.0636 1.0181-.2545 1.3363s-.3819.5727-.7.7637c-.3182.1909-.6364.2545-1.0182.2545-.6364 0-1.0818-.1909-1.4636-.5727-.3819-.3818-.5728-.9546-.5728-1.6546zm.7637 0c0 .5728.1272.9546.3818 1.2728.2545.2545.5727.3818.8909.3818.3818 0 .6363-.1273.8909-.4455.2545-.2545.3818-.7.3818-1.2727 0-.5091-.1273-.9546-.3818-1.2091-.2546-.2545-.5727-.3818-.8909-.3818-.3818 0-.7.1273-.8909.3818-.2546.3182-.3818.7-.3818 1.2727z"/><path d="m50.6545 26.3455v-3.7545h-.6364v-.5728h.6364v-.4454c0-.3182 0-.5091.0636-.6364.0637-.1909.1909-.3182.3819-.4454.1909-.1273.4454-.1909.7636-.1909.1909 0 .4455 0 .7.0636l-.1273.6364c-.1272 0-.3182-.0637-.4454-.0637-.1909 0-.3819.0637-.4455.1273s-.1273.2545-.1273.5091v.3818h.8273v.5727h-.8273v3.7546h-.7636z"/><path d="m56.7 25.7091.1273.6364c-.1909.0636-.3819.0636-.5728.0636-.2545 0-.4454-.0636-.6363-.1272-.1273-.0637-.2546-.191-.2546-.3182-.0636-.1273-.0636-.4455-.0636-.8909v-2.4818h-.5727v-.5728h.5091v-1.0818l.7-.4454v1.5272h.7636v.5728h-.7v2.5454c0 .1909 0 .3182.0636.3818 0 .0637.0637.1273.1273.1273.0636.0636.1273.0636.2545.0636z"/><path d="m57.4 26.3455v-5.9818h.7636v2.1636c.3182-.3818.7637-.5727 1.2728-.5727.3182 0 .5727.0636.8272.1909.2546.1273.3819.3182.5091.5091.1273.1909.1273.5727.1273.9545v2.7364h-.7636v-2.7364c0-.3818-.0637-.6363-.2546-.8272-.1272-.1909-.3818-.2546-.7-.2546-.1909 0-.4454.0637-.6363.1909-.191.1273-.3182.2546-.3819.4455-.0636.1909-.1272.4454-.1272.8273v2.3545z"/><path d="m65.0364 24.9455.7636.0636c-.1273.4455-.3182.7636-.6364 1.0182-.3181.2545-.7636.3818-1.2091.3818-.6363 0-1.1454-.1909-1.5272-.5727-.3819-.3818-.5728-.9546-.5728-1.6546s.1909-1.2727.5728-1.7182c.3818-.3818.8909-.5727 1.4636-.5727s1.0818.1909 1.4.5727c.3818.3819.5727.9546.5727 1.6546v.1909h-3.2454c0 .4455.1909.8273.3818 1.0818.2545.2546.5727.3818.8909.3818.2545 0 .5091-.0636.7-.1909.1909-.1272.3182-.3182.4455-.6363zm-2.4182-1.2091h2.4182c-.0637-.3818-.1273-.6364-.2546-.8273-.2545-.2545-.5091-.4455-.8909-.4455-.3182 0-.6364.1273-.8273.3182-.3182.3182-.4454.6364-.4454.9546z"/><path d="m69.1091 26.3455v-5.9818h4.3273v.7h-3.5v1.8454h3.3091v.7h-3.3091v2.0364h3.6909v.7z"/><path d="m77.3818 26.3456v-.6364c-.3182.5091-.7636.7636-1.4.7636-.2545 0-.5091-.0636-.7-.1272-.1909-.1273-.3818-.1909-.5091-.3819-.1273-.1272-.1909-.3181-.2545-.5727 0-.1273-.0637-.3818-.0637-.7v-2.6727h.7637v2.4182c0 .3818 0 .6363.0636.7636.0636.1909.1273.3182.3182.4455.1273.1272.3182.1909.5727.1909.1909 0 .4455-.0637.6364-.1909.1909-.1273.3182-.2546.3818-.4455s.1273-.4454.1273-.8273v-2.2909h.7636v4.3273h-.7z"/><path d="m79.2272 26.3455v-4.3273h.6364v.6364c.1909-.3182.3182-.5091.4455-.6364.1272-.1273.3181-.1273.4454-.1273.2546 0 .5091.0637.7637.2546l-.2546.7c-.1909-.1273-.3818-.1273-.5091-.1273-.1909 0-.3182.0636-.4454.1273-.1273.1272-.191.2545-.2546.3818-.0636.2545-.1273.5727-.1273.8273v2.2909z"/><path d="m81.7091 24.1818c0-.8272.1909-1.4.6363-1.7818.3819-.3182.8273-.5091 1.3364-.5091.5727 0 1.0818.1909 1.4636.5727.3819.3819.5728.9546.5728 1.591 0 .5727-.0637 1.0181-.2546 1.3363s-.3818.5727-.7.7637c-.3182.1909-.6363.2545-1.0182.2545-.6363 0-1.0818-.1909-1.4636-.5727s-.5727-.9546-.5727-1.6546zm.7636 0c0 .5728.1273.9546.3818 1.2728.2546.2545.5728.3818.8909.3818.3819 0 .6364-.1273.8909-.4455.2546-.2545.3819-.7.3819-1.2727 0-.5091-.1273-.9546-.3819-1.2091-.2545-.2545-.5727-.3818-.8909-.3818-.3818 0-.7.1273-.8909.3818-.2545.3182-.3818.7-.3818 1.2727z"/><path d="m86.6091 28v-5.9818h.6363v.5727c.1273-.1909.3182-.3818.5091-.5091.1909-.1272.4455-.1909.7-.1909.3818 0 .7.0637.9546.2546.2545.1909.5091.4454.6363.8272.1273.3182.191.7.191 1.1455s-.0637.8273-.2546 1.2091c-.1273.3818-.3818.6364-.7.8273s-.6364.2545-.9545.2545c-.2546 0-.4455-.0636-.6364-.1273-.1909-.1272-.3818-.2545-.5091-.3818v2.1zm.7-3.8182c0 .5728.1272.9546.3181 1.2091.2546.2546.5091.3818.8273.3818s.5728-.1272.8273-.3818c.2545-.2545.3182-.7.3182-1.2727s-.1273-.9545-.3182-1.2091c-.2545-.2545-.5091-.3818-.8273-.3818s-.5727.1273-.8273.4454c-.1909.2546-.3181.7-.3181 1.2091z"/><path d="m94.2454 24.9455.7637.0636c-.1273.4455-.3182.7636-.6364 1.0182-.3182.2545-.7636.3818-1.2091.3818-.6363 0-1.1454-.1909-1.5272-.5727-.3819-.3818-.5728-.9546-.5728-1.6546s.1909-1.2727.5728-1.7182c.3818-.3818.8909-.5727 1.4636-.5727s1.0818.1909 1.4.5727c.3818.3819.5727.9546.5727 1.6546v.1909h-3.2454c0 .4455.1909.8273.3818 1.0818.2545.2546.5727.3818.8909.3818.2545 0 .5091-.0636.7-.1909.1909-.1272.3182-.3182.4454-.6363zm-2.4181-1.2091h2.4181c-.0636-.3818-.1272-.6364-.2545-.8273-.2545-.2545-.5091-.4455-.8909-.4455-.3182 0-.6364.1273-.8273.3182-.3182.3182-.4454.6364-.4454.9546z"/><path d="m98.7 25.8364c-.2545.2545-.5091.3818-.7636.5091-.2546.0636-.5091.1272-.8273.1272-.4454 0-.8272-.1272-1.0818-.3181-.2545-.2546-.3818-.5091-.3818-.8909 0-.191.0636-.3819.1273-.5728.1272-.1909.1909-.3182.3818-.4454.1273-.1273.3182-.1909.5091-.2546.1272-.0636.3818-.0636.6363-.1272.5728-.0637 1.0182-.1273 1.3364-.2546 0-.1273 0-.1909 0-.1909 0-.3182-.0637-.5091-.1909-.6364-.1909-.1909-.4455-.2545-.8273-.2545-.3182 0-.5727.0636-.7636.1909s-.2546.3182-.3818.6364l-.7-.1273c.0636-.3182.1909-.5727.3182-.7637.1272-.1909.3818-.3181.6363-.4454.2546-.1273.6364-.1273.9545-.1273.3819 0 .7.0637.8909.1273.2546.0636.3819.1909.5091.3182.1273.1272.1909.3182.2546.5091 0 .1272.0636.3818.0636.7v.9545c0 .7 0 1.0818.0636 1.2727 0 .191.0637.3819.191.5091h-.7637c-.0636-.0636-.1272-.2545-.1909-.4454zm-.0636-1.6546c-.2546.1273-.6364.1909-1.2091.2546-.3182.0636-.5091.0636-.6363.1273-.1273.0636-.191.1272-.3182.2545-.0637.1273-.1273.1909-.1273.3182 0 .1909.0636.3818.1909.5091.1273.1272.3818.1909.6364.1909.2545 0 .509-.0637.7636-.1909.1909-.1273.3818-.3182.5091-.5091.0636-.1909.1272-.3818.1272-.7637v-.1909z"/><path d="m100.545 26.3454v-4.3273h.637v.6364c.318-.4455.763-.7 1.4-.7.254 0 .509.0636.7.1272.191.0637.382.1909.509.3818.127.1273.191.3182.254.5728 0 .1272.064.3818.064.7v2.6727h-.764v-2.6091c0-.3182 0-.5091-.063-.7-.064-.1273-.127-.2545-.318-.3818-.128-.0636-.319-.1273-.509-.1273-.319 0-.573.1273-.828.3182-.254.1909-.318.5727-.318 1.1454v2.3546h-.764z"/><path d="m111.491 20.3637h.764v3.4364c0 .5727-.064 1.0818-.191 1.4-.128.3818-.382.6363-.764.8909-.382.1909-.827.3181-1.4.3181s-1.018-.1272-1.4-.3181-.636-.4455-.764-.8273c-.127-.3818-.254-.8909-.254-1.5273v-3.3727h.763v3.4364c0 .509.064.8909.128 1.1454.127.2546.254.4455.509.5727.254.1273.509.191.891.191.572 0 1.018-.1273 1.272-.3819.255-.2545.382-.7636.382-1.5272v-3.4364z"/><path d="m113.527 26.3454v-4.3273h.637v.6364c.318-.4455.763-.7 1.4-.7.254 0 .509.0636.7.1272.191.0637.381.1909.509.3818.127.1273.191.3182.254.5728 0 .1272.064.3818.064.7v2.6727h-.764v-2.6091c0-.3182 0-.5091-.063-.7-.064-.1273-.128-.2545-.319-.3818-.127-.0636-.318-.1273-.509-.1273-.318 0-.572.1273-.827.3182-.254.1909-.318.5727-.318 1.1454v2.3546h-.764z"/><path d="m118.173 21.191v-.8273h.763v.8273zm0 5.1545v-4.3273h.763v4.3273z"/><path d="m119.764 24.1818c0-.8272.191-1.4.636-1.7818.382-.3182.827-.5091 1.336-.5091.573 0 1.082.1909 1.464.5727.382.3819.573.9546.573 1.591 0 .5727-.064 1.0181-.255 1.3363s-.382.5727-.7.7637c-.318.1909-.636.2545-1.018.2545-.636 0-1.082-.1909-1.464-.5727-.445-.3818-.572-.9546-.572-1.6546zm.7 0c0 .5728.127.9546.381 1.2728.255.2545.573.3818.891.3818.382 0 .637-.1273.891-.4455.255-.2545.382-.7.382-1.2727 0-.5091-.127-.9546-.382-1.2091-.254-.2545-.572-.3818-.891-.3818-.381 0-.7.1273-.891.3818-.254.3182-.381.7-.381 1.2727z"/><path d="m124.664 26.3454v-4.3273h.636v.6364c.318-.4455.764-.7 1.4-.7.255 0 .509.0636.7.1272.191.0637.382.1909.509.3818.127.1273.191.3182.255.5728 0 .1272.063.3818.063.7v2.6727h-.763v-2.6091c0-.3182 0-.5091-.064-.7-.064-.1273-.127-.2545-.318-.3818-.127-.0636-.318-.1273-.509-.1273-.318 0-.573.1273-.828.3182-.254.1909-.318.5727-.318 1.1454v2.3546h-.763z"/></g></g></svg>