<svg width="99" height="12" viewBox="0 0 560 68" xmlns="http://www.w3.org/2000/svg"><path d="M165.17 5.71c-2.46-2.27-7.1-5.55-15.2-5.55-9.92 0-20.84 5.82-20.84 17.65 0 12.1 7.83 16.38 15.38 19.11l6.01 2.18c6.1 2.18 12.19 4.73 12.19 12.38 0 6.55-5.01 10.19-11.38 10.19h-.64c-5.73 0-12.28-4.19-15.65-11.65l-2.46-5.46h-4.19v22.57h3.91l3.46-5.55c2.91 3.37 8.55 6.28 15.92 6.28 12.38 0 22.66-7.28 22.66-19.29 0-12.01-7.19-16.2-16.65-19.66l-6.01-2.18c-6.1-2.18-12.01-4-12.01-11.47 0-6.37 5.01-8.92 10.28-8.92h.73c6.64 0 12.01 4.64 15.2 11.65l2.46 5.46h3.55V.89h-3.55l-3.17 4.82zm203.02 61.42V62.4c-4-.36-5.28-1.27-5.28-6.01V.89h-17.02v4.82c5.01.36 5.73 2.64 5.73 7.55v9.65h-.18c-1.64-2.27-5.46-5.28-11.83-5.28-11.47 0-22.02 7.64-22.02 24.93 0 19.84 9.74 25.3 20.75 25.3 6.55 0 11.28-3.82 13.47-7.28h.18v6.55h16.2zm191.1 0V62.4c-4-.36-5.28-1.27-5.28-6.01V.89h-17.02v4.82c5.01.36 5.73 2.64 5.73 7.55v9.65h-.18c-1.64-2.27-5.46-5.28-11.83-5.28-11.47 0-22.02 7.64-22.02 24.93 0 19.84 9.74 25.3 20.75 25.3 6.55 0 11.28-3.82 13.47-7.28h.18v6.55h16.2zM60.43 32.55C60.43 9.25 43.96.88 27.49.88H.64v5.1c5.01.36 7.19 1.46 7.19 9.1v37.13c0 7.64-2.18 9.83-7.19 10.19v4.73h26.85c16.1 0 32.94-10.55 32.94-34.58zm146.69-7.46v-6.37h-11.47V6.07h-5.64c-1.09 6.55-5.46 12.65-12.38 13.92v5.1h6.73v30.39c0 9.1 4.73 12.47 11.28 12.47 4.55 0 8.01-.82 11.01-2v-5.91c-1.55.55-3.64.91-5.55.91-3.28 0-5.46-1.27-5.46-5.73V25.09h11.48zm-159.8 11.1c0 16.38-9.92 25.3-20.93 25.3h-6.55V6.53h6.55c10.65 0 20.93 7.46 20.93 24.57v5.09zm419.69 25.85c-4.28.36-6.1-1.09-6.1-5.46v-22.2c0-11.28-5.82-16.74-18.56-16.74-9.1 0-19.02 6.64-19.02 13.83 0 4.1 2.37 6.55 6.01 6.55 3.09 0 5.64-2.27 5.64-5.19 0-2.73-1.82-4.64-4.1-5.1v-.46c1.73-1.46 4.91-2.73 8.74-2.73 7.1 0 10.01 4 10.01 10.56v3c-14.92 3.18-27.76 5.92-27.76 17.56 0 8.46 6.1 12.19 14.29 12.19 8.28 0 12.01-4.46 14.01-7.46.55 4.55 3 7.46 8.83 7.46 2.91 0 5.82-.64 8.01-1.27v-4.54zm-49.14 0c-4.28.36-6.1-1.09-6.1-5.46v-22.2c0-11.28-5.82-16.74-18.56-16.74-9.1 0-19.02 6.64-19.02 13.83 0 4.1 2.37 6.55 6.01 6.55 3.09 0 5.64-2.27 5.64-5.19 0-2.73-1.82-4.64-4.1-5.1v-.46c1.73-1.46 4.91-2.73 8.74-2.73 7.1 0 10.01 4 10.01 10.56v3c-14.92 3.18-27.76 5.92-27.76 17.56 0 8.46 6.1 12.19 14.29 12.19 8.28 0 12.01-4.46 14.01-7.46.55 4.55 3 7.46 8.83 7.46 2.91 0 5.82-.64 8.01-1.27v-4.54zM105.38 42.65v-2.27c0-14.74-7.46-22.75-19.38-22.75-11.28 0-21.11 8.46-21.11 25.12 0 17.47 9.01 25.12 21.11 25.12 10.1 0 18.2-8.01 18.2-19.75v-.18h-6.64v1.18c0 7.73-4.55 11.28-10.56 11.28-5.64 0-10.1-4-10.1-14.83v-2.91h28.48v-.01zm150.15 19.39c-4.28.36-6.1-1.09-6.1-5.46v-22.2c0-11.28-5.82-16.74-18.56-16.74-9.1 0-19.02 6.64-19.02 13.83 0 4.1 2.37 6.55 6.01 6.55 3.09 0 5.64-2.27 5.64-5.19 0-2.73-1.82-4.64-4.09-5.1v-.46c1.73-1.46 4.91-2.73 8.74-2.73 7.1 0 10.01 4 10.01 10.56v3c-14.92 3.18-27.75 5.92-27.75 17.56 0 8.46 6.1 12.19 14.29 12.19 8.28 0 12.01-4.46 14.01-7.46.55 4.55 3 7.46 8.83 7.46 2.91 0 5.82-.64 8.01-1.27v-4.54h-.02zm57.15 5.09V62.4c-4-.36-5.19-1.82-5.19-6.55V34.56c0-12.38-7.55-16.93-16.56-16.93-7.73 0-12.29 4.37-14.38 8.19h-.36v-7.46h-16.2v5.1c4.55.36 5.28 2.18 5.28 6.55v25.84c0 4.73-1.27 6.19-5.28 6.55v4.73h21.75V62.4c-4-.36-5.19-1.82-5.19-6.55V36.56c0-7.46 4.73-10.74 9.83-10.74 5.46 0 9.83 2.91 9.83 11.28v18.75c0 4.73-1.27 6.19-5.28 6.55v4.73h21.75zm194.74-40.4c0-5.28-4.28-8.37-9.1-8.37-3.82 0-8.37 1.82-10.74 7.28v-7.28h-16.2v4.82c4.55.36 5.28 2.18 5.28 6.55v26.12c0 4.73-1.27 6.19-5.28 6.55v4.73h22.57V62.4c-4-.36-6.01-1.82-6.01-6.55V34.01c0-7.64 5.64-10.92 9.01-10.19v.73c-1.09.73-2.18 2.18-2.18 4.37 0 3.64 2.55 5.82 6.1 5.82 3.73 0 6.55-2.73 6.55-8.01zM94.37 36.92H76.9v-1.09C76.9 29 80.45 24 86 24c5.37 0 8.37 4.91 8.37 11.83v1.09zm257.26 8.01c0 10.74-4.91 15.65-11.1 15.65-7.28 0-10.92-6.19-10.92-15.29v-4.91c0-9.46 4-15.47 11.37-15.47 6.46 0 10.65 4.73 10.65 14.74v5.28zm191.1 0c0 10.74-4.91 15.65-11.1 15.65-7.28 0-10.92-6.19-10.92-15.29v-4.91c0-9.46 4-15.47 11.38-15.47 6.46 0 10.65 4.73 10.65 14.74v5.28h-.01zm-93.1 7.55c0 4.37-4.1 8.28-9.65 8.28-4.37 0-6.83-2.55-6.83-6.73 0-6.46 5.1-8.19 16.47-11.01v9.46h.01zm-49.14 0c0 4.37-4.1 8.28-9.65 8.28-4.37 0-6.83-2.55-6.83-6.73 0-6.46 5.1-8.19 16.47-11.01v9.46h.01zm-162.34 0c0 4.37-4.1 8.28-9.65 8.28-4.37 0-6.82-2.55-6.82-6.73 0-6.46 5.1-8.19 16.47-11.01v9.46z" fill="#ffeded"/></svg>
