<svg fill="none" height="17" viewBox="0 0 65 17" width="65" xmlns="http://www.w3.org/2000/svg"><path d="m13.479.798329h-4.68727v5.650821h-3.61555v-5.650821h-4.687227v15.318071h4.687227v-5.9591h3.61555v5.9591h4.68727zm15.0328 0h-3.685v9.382071c0 .7169.0693 1.5187-.532 2.0352-.4008.3546-1.0715.5088-1.6112.5088-.6013 0-1.3183-.2004-1.6729-.6938-.3161-.4703-.2928-1.1641-.2928-1.6729v-9.559371h-4.7798v10.098971c0 1.8271.3161 3.2841 1.9428 4.3557 1.1795.7786 3.0142 1.0947 4.425 1.0947 1.6035 0 3.2147-.2698 4.533-1.2951 1.4724-1.1872 1.6729-2.6134 1.6729-4.402zm19.535 0h-6.1828l-2.0968 8.125461h-.0463l-2.1894-8.125461h-6.1442v15.318071h3.5308v-10.94697h.0463l2.8755 10.93927h2.9911l2.7907-10.93927h.0462v10.93927h4.3789zm9.6287-.223565c-4.664 0-7.3237 3.353486-7.3237 7.932726 0 4.35571 2.6751 7.84021 7.3237 7.84021s7.3237-3.4845 7.3237-7.84021c0-4.58695-2.6596-7.932726-7.3237-7.932726zm0 3.461416c2.0738 0 2.2973 2.99116 2.2973 4.48673 0 1.47245-.1541 4.30939-2.2973 4.30939-2.1431 0-2.2973-2.83694-2.2973-4.30939-.0077-1.49557.2158-4.48673 2.2973-4.48673z" fill="#ffeded"/></svg>