<svg fill="none" height="43" viewBox="0 0 66 43" width="66" xmlns="http://www.w3.org/2000/svg"><path d="m59.4377 21.4568c0-10.4844-12.0571-18.98766-26.9281-18.98766s-26.92045 8.50326-26.92045 18.98766c0 10.4845 12.05715 18.9877 26.92045 18.9877 14.871 0 26.9281-8.5032 26.9281-18.9877zm-26.9281 21.2388c-17.9547 0-32.5096-9.5054-32.5096-21.2388 0-11.73332 14.5549-21.238733 32.5096-21.238733 17.9546 0 32.5095 9.513123 32.5095 21.238733-.0077 11.7334-14.5626 21.2388-32.5095 21.2388zm-1.8271-10.0605h3.0991c.6553 0 5.2654-.6167 5.2654-5.0341 0-4.4173-4.7489-5.1728-5.5969-5.1728h-4.0859c-.3777 0-.794.1388-.794.9791v7.817c0 1.2566 1.1718 1.4108 2.1123 1.4108zm-2.0429-20.7376v6.5605c0 .7246.3469.7632.6475.7632h3.2996c.6861 0 4.5175-.6476 4.5175-4.4328 0-3.7929-3.7158-4.3248-4.2477-4.3248h-2.4978c-.7709-.0078-1.7191.3546-1.7191 1.4339zm3.4922-4.93391c8.3799 0 13.653 3.94711 13.653 7.88651 0 3.261-2.1971 4.9338-2.8062 5.2345-1.3028.6553-.2235.7632.2313.9097.4548.1542 4.479 2.12 4.479 5.99 0 5.2731-6.1133 9.2587-15.48 9.2587-6.6376 0-11.7488-3.1839-13.5065-4.3248-.8711-.5705-.7169-.8326-.4548-1.0947.2621-.2698.9868-1.1333 1.3568-1.5958.3855-.4549.5397-.2236.8018-.1157.2698.1157.8711.2621.8711-.5319v-14.1849c0-.7632-.3006-.8017-.6399-.5704-.3469.2235-.7632.794-1.2951.2235-.5242-.5705-.7632-.794-1.1409-1.2874-.3778-.4934-.3393-.7709.2235-1.2104 1.7963-1.3953 6.4603-4.58691 13.7069-4.58691z" fill="#ffeded"/></svg>