<svg fill="none" height="54" viewBox="0 0 57 54" width="57" xmlns="http://www.w3.org/2000/svg"><path d="m18.1883 21.1945c.3701-.2621.4625-.5936.262-.8866l-.0077-.0077c-.2236-.3237-.5704-.316-.9328-.0616l-.7323.5088.6785.9636zm3.8315-1.9427.8942-.6322-1.2334-.8171zm5.0341-4.1398-.0077-.0155c-.4472-.6321-1.1488-.7092-1.8118-.2389l-.447.316 1.4184 2.0353.4549-.3161c.663-.4626.848-1.1333.3932-1.7808zm5.7741-2.4438c.6014-.4163.6629-1.195.262-1.7654l-.0075-.0077c-.4086-.5859-1.1641-.7941-1.7731-.3624-.6091.424-.6708 1.2026-.2699 1.7731l.0077.0077c.4009.5705 1.1718.7787 1.7808.3547zm1.8425 29.7728h-10.0912v-20.8302l10.0912-7.0693zm-1.1564-28.7706c-1.2258.8634-2.783.5858-3.5847-.5628l-.0077-.0154c-.8018-1.141-.5243-2.7214.7014-3.5848 1.2258-.86343 2.7832-.5859 3.5849.5628l.0077.0077c.8018 1.1641.5241 2.7367-.7016 3.5925zm-2.5132 1.642-1.1101.7709-2.7906-3.9856 1.1023-.7709zm-2.8369-1.0176.0077.0154c.8094 1.1487.5704 2.5903-.8635 3.5925l-1.5264 1.0639-1.1564.8094-.7864-.5165-1.5418 1.0793.2159.9174-1.0407.7323-1.2644.8943-1.6496-.6476-.4858.347.8481 1.2026-1.1024.7709-2.7908-3.9856 1.881-1.3183c.609-.424 1.141-.5628 1.5958-.478.3932.0694.7247.2853 1.0023.6784l.0077.0077c.4317.6168.3855 1.2489.0386 1.804l1.7806.6707-1.0946-5.0649 1.0717-.7401 4.4405 2.783-2.7522-3.9317 1.5418-1.0793c1.4185-1.0022 2.8215-.7555 3.6233.3932zm28.5239 3.4768c0-12.35006-12.6045-17.160583-28.1462-17.160583s-28.146192 4.810523-28.146192 17.160583c0 12.3501 12.604492 36.1637 28.146192 36.1637 15.5417.0078 28.1462-23.8136 28.1462-36.1637z" fill="#ffeded"/></svg>