<svg fill="none" height="37" viewBox="0 0 87 37" width="87" xmlns="http://www.w3.org/2000/svg"><path d="m34.6403 9.42022-2.783 8.08688h-1.6575l-2.7907-8.08688h1.4956l2.1123 6.14418 2.1123-6.14418zm2.1971-.78634-1.2335.12335v8.62657h1.4108v-8.74992zm4.8105 6.59132c0 .5011-.2005.7787-.4626.9328-.2544.1542-.5473.1928-.7246.1928-.5165 0-.8866-.2853-.8866-.7941 0-.37.1927-.5473.5474-.6321.3469-.0848.8635-.0771 1.5187-.0771v.3777zm2.3282 1.0947c-.2699-.0539-.5011-.1387-.663-.2852-.1696-.1465-.2698-.3546-.2698-.6553v-2.3359c0-.7632-.2699-1.2797-.7016-1.6035-.4394-.3238-1.0176-.4625-1.6343-.4625-.7941 0-1.6344.2158-2.2896.5319l.3315 1.2335c.2467-.1234.5396-.2236.8248-.3007.293-.0771.5859-.1233.8558-.1233.3392 0 .6398.0694.8634.2544.2235.185.3623.4856.3623.9174v.316c-.5551-.0462-.9482-.0462-1.2874-.0462-.8403 0-1.3876.1619-1.7268.4625-.3392.293-.4703.7401-.4703 1.2875 0 .555.131.9713.3392 1.2643.2158.2929.5011.4779.8018.5859.3083.1079.6321.1464.9173.1464.4086 0 .7015-.0693.9714-.1927.2621-.1156.478-.2775.7247-.4625.239.2621.4702.424.7092.5165.2389.1002.4625.1387.7015.1387zm3.8468-1.0947c0 .5011-.2004.7787-.4548.9328-.2544.1542-.5473.1928-.7246.1928-.5165 0-.8866-.2853-.8866-.7941 0-.37.1927-.5473.5473-.6321.3469-.0848.8634-.0771 1.5187-.0771zm2.3282 1.0947c-.2698-.0539-.5011-.1387-.663-.2852-.1696-.1465-.2621-.3546-.2621-.6553v-2.3359c0-.7632-.2698-1.2797-.7015-1.6035-.4394-.3238-1.0176-.4625-1.6344-.4625-.794 0-1.6343.2158-2.2896.5319l.3315 1.2335c.2467-.1234.5397-.2236.8249-.3007.293-.0771.5859-.1233.8557-.1233.3392 0 .6399.0694.8634.2544.2236.185.3624.4856.3624.9174v.316c-.5551-.0462-.9482-.0462-1.2874-.0462-.8403 0-1.3877.1619-1.7269.4625-.3392.293-.4703.7401-.4703 1.2875 0 .555.1311.9713.347 1.2643.2081.2929.4933.4779.8017.5859.3083.1079.6322.1464.9174.1464.4086 0 .7015-.0693.9714-.1927.2621-.1156.4779-.2775.7246-.4625.239.2621.4703.424.7093.5165.2389.1002.4625.1387.7015.1387zm.8404 1.0639h1.4107v-4.6486c.3855-.239.8789-.3855 1.3646-.3855.37 0 .7323.0848.9867.2852.2621.2082.4317.532.4317.9945v3.7467h1.4108v-4.163c0-.7786-.2699-1.3414-.6862-1.7037s-.9867-.5242-1.588-.5242c-.7015 0-1.4185.2235-2.0044.609l-.1388-.4934h-1.1948v6.283zm10.9701-1.6266c-.3777.2389-.8557.3854-1.2875.3854-.5011 0-.8711-.239-1.1255-.5936s-.3854-.8249-.3854-1.3028c0-.6553.185-1.1333.4934-1.4648.316-.3238.7708-.4857 1.3028-.4857.2852 0 .6476.0463 1.0022.1311zm1.4185-7.12332h-.2159l-1.1949.12335v2.29737c-.3315-.0463-.6399-.0617-.9251-.0617-.9637 0-1.7963.2852-2.3899.8634-.5936.5859-.9482 1.4648-.9482 2.652 0 .7709.2159 1.5264.6553 2.0814.4394.5551 1.1101.9174 2.0121.9174.6938 0 1.2026-.2312 1.6883-.5936l.2544.4703h1.0716v-8.74992zm2.6596 5.01872c.0771-.4549.2776-.7787.5243-.9945.2389-.2082.5396-.3084.8325-.3084.2698 0 .5474.0925.7709.3007.2159.2158.3701.5473.4086 1.0022zm3.4538 2.0891c-.4857.2622-1.0485.4086-1.5804.4086-.4086 0-.8095-.0925-1.141-.3083-.3392-.2159-.6013-.5628-.7093-1.0716h3.8084v-.9405c0-.8712-.2082-1.4879-.5165-1.9042-.3007-.4163-.7093-.6553-1.0716-.7863-.3701-.1234-.7246-.1465-.9251-.1465-.7092 0-1.4108.2852-1.9427.8326-.5319.555-.8789 1.3645-.8789 2.4207 0 1.087.3778 1.9118.9714 2.4438.5936.5396 1.3953.8094 2.2665.8094.2698 0 .5782-.0308.8865-.0925.3084-.0617.6091-.1465.8943-.2852v-1.3723zm5.5891-4.5021c-.1619-.0925-.3855-.1542-.6167-.1927-.2313-.0463-.4626-.054-.6399-.054-.6244 0-1.1641.2698-1.5958.6321l-.1465-.5165h-1.1949v6.2753h1.4184v-4.5715c.3778-.293.8018-.4626 1.2644-.4626.3546 0 .7092.0925 1.0638.3161zm1.4493 2.413c.0771-.4549.2775-.7787.5242-.9945.239-.2082.5396-.3084.8326-.3084.2698 0 .5473.0925.7709.3007.2159.2158.3701.5473.4086 1.0022zm3.4537 2.0891c-.4856.2622-1.0484.4086-1.5804.4086-.4086 0-.8094-.0925-1.1409-.3083-.3392-.2159-.6014-.5628-.7093-1.0716h3.8084v-.9405c0-.8712-.2082-1.4879-.5166-1.9042-.3006-.4163-.7092-.6553-1.0715-.7863-.3701-.1234-.7247-.1465-.9251-.1465-.7093 0-1.4108.2852-1.9427.8326-.532.555-.8789 1.3645-.8789 2.4207 0 1.087.3778 1.9118.9714 2.4438.5936.5396 1.3953.8094 2.2664.8094.2698 0 .5782-.0308.8866-.0925s.609-.1465.8943-.2852v-1.3723zm1.4031 1.6421h1.4107v-4.6486c.3855-.239.8789-.3855 1.3646-.3855.37 0 .7323.0848.9868.2852.2621.2082.4317.532.4317.9945v3.7467h1.4108v-4.163c0-.7786-.2699-1.3414-.6862-1.7037s-.9867-.5242-1.588-.5242c-.7015 0-1.4186.2235-2.0045.609l-.1387-.4934h-1.1949v6.283zm-49.4467 5.5198-1.033 2.9988-1.0252-2.9988h-.5475l1.2182 3.5616h.7091l1.2259-3.5616zm1.4725 1.4339c.0463-.293.1465-.5474.3161-.7247.1619-.1773.3778-.2852.6553-.2852s.4548.1156.555.3006c.108.185.1466.4394.1466.7093zm2.1971 0c0-.2236-.0154-.4703-.0693-.6939-.0617-.2235-.162-.424-.3393-.5704-.185-.1465-.4393-.239-.8017-.239-.5319 0-.9174.1927-1.1641.5165-.2544.3238-.37.7786-.37 1.2874 0 .6553.1927 1.1256.4933 1.4416.3007.3084.717.4549 1.1564.4549.3315 0 .6553-.0694 1.0254-.2544v-.4934h-.0078c-.3237.1619-.6398.2544-.9636.2544-.3084 0-.5859-.1002-.7941-.3007-.2081-.2004-.3546-.5088-.3777-.9174h2.2202v-.4856zm.9482 2.1277h.532v-2.6674c.185-.2775.424-.4779.7401-.4779.1464 0 .3546.0462.4934.1156l.185-.478c-.0771-.0385-.185-.0771-.293-.0925-.1079-.0231-.2158-.0308-.3006-.0308-.3315 0-.6091.1696-.8789.4779l-.1233-.4085h-.3547zm3.1454-2.7522c.1851-.2621.4857-.3854.848-.3854.3778 0 .6476.1464.8249.3777s.2544.5551.2544.9097c0 .4471-.1311.8095-.3392 1.0484-.2159.2467-.5243.3778-.8789.3778-.2313 0-.4625-.0154-.6938-.1079v-2.2203zm-.5319 2.5672c.3314.1387.7478.2544 1.1872.2544.6167 0 1.0639-.2159 1.3568-.5628.293-.3392.4394-.8095.4394-1.3105 0-.5166-.1541-.9714-.4162-1.3029-.2699-.3238-.6554-.5242-1.1179-.5242-.3701 0-.663.1156-.9174.3083v-1.6497h-.0308l-.5011.0694zm4.0859-1.9427c.0462-.293.1464-.5474.316-.7247.1619-.1773.3778-.2852.6553-.2852s.4548.1156.5551.3006c.1079.185.1464.4394.1464.7093zm2.197 0c0-.2236-.0153-.4703-.0693-.6939-.0617-.2235-.162-.424-.3393-.5704-.185-.1465-.4393-.239-.8017-.239-.5319 0-.9174.1927-1.164.5165-.2544.3238-.3702.7786-.3702 1.2874 0 .6553.1928 1.1256.4934 1.4416.3007.3084.717.4549 1.1564.4549.3315 0 .6554-.0694 1.0254-.2544v-.4934h-.0077c-.3238.1619-.6399.2544-.9637.2544-.3083 0-.5859-.1002-.794-.3007-.2082-.2004-.3547-.5088-.3778-.9174h2.2203v-.4856zm1.0485 0c.0462-.293.1465-.5474.3161-.7247.1619-.1773.3777-.2852.6552-.2852.2776 0 .4549.1156.5551.3006.1079.185.1465.4394.1465.7093zm2.1971 0c0-.2236-.0154-.4703-.0694-.6939-.0617-.2235-.1618-.424-.3391-.5704-.1851-.1465-.4395-.239-.8018-.239-.532 0-.9174.1927-1.1641.5165-.2544.3238-.37.7786-.37 1.2874 0 .6553.1927 1.1256.4934 1.4416.3006.3084.7169.4549 1.1563.4549.3315 0 .6553-.0694 1.0253-.2544v-.4934h-.0077c-.3238.1619-.6399.2544-.9636.2544-.3084 0-.586-.1002-.7941-.3007-.2082-.2004-.3546-.5088-.3778-.9174h2.2203v-.4856zm1.2643-2.837-.4934.0694v4.903h.5243v-4.9724zm3.3073 4.1475c-.1851.2621-.4857.3855-.8403.3855-.3778 0-.6476-.1696-.825-.4163-.1773-.2544-.2543-.5859-.2543-.9405 0-.4472.131-.7864.3469-1.0176.2158-.2236.5165-.3392.8788-.3392.2236 0 .4549.0462.6939.1387zm.5318-4.1475h-.0307l-.5011.0694v1.3414c-.2082-.0463-.424-.0694-.6553-.0694-.6167 0-1.0562.1927-1.3568.5165-.293.3238-.4395.7709-.4395 1.2797 0 .5165.1542.9945.4163 1.3337.2698.3469.6553.5628 1.1178.5628.4086 0 .7324-.1465 1.0022-.3778l.108.3161h.3391zm1.2027 4.9647h.5319v-3.5616h-.5319zm-.1002-4.533c0 .1002.0386.185.1079.2544.0617.0694.1542.1079.2544.1079s.1927-.0385.2621-.1079c.0694-.0617.1079-.1542.1079-.2544s-.0385-.1927-.1079-.2621c-.0694-.0617-.1619-.1079-.2621-.1079s-.1927.0462-.2544.1079c-.0693.0694-.1079.1619-.1079.2621zm1.8348 4.533h.5319v-2.7984c.1387-.0848.2853-.1696.4472-.2313.1619-.0694.3315-.1156.4934-.1156.2158 0 .4085.0539.555.1927.1388.1387.2235.3623.2235.7015v2.2434h.532v-2.2819c0-.5011-.1465-.8403-.3778-1.0562-.2312-.2158-.5473-.3006-.8865-.3006-.1696 0-.3623.0539-.5551.131-.185.0771-.37.1773-.5165.2698l-.1002-.3315h-.3546v3.5771zm4.9339-3.1531c.2621 0 .4624.0926.6012.239.1311.1465.2005.3315.2005.5165 0 .1774-.0617.3547-.2005.5011-.131.1388-.3314.239-.6012.239-.2699 0-.4703-.0925-.6091-.239-.1388-.1387-.2081-.3237-.2081-.5011 0-.1773.0693-.3623.2081-.5088.1388-.1464.347-.2467.6091-.2467zm-.162 2.8679c.3778 0 .717.0077.9637.0848.2467.0848.4008.2235.4008.4933 0 .2159-.1233.4318-.3391.6014-.2159.1696-.5243.2852-.8866.2852-.3161 0-.5319-.0771-.6707-.2004-.1387-.1234-.2004-.3084-.2004-.5166 0-.2466.1234-.5242.3161-.74h.4162zm-.2004-.4626c-.2853 0-.4394-.1388-.4394-.3238 0-.0925.0385-.1927.1156-.2929.1928.0925.4086.1542.6553.1542.3855 0 .7247-.1465.9559-.3778.2313-.2313.3701-.5396.3701-.8788 0-.2467-.0694-.4703-.2082-.663.2313-.1465.478-.2236.6707-.2544l-.1619-.4472c-.1156 0-.2698.0309-.424.0925-.1619.0617-.3315.1542-.478.2699-.1927-.108-.4239-.1619-.6937-.1619-.3855 0-.7171.131-.9483.3392-.239.2081-.3701.5088-.3701.848 0 .1465.0232.3084.0772.4625.0463.1465.1233.2853.2158.3855-.1696.2081-.2544.4317-.2544.6167 0 .1003.0308.2159.0771.3238.0462.1079.1234.2005.2159.2544-.2698.2775-.4241.6168-.4241.902 0 .3161.1234.6013.3547.8017.2313.2082.5551.3315.9637.3315.4394 0 .9019-.1464 1.2488-.4008.347-.2467.5859-.5936.5859-.9791 0-.2621-.1156-.5165-.3469-.7015-.239-.1851-.6014-.3007-1.087-.3007zm9.0814-2.8138-.9405 2.9757-.8789-2.9757h-.4856l-.8789 2.9757-.9405-2.9757h-.5165l1.1256 3.5616h.6629l.7941-2.7136.794 2.7136h.6552l1.1256-3.5616zm1.4416 1.4339c.0463-.293.1465-.5474.3161-.7247.1619-.1773.3777-.2852.6553-.2852.2775 0 .4548.1156.555.3006.1079.185.1465.4394.1465.7093zm2.1894 0c0-.2236-.0154-.4703-.0694-.6939-.0617-.2235-.1618-.424-.3391-.5704-.1851-.1465-.4395-.239-.8018-.239-.532 0-.9174.1927-1.1641.5165-.2544.3238-.37.7786-.37 1.2874 0 .6553.1927 1.1256.4934 1.4416.3006.3084.7169.4549 1.1563.4549.3315 0 .6553-.0694 1.0253-.2544v-.4934h-.0077c-.3238.1619-.6399.2544-.9636.2544-.3084 0-.5859-.1002-.794-.3007-.2082-.2004-.3547-.5088-.3778-.9174h2.2202v-.4856zm.956 2.1277h.5319v-2.6674c.185-.2775.424-.4779.74-.4779.1465 0 .3547.0462.4934.1156l.1851-.478c-.0771-.0385-.1851-.0771-.293-.0925-.1079-.0231-.2159-.0308-.3007-.0308-.3315 0-.6089.1696-.8787.4779l-.1234-.4085h-.3546zm5.3039-.4009c-.185-.0539-.4086-.2081-.6245-.3931-.2158-.1851-.4317-.4086-.6013-.6091-.1619-.1927-.2775-.3546-.293-.4394l1.4494-1.7191h-.6784l-1.4108 1.6883v-3.0914h-.0386l-.501.0925v4.8722h.5319v-1.8117c.0077.0232.0308.0617.0693.1311.0386.0617.0926.1388.1543.2313.1233.185.3083.4086.501.6321.1927.2236.4086.4394.6245.6013.2081.1696.4163.2776.5936.2853zm.239-2.6674h.3931v1.75c0 .5011.1234.848.3238 1.0639.2005.2236.4702.3161.7863.3161.2775 0 .5782-.0771.8789-.2159l-.1465-.4857c-.2312.1311-.4625.2159-.6707.2159-.185 0-.3391-.0617-.4548-.2082-.1156-.1464-.1851-.3623-.1851-.6861v-1.75h.9868v-.4933h-.9868v-.7324h-.0385l-.5011.0925v.6399h-.3932v.4933zm-51.1967 12.9746-12.3269-36.248541-.1773.061674 12.3269 36.248567zm-12.4271-18.1705c-.8866-.6784-1.3028.0077-1.8656-.0386-.4703-.0385-.9174-.8017-1.2798-.6167-.7015.3546.2776 1.6112.7016 1.8733.3778.2236.8557.4317.9714.4857.5627.2621.7863.6553.8557 1.2797.0154.1465-.0001.4703-.0309.6167-.2544 1.087-2.1663 2.0738-3.261 1.326-.5165-.3546-.9867-.8094-1.1486-1.6189-.293-1.4339-1.326-2.4824-1.6575-3.8854-.20044-.848-.35462-1.75-.57048-2.598-.22356-.8866-.4548-1.7577-.63982-2.5672-.16961-.7478-.52424-1.8656-.77864-2.54399-1.04845-2.72905-1.51878-2.52861-1.51878-2.52861s.37778.7555 1.76543 7.4471c.05397.2698.56274 3.2224.92507 4.1937.13105.347.36235 1.087.50883 1.4185.43939.956 1.60359 2.413 1.68059 3.7236.0463.7555.1311 1.3876.1465 1.9581.0077.1696.0848.848.1927 1.1564.2852.8017 2.5749 3.3766 5.011 3.3766v-1.9504c-2.4207 0-4.6949-1.3568-4.7565-1.4956-.0309-.0617.1233-.9868.2929-1.3954.3161-.794.9174-1.5264 1.9658-1.6035 1.1718-.0848 1.881.2544 2.4978.2544zm-10.49994-7.0848c-.09251 1.4648-2.35127 3.4615-3.06051 4.7489-.34692.6321-.77094 1.7114-.88658 2.3436-.30065 1.7422.08483 2.8292.50884 3.8546.74778 1.7962-.10022 2.4592.48568 2.0891.72466-.5936.61672-1.9658.56275-2.8292-.03854-.7016-.08478-1.4956.01543-2.3282.20044-1.5572 1.14869-3.2301 1.95045-4.3942.95593-1.4031.60126-2.8447.42394-3.4846zm.45491 4.1553s.23898 1.1564-.77863 4.1398c-2.67508 7.794 2.43603 8.5341 3.88536 10.3688 0 0 .5628-.794-1.75762-3.338-.84801-.9251-1.61129-2.9758-.94059-5.8975.96364-4.2324-.40852-5.2731-.40852-5.2731zm-5.05726-5.1112c.42401-.86343 1.03302-1.51871 1.91958-2.08148 1.75769-1.10241.9868-3.0297.9868-3.0297-.09251.51651-.84028 1.02532-.84028 1.02532-.41629.26982-2.08156 1.01761-2.2049 2.84468-.01542.37004.01546.77863.1388 1.24118zm4.19375-1.77311c-.26982-.54735-.7632-.52422-.7632-.52422s.70928.58589-2.75214 3.47683c-3.469123 2.8909-.45481 4.5638-.45481 4.5638s-.87884-1.6651 1.93501-3.9933c2.82155-2.32819 2.13536-3.33809 2.03514-3.52311zm5.18834 1.58038c-.3315 1.11013 1.8964 1.48013 1.7037.13103-.3855-.0154-1.1101.5551-1.1332 0 0-.33918.447-.14645.6012-.26208.0694-.06168.1311-.30837.0309-.3315-.1465-.05396-.3547-.07709-.5088-.03084-.2159.06939-.347.26982-.478.40088-.1156.06938-.1772-.02313-.2158.09251zm-1.51877-.68612c4.61007-1.04073 4.44827 2.39755 4.13217 3.29185-.3854.1079-.6861-.5628-.3006-.7632-.1928-.5011-1.0794-.3701-1.9043-.6091-1.1332-.3392-1.4416-1.85787-1.92727-1.91955z" fill="#ffeded"/></svg>