<svg fill="none" height="27" viewBox="0 0 89 27" width="89" xmlns="http://www.w3.org/2000/svg"><path d="m68.8673 11.1479v7.8865l3.7081 1.9582h5.3117l-5.435-2.8679v-.6938h5.5043v-5.0032l-2.4361-1.2875h-6.653zm5.5044 4.0397h-1.9196v-1.7886h1.9196zm-10.7003-7.90966h3.5924v13.70686h-3.5924zm24.7926 12.58906c0-.1927-.1542-.3006-.3392-.3006h-.3469v.9482h.1696v-.3469h.185l.1619.3469h.1851l-.1773-.3778c.1079-.0462.1618-.1464.1618-.2698zm-.3392.1465h-.185v-.293h.185c.0925 0 .1619.0463.1619.1465.0077.1002-.0617.1465-.1619.1465zm-.0385-.8634c-.5165 0-.8943.4008-.8943.9174 0 .5088.3855.9096.8943.9096.5165 0 .8943-.4085.8943-.9174 0-.5088-.3778-.9096-.8943-.9096zm0 1.6651c-.4394 0-.7324-.316-.7324-.7555 0-.4317.293-.7555.7324-.7555s.7324.3161.7324.7555c0 .4395-.293.7555-.7324.7555zm-29.6109-13.52955h3.5847v2.25878h-3.5847zm26.9204 8.03295v-1.9119h-2.2357v7.5704h-3.5847v-9.8292h3.5847v1.2258l2.3282-1.2258h3.4999v2.2742zm-55.6988-8.02524h4.3711v13.80714l-3.6387 1.9196h-7.1002l4.2555-2.2588h2.891v-11.21687h-5.0573zm-13.545 12.08794c-.054.0077-.1079.0155-.1696 0 .0694.532-.2852.6553-.2852.6553-.5782.3238-.8635.6784-1.087.9791-.1311.1696-.239.3238-.3778.4394-.3854.3238-.316.478-.3006.6784v.0386.0385c-.0077.1233-.054.2236-.1696.3392l-.0077.0077-.0077.0077c-.0386.0386-.0848.0771-.1388.1234-.0694.0539-.1234.1619-.1619.2929-.1311.4009-.1696 1.033-.1696 1.033-.0077.0155-.0309.0232-.0463.0309-.0462.0385-.0925.0771-.1619.1002-.0539.0231-.1156.0463-.185.0617-.0925.0154-.2004.0231-.3083.0308-.185.0154-.3855.0231-.6168.0231-.0154 0-.0231 0-.0385 0-.0309 0-.0617 0-.0925 0-.3161-.0154-.6707-.0848-.6707-.0848-.2082-.0308-.3932-.2004-.3932-.2004 0-.3855.239-.7247.3932-.9251l.0231-.0231c-.0077.0077-.0154.0154-.0231.0231-.1542.1927-.3932.5396-.3932.9174 0 0 .1927.1696.3932.2004 0-.0771.0154-.1619.0462-.2467.0077-.0231.0155-.0385.0232-.0616.0231-.0694.0539-.1465.0848-.2236.0154-.0308.0231-.054.0385-.0848.0309-.0694.0617-.1311.1002-.2004.0154-.0309.0308-.054.0463-.0771.0154-.0309.0308-.0617.0462-.0848.0155-.0309.0386-.054.054-.0848.0077-.0077.0154-.0232.0154-.0309.0309-.0462.054-.0771.0771-.1079.0077-.0154.0231-.0385.0308-.0463l.0078-.0077c.0077-.0077.0154-.0154.0154-.0308.1079-.1388.2004-.2775.4702-.6707.0309-.0385.0694-.1002.1003-.1465.0462-.0694.0848-.131.1387-.2081.4934-.7247.1388-1.804.1388-1.804.0308-.0154.0539-.0308.0848-.0462.1079-.054.2158-.1002.3084-.1542.0925-.054.1695-.1079.2466-.1619.2313-.1542.4163-.3161.5474-.4471.0077-.0077.0231-.0232.0385-.0386l.0154-.0154c.0463-.054.0849-.1002.108-.1388 0-.0077 0-.0077.0077-.0154s.0077-.0231.0154-.0308c.0308-.0771.0154-.1234 0-.1465-.0077-.0154-.0154-.0231-.0154-.0231-.0385.0385-.0848.0694-.1233.1002-.0155.0077-.0232.0231-.0386.0308-.0308.0232-.0617.0463-.0925.0694-.0077.0077-.0231.0154-.0308.0232l-.0078.0077c-.0308.0231-.0616.0385-.0925.0616-.0154.0077-.0308.0232-.0462.0309-.0308.0231-.0694.0462-.1002.0694-.0077.0077-.0232.0154-.0309.0231-.0462.0231-.0925.0539-.131.0771-.0078.0077-.0232.0077-.0309.0154-.0385.0231-.0693.0385-.1002.054-.0154.0077-.0308.0154-.0462.0231-.0309.0154-.0617.0308-.0849.0462-.0154.0077-.0308.0155-.0462.0232-.0308.0154-.0617.0231-.0848.0385-.0154.0077-.0308.0154-.0462.0231-.0386.0155-.0694.0309-.108.0463-.0077 0-.0154.0077-.0231.0077-.0386.0154-.0694.0308-.1079.0463-.0154.0077-.0309.0154-.0463.0154-.0231.0077-.0463.0154-.0694.0231-.0154.0077-.0385.0154-.0539.0231-.0155.0077-.0386.0155-.054.0232s-.0386.0154-.054.0154c-.0154.0077-.0308.0077-.0462.0154s-.0386.0154-.054.0231c.1002.239.3701 1.0947-.2235 2.2126-.0155.0154-.0232.0308-.0309.0462.0077-.0154.0231-.0308.0309-.0462.5936-1.1179.3237-1.9659.2312-2.2126-.0308.0077-.0539.0154-.0848.0232-.0154.0077-.0231.0077-.0385.0154-.0463.0154-.1002.0308-.1388.0462 0 .0077.0077.0077.0077.0154.0077.0078.0154.0232.0154.0309.0232.0385.0309.0771.0232.1079-.0155.1002-.054.1773-.1157.2544-.0154.0154-.0231.0386-.0385.054-.0848.0848-.2082.1465-.3624.2158-.0616.0309-.1387.054-.2158.0771-.0231.0077-.0463.0154-.0694.0232-.1079.0385-.2467.0848-.3777.1233-.1157.0385-.2313.0848-.3624.1311-.1927.0693-.3931.1387-.60128.2389-.04626.0232-.07709.0386-.11564.0617-.20043.1079-.31609.2005-.37776.2698-.05397.0617-.06938.108-.06938.108s-.0077.0154-.01541.0385c.03855.0077.07709.0154.12335.0231-.03855-.0077-.0771-.0154-.12335-.0231 0 0-.00001.0077-.00772.0077v.0077c0 .0077.00002.0077-.00769.0154 0 .0078-.00772.0078-.00772.0155s-.00771.0154-.00771.0231v.0077c-.00771.0154-.0077.0231-.01541.0385-.00771.0155-.01544.0309-.01544.0463v.0077c-.00771.0077-.0077.0231-.01541.0308v.0078.0077c0 .0077 0 .0077-.00771.0154 0 .0077.00001.0154-.0077.0154v.0077c0 .0077-.00771.0231-.00771.0308v.0078c-.00771.0231-.01541.0462-.01541.0693v.0077.0155.0077h.00769.00772.00771c.03084-.0154.05396-.0309.08479-.0463.00771 0 .01542-.0077.02313-.0077.02313-.0077.03855-.0231.05397-.0308.02313-.0077.04625-.0232.06938-.0309 0 0 .00772 0 .01543-.0077.01542-.0077.03853-.0154.05395-.0231h.00772c.02312-.0077.03855-.0154.05397-.0231h.00769c.01542-.0077.03083-.0154.04625-.0154h.00772c.01542-.0078.03083-.0078.04625-.0155h.00772c.01542 0 .02313-.0077.03084-.0077h.00769c.00771 0 .01542-.0077.02313-.0077h.00772c.00771 0 .01542 0 .02312-.0077h.00772.02313.00769.01543.01541.00772.00772.00769c0 .0077.00772.0154.01543.0231 0 .0077.0077.0077.0077.0155.03854.077.11565.2544.18507.4625.0462.1388.0925.2852.1156.4471 0 .0232.0077.0386.0077.0617 0 .0154.0077.0308.0077.0463.0077.0462.0077.0925.0077.131.0077.0617.0154.1234.0077.185-.0077.3161-.0848.6014-.1927.8172-.15417.3007-.35463.3469-.35463.3469s-.54733.0925-.77861.0925c-.00771 0-.02313-.0077-.03084-.0077-.03084 0-.06167-.0077-.09251-.0154-.0848-.0308-.16191-.0848-.18503-.0925-.06168-.054-.10793-.1002-.14648-.1696s-.08478-.1465-.14645-.2621c-.06939-.1311-.09252-.1696-.12335-.2005l-.00772-.0077c-.04625-.0385-.15418-.0771-.55506-.3392-.0848-.0539-.18503-.1233-.30067-.2081-.01542-.0154-.03082-.0231-.05395-.0386-.28524-.2004-.47026-.4548-.56277-.7478-.04626-.1618-.06939-.3392-.05397-.5242.00771-.0771.03083-.1619.04625-.239.01542-.0693.03084-.131.05397-.2004.03084-.0848.06168-.1773.10794-.2621.00771-.0154.01542-.0308.02313-.0463.03083-.0616.06167-.131.0925-.2081.00771-.0154.0077-.0231.01541-.0386.01542-.0462.03084-.0848.05397-.131.00771-.0231.01542-.0463.02313-.0694.00771-.0154.01542-.0385.02312-.054.04626-.131.10023-.2698.14648-.424v-.0077c.01542-.0539.35463-1.1101.43943-1.642v-.0077c0-.0155-.00002-.0309.00769-.0463.00771-.054.01544-.1079.01544-.1465-.02313-.0308-.31608.8943-.60132 1.5033-.09251.2082-.18502.3778-.26982.4626-.10793.1233-.65528.0308-1.15638-.8249-.19273-.3315-.37774-.7786-.52422-1.3722l-.59362-2.3668c0 .0848-.0154 3.793 1.51101 4.8414.00771 0 .00771.0077.01541.0077-.0077 0-.0077-.0077-.01541-.0077 0 0 0 .0154-.00771.0386 0 .0154-.00772.0308-.00772.0539s-.00769.0463-.00769.0771c-.00771.0308-.01542.0617-.02313.0925-.00771.0309-.01542.054-.02312.0925-.00771.0309-.03086.0617-.04628.0925-.01542.0386-.03083.0771-.06166.1234-.05397.0925-.12335.1773-.19273.2621-.00771.0154-.02314.0231-.03085.0385-.06938.0771-.13875.1542-.20814.2236-.00771.0077-.01541.0154-.02312.0154-.06168.0617-.11564.108-.16961.1542-.01541.0154-.03083.0231-.04625.0386-.03854.0308-.06938.0616-.10022.0848-.01542.0077-.03083.0231-.03854.0308 1.62664 1.8656 3.67726 3.4152 6.1288 4.6332.0231.0154.0462.0077.0694 0 2.6211-1.3028 4.7874-2.9989 6.4602-5.0418-.609-.8943-1.0175-1.6729-1.2874-2.3513.0077.0154.0077.0308.0154.054-.0848.0694-.1696.1156-.2698.1387zm-6.36777 2.3899s.00771 0 0 0zm1.75767-15.12541c.0078 0 .0078 0 0 0 .0309 0 .0617.01542.0848.01542-.0231 0-.0539-.01542-.0848-.01542zm46.9258 4.50211h3.5924v9.8447h-3.5924zm-13.2598 7.5859h2.0198l-4.2786 2.2588h-1.3337v-1.2721l-2.4129 1.2721h-3.4075v-9.8447h3.5847v7.5859h2.2357v-7.5859h3.5848v7.5859zm5.8281-6.4218v-1.1641h-3.5848v14.1849l3.5848-1.8887v-2.4515h2.1894l3.6387-1.9196v-7.9251h-3.6156zm2.2357 6.4218h-2.2357v-5.3348h2.2357zm-37.9831.5088c-.0077.0077-.0154.0154-.0308.0154-.0463-.0077-.1003-.0154-.1465-.0308-.2159-.0617-.3932-.2082-.4394-.424-.0232-.1234-.0078-.2699.077-.4472.0463-.0925.0771-.1696.108-.2467.0925-.2158.1464-.3777.1696-.4857.0077-.0385.0154-.0693.0231-.1002 0-.0077.0077-.0077.0077-.0077.0077-.0077.0077-.0154.0154-.0154.0154 0 .0232.0077.0309.0154.0539.1002.1079.3469-.0463.8403-.1465.478.0771.7401.2159.848.0154.0077.0154.0232.0154.0386zm5.9977-14.7708c-1.7654.35462-3.2532.49339-4.4944.49339-2.7753 0-4.3249-.70154-5.1189-1.2566-.3701-.93281-.0925-1.78852.609-1.82707 0 0 .1542-.04626 1.5419.30837 1.5109.32378 1.7885-1.05616 1.8501-1.88875 0 0-.5473.531932-2.1739.231274-1.619-.300657-2.6135 1.464746-2.6057 2.389846 0 .07709-.0771 2.38213 2.49 3.12221 1.9736.57048 6.3447-.10022 5.2191 4.90303 0 0-.1927-.1311-.4934-.2775.0154.0077.0386.0154.054.0231.7324-3.35349-1.8887-4.15524-3.9008-4.30172-2.7753-.19272-3.5154-1.61892-3.7236-2.60569-1.21801.79404-3.95477 1.78852-9.48995.6784-.00771 0-.01541 0-.01541 0-.038545 0-.069387.02313-.077096.06168-.007709.03854-.9328037 3.82374-.138759 8.43383.354625 2.0583 1.002175 3.9702 1.911855 5.7048-.01541-.4394-.04625-.7941-.02312-1.0099.00771-.3469.08481-.9251.15419-1.5033-.07709-.185-.22358-.663-.25442-1.6883-.03854-1.4185.43943-1.9581.50881-2.0507.12335-.1773.13879-.4394.13879-.4394 0-.4702.08479-1.1255.23898-1.6035.45484-1.27199 1.20263-2.35128 1.97354-3.17616.06939-.07709.14646-.16189.22355-.23128v.00771c.90198-.87884 2.24338-1.53412 3.26099-1.62663.15418-.01542.30065-.01542.44712 0 .04626-.00771.08481 0 .13107-.00771-.06938.00771-.14647.00771-.21586.01542-1.88103.27753-4.34025 2.20482-5.36557 5.26535-.10022.3855-.17733 1.0099.06166 1.6421l.38546 1.0484s-.51652-.4317-.77092-.8788c-.09251.1156-.54735.7786-.50881 2.0506 0 .0617.00772.1234.00772.185.03084.663.10794 1.0716.17732 1.3106.02313.0848.04625.1542.06938.1927-.01542.1157-.03084.239-.04625.3546-.01542.0925-.02315.1851-.03856.2853-.04626.3854-.06938.7863-.06938.8557v.0077c0 .0231-.00001.054-.00772.0925v.0308.0771.0309.1079.0077c.01542.424.06167 1.0562.02313 1.7731-.01542.2467-.03853.5088-.07708.7709-.04625.3161-.11563.6322-.21585.956-.0848.3083-.20045.8172-.56278 1.2334-.37004.424-.41629.5011-.64757 1.1718 0 0-.940528.8866-.901982 1.4879 0 .0154.007716.0231.030843.0308.200439.0771 1.426209.4934 2.829279-.0308.03083-.0154.03853-.0385.03853-.0617.01542-.185.06168-.8788.22358-1.2026.18502-.3777.27751-.5319.22355-.7863-.05397-.2544-.07709-.4626.05397-.7093.04625-.0848.15419-.1927.30066-.3083.10793-.0925.24669-.1851.37775-.293 0 0 .00771 0 .00771-.0077.00771-.0077.06166-.0385.13105-.1002.03083-.0231.06167-.0463.10022-.0848.01542-.0154.03083-.0231.04625-.0386.05397-.0462.10793-.1002.1696-.1541.00771-.0078.01542-.0155.02313-.0155.06938-.0693.13878-.1387.20816-.2235.00771-.0154.02311-.0232.03082-.0386.06939-.0848.13877-.1696.19273-.2621.02313-.0462.03856-.0848.06169-.1233.01542-.0309.03083-.0617.04625-.0925.01542-.0309.01542-.0617.02313-.0926.00771-.0308.02313-.0616.02313-.0925.0077-.0308.00771-.0539.00771-.0771 0-.0154.00769-.0385.00769-.0539s0-.0386 0-.0386c-1.54183-1.0638-1.51099-4.849-1.51099-4.849v.0077-.0077l.5936 2.3744c.14648.5936.33151 1.0407.52424 1.3722.49339.8557 1.04845.9482 1.15638.8249.07709-.0925.16958-.2621.2698-.4625.27753-.6168.57819-1.5342.60132-1.5033 0 .0385-.0077.0925-.01541.1464 0 .0155-.00001.0232-.00772.0463v.0077c-.0848.5319-.42399 1.5881-.43941 1.6421v.0154c-.04625.1464-.10022.2929-.14647.424-.00771.0154-.01542.0385-.02313.0539-.00771.0232-.01542.0463-.02312.0694-.01542.0463-.03085.0848-.05397.1311-.00771.0154-.00773.0231-.01544.0385-.03083.0771-.06167.1465-.0925.2082-.00771.0154-.01542.0385-.02313.0462-.04626.0848-.07708.1773-.10792.2621-.02312.0694-.03855.1311-.05397.2005-.01542.0771-.03854.1619-.04625.239-.01542.185.00001.3546.05397.5242.0848.2852.27751.5473.56275.7478.01542.0154.03085.0231.05397.0385.11564.0771.21587.1465.30067.2082.40088.2621.50881.3006.55506.3392l.0077.0077c.03083.0308.05396.0617.12335.2004.06167.1157.10022.1928.14647.2621.04626.0694.08481.1157.14648.1696.01542.0155.09252.0694.17732.0925.03084.0078.06167.0155.0925.0155.00771 0 .02312.0077.03082.0077.23128 0 .77864-.0925.77864-.0925s.20045-.0386.34692-.347c.10796-.2158.19276-.501.19276-.8171 0-.0617-.0077-.1234-.0077-.185 0-.0463-.0001-.0926-.0078-.1388 0-.0154-.0077-.0308-.0077-.0463 0-.0231-.0077-.0385-.0077-.0616-.0308-.1619-.0694-.3161-.11561-.4472-.06938-.2158-.14646-.3854-.18501-.4625-.00771-.0077-.00772-.0154-.00772-.0231-.0077-.0078-.00772-.0232-.01543-.0232v-.0077s-.19271-.0154-.65526.2467h-.00772-.00771s.00001 0-.0077-.0077v-.0077c0-.0077 0-.0077 0-.0154 0 0 0 0 0-.0077 0-.0155.0077-.0386.01541-.0694 0 0 0 0 0-.0077s.00772-.0232.00772-.0309v-.0077c0-.0077.00769-.0154.00769-.0154 0-.0077.00001-.0077.00772-.0154v-.0077s0 0 0-.0077.00772-.0154.00772-.0309v-.0077c.00771-.0154.01541-.0308.01541-.0462.00771-.0154.0077-.0232.01541-.0386v-.0077c0-.0077.00771-.0154.00771-.0231s.00772-.0077.00772-.0154-.00002-.0077.00769-.0154v-.0078c.00771-.0231.02315-.0462.02315-.0462s.01542-.0463.06938-.1079c.06168-.0694.17731-.1696.37774-.2699.03855-.0231.06938-.0385.11564-.0616.21585-.0925.41625-.1696.60905-.239.131-.0463.2467-.0925.3623-.1311.1311-.0462.2698-.0925.3778-.131.0231-.0077.0462-.0154.0693-.0232.0771-.0231.1465-.0539.2159-.077.1465-.0617.2698-.1311.3623-.2082.0154-.0154.0232-.0308.0386-.054.0617-.0693.1079-.1541.1156-.2544.0077-.0308 0-.0693-.0231-.1079-.0077-.0077-.0077-.0154-.0154-.0308 0-.0077-.0077-.0077-.0077-.0154.0385-.0155.0925-.0309.1387-.0463.0154-.0077.0231-.0077.0386-.0154.3854-.1234 1.0022-.3546 1.5572-.7555.0077-.0077.0232-.0154.0309-.0231.0848-.0617.1773-.1311.2544-.2082 0 0 .0077.0154.0154.0308.0154.0232.0385.0617.0077.1465 0 .0077-.0077.0154-.0154.0309 0 0 0 .0077-.0077.0077-.0232.0385-.0617.0925-.108.1387-.0077.0077-.0077.0154-.0154.0154-.0077.0078-.0231.0232-.0385.0386-.1234.131-.3161.2929-.5474.4471-.0771.054-.1542.108-.2467.1619-.1002.054-.2004.1079-.3084.1542-.0308.0154-.0539.0308-.0847.0463 0 0 .3546 1.0792-.1388 1.8039-.054.0848-.1002.1388-.1465.2081-.0308.0463-.0694.1003-.0925.1388-.2698.4009-.3546.5319-.4703.6784-.0077.0077-.0154.0154-.0231.0231l-.0077.0078c-.0077.0077-.0231.0308-.0308.0462-.0232.0308-.0463.0617-.0771.1079-.0077.0077-.0154.0232-.0231.0309-.0309.0539-.0694.1079-.1003.1696-.0154.0231-.0308.0539-.0462.0771-.0309.0616-.0694.131-.1002.2004-.0155.0308-.0309.054-.0386.0848-.0308.0771-.0617.1465-.0848.2236-.0077.0231-.0154.0385-.0231.0617-.0231.0925-.0463.1773-.0463.2544 0 0 .3547.0693.663.0848h.0925.0386c.2312 0 .4317-.0078.6167-.0232.1079-.0077.2159-.0154.3084-.0308.0771-.0154.131-.0386.1927-.054.0694-.0308.1233-.0616.1619-.1002.0154-.0154.0308-.0231.0462-.0308 0 0 .0386-.6322.1697-1.0331.0462-.131.1002-.2467.1618-.2929.054-.0463.1003-.0848.1388-.1234l.0077-.0077.0077-.0077c.1157-.1156.1619-.2235.1696-.3392 0-.0077 0-.0231 0-.0385s0-.0232 0-.0386c-.0154-.2004-.0848-.3546.3007-.6784.1387-.1156.2544-.2698.3777-.4394.2313-.3007.5088-.6553 1.087-.9791 0 0 .347-.1233.2776-.6552.0617.0154.1156.0077.1696 0 .1079-.0155.1927-.0694.2544-.1234-.0154-.0385-.0309-.0771-.0463-.1156.0077.0231.0154.0462.0308.0616-.9405-2.3358-.2158-3.4151-.1079-3.5616-.5473 2.5132 1.0253 4.5561 1.7268 5.4889.2159-.2852.4318-.5704.6322-.8711.7015-1.033 1.2798-2.1509 1.7577-3.3381 0 .0077-.0077.0154-.0077.0309.0077-.0077.0077-.0232.0154-.0309.0077-.0308.0231-.0539.0309-.0771v-.0077c.4779-1.218.848-2.5132 1.0793-3.87.8017-4.61006-.1157-8.39526-.1234-8.43381.0231-.06167-.0154-.0848-.0617-.07709zm-9.5439 1.70373c-.0309-.02313-.054-.05397-.0848-.07709.0308.02312.0539.05396.0848.07709zm-.3161-.2467c-.0386-.03083-.0848-.06167-.1234-.09251.0386.02313.0848.06168.1234.09251zm-.3546-.22356c-.0463-.02313-.0925-.05397-.1465-.07709.054.01542.1002.04625.1465.07709zm-.3701-.17731c-.0462-.02313-.1002-.04626-.1465-.06168.0463.01542.0926.03855.1465.06168zm-.77859-.19273c-.05396-.00771-.10794-.01542-.16191-.01542.06168.00771.10795.01542.16191.01542zm.39319.06938c-.054-.01542-.1002-.03084-.1542-.03854.054.0077.1002.02312.1542.03854zm4.2709 6.93059v.0462c0 .0077-.0078.0154-.0078.0154-.0231.0925-.0693.1851-.1233.2699-.1002.1464-.2467.2852-.3854.3931-.2313.185-.4549.293-.4549.293s-.185.5011-.3469 1.0176c-.0463.1387-.0848.2852-.1234.4163-.0154.0539-.0231.1002-.0385.1542-.0308.1156-.0463.2158-.054.3006 0 .0386-.0154.0771-.0154.1079 0 .1465.0308.3547.054.5628.0077.1079.0231.2082.0231.3084v.1002c0 .0617-.0077.1156-.0154.1696-.0077.0385-.0077.0771-.0154.1156-.0154.0771-.0463.1388-.0848.1851-.0386.0462-.1003.1002-.1696.1541-.0077.0077-.0155.0155-.0232.0232-.0539.0462-.1156.0848-.185.131-.1387.0848-.2929.1696-.4394.2467-.0771.0386-.1542.0694-.2236.0925-.0694.0232-.1464.0463-.2081.0617-.0925.0231-.1773.0308-.239.0154-.1927-.0462-.2698-.0848-.3392-.131-.0463-.0309-.0848-.0771-.1542-.1311-.0154-.0077-.0231-.0154-.0308-.0231l-.0077-.0077c-.0155-.0077-.0309-.0154-.0463-.0232-.054-.0231-.1311-.0308-.3469-.0308-.0386 0-.0771 0-.1311 0-.3083 0-.58586-.0077-.80943-.0694-.16189-.0462-.28523-.131-.37774-.2544-.03084-.0462-.0771-.0771-.10022-.131-.05397-.1157-.09251-.2159-.11564-.3084-.00771-.0308-.02313-.0694-.03084-.1002-.05396-.1928-.09251-.3469-.26211-.4626 0 0-.0077-.0077-.01541-.0077-.05396-.0385-.11564-.0694-.20044-.1002-.4163-.1542-.90198-.1927-1.27973-.6167-.00771-.0155-.02313-.0232-.03084-.0386-.01542-.0154-.02312-.0308-.03854-.0462-.00771-.0077-.0077-.0155-.01541-.0232 0-.0077-.00772-.0077-.00772-.0154-.0077-.0154-.01542-.0308-.03084-.0462-.00771-.0077-.01542-.0232-.02313-.0309 0-.0077-.00769-.0077-.00769-.0154-.00771-.0077-.00772-.0154-.01543-.0231s-.0077-.0231-.01541-.0309c-.01542-.0308-.03084-.0616-.05397-.0925-.15419-.3083-.25441-.5936-.31608-.8326-.09251-.3546-.10792-.6013-.10792-.6013l-.00771.0077c-.00771.0077-.04627.054-.10794.1542-.12335.2082-.29293.6168-.29293 1.2797 0 .0617.00769.1311.00769.1928.00771.1156.01543.239.03084.37.00771.0771.01543.1542.03085.239 0 0-.61674-1.1487-.14648-2.3744.03084-.0694.05395-.1311.08479-.1928.23128-.5011.45484-.8094.62444-.9944.03855-.0463.07711-.0848.10794-.1157.06168-.0617.10793-.0925.12335-.1079.00771-.0077.01542-.0154.02313-.0154 0 0-.00772.0077-.00772.0154-.02313.0694-.06937.3315-.06166.7169 0 .2699.03082.6168.10791.9945.04626.2313.11566.4703.20817.7247 0 0 .01541.0231.02312.054.01542.0308.03084.0616.04626.0925.00771.0154.01541.0308.01541.0308.00771.0154.02313.0385.03084.054.00771.0154.01542.0231.02313.0385.10022.1465.26211.3238.5088.4857.06939.0462.13875.0848.22355.1233l.00772.0077h.00772c.0848.0386.1696.0771.26982.1157.48568.1696.71695.3006.83258.4163l.00772.0077c.11564.1233.11564.2313.14648.37.03083.1234.07707.2699.15416.3932.04626.0771.10022.1465.16961.2004.03083.0309.06938.054.11563.0694.03855.0231.08481.0309.13102.0386.0309.0077.0463.0231.0771.0231.1157.0154.239.0231.3469.0308.0386 0 .0771 0 .108.0077.0848 0 .1619 0 .2236.0077h.1156.1002.0463c.0539.0078.1156.0463.1927.108.0308.0231.0617.0462.1079.0848 0 0 .0848.0617.2544.0385.0925-.0077.1928-.0308.3392-.1156.2082-.1157.3546-.2082.4472-.2775.0077-.0078.0231-.0155.0308-.0232s.0077-.0077.0077-.0077c.0385-.0308.0694-.0617.0848-.0694.0077 0 .0077-.0077.0077-.0077s.0154-.0077.0308-.0385c.0309-.0463.0694-.1542.0617-.3624 0-.0154-.0077-.0462-.0077-.0616 0-.0694-.0077-.1311-.0231-.2236-.0077-.0462-.0077-.1002-.0077-.1619 0-.0154 0-.0308 0-.0539 0-.0463.0077-.1003.0154-.1465.0077-.108.0231-.2236.0463-.3546.0077-.0386.0154-.0771.0231-.1157 0-.0154.0077-.0385.0154-.0539.0308-.1388.0694-.2853.1079-.4318.0154-.0693.0386-.131.054-.1927.0925-.3161.2004-.6013.2852-.8249.0463-.1156.0848-.2235.1157-.2852.185-.4163.2621-.9405.2621-.9405s.0077.0154.0077.0231c.0077.0231.0231.054.0385.1156.0077.0463.0232.108.0309.1619.0077.0617.0154.1311.0154.1928v.0385.0077s.0539-.0231.1233-.0617c.0694-.0385.1542-.1002.2236-.185.0154-.0154.0308-.0385.0463-.0617.077-.1079.131-.2466.1156-.4085 0-.0309-.0077-.0694-.0154-.1003-.0309-.1464-.1928-.4702-.2776-.7863-.0231-.1079-.0385-.2313-.0385-.3238 0 .0309-.0077.054 0 .0848 0-.0308 0-.0617 0-.0925v-.0077c0-.0077 0-.0154 0-.0231 0-.0154 0-.0309 0-.054 0-.0077 0-.0154 0-.0231s0-.0077 0-.0154c0-.0309.0077-.0694.0077-.108 0-.0231 0-.0539 0-.0848 0-.0231 0-.0539 0-.0771 0-.0539-.0077-.1079-.0077-.1618 0-.0155 0-.0232 0-.0386-.0077-.0771-.0154-.1542-.0308-.239-.0309-.17729-.0771-.37002-.1311-.56275-.0308-.10021-.0694-.20814-.1156-.30836 0-.00771 0-.00771-.0077-.01542-.1619-.36233-.4009-.6707-.7401-.80176-.1928-.07709-.4317-.13105-.6861-.16189-.0309 0-.054-.00771-.0849-.00771-.1696-.01542-.3469-.02313-.5242-.00771-.0077 0-.0077 0-.0154 0-.1465.00771-.2929.02313-.4317.04626-.0308.00771-.054.01542-.0771.02313-.0925.01541-.1773.03854-.2621.06167-.0077 0-.0077.00771-.0154.00771-.1002.03083-.185.06938-.2698.11564.0539-.03084.131-.04626.2004-.06939-.2775.10793-.4857.26982-.5705.47797-.02311.07709-.04625.14648-.03854.23128 0 .00771.00001.00771.00772.01542.00771.07709.03082.14647.06942.21585.0077.01542.0154.03084.0231.03855.0385.06167.0925.12334.1542.1696.0154.00771.0231.02313.0385.03084.0694.04625.1388.09251.2236.13105 0 0 .0077 0 .0077.00771.0771.03855.1619.06938.2467.09251.0231.00771.0463.01542.0694.02313.5627.15418 1.1949.13876 1.1949.13876l.9405-.0077h.0231c.0309 0 .0771-.00001.108.02312.0077 0 .0077.00771.0077.01542l.0077.00771v.00771l.0077.00771c0 .01542-.0231.03854-.0617.06934-.0617.0463-.1773.1157-.3238.1851-.131.0616-.2775.131-.4625.2004-.3084.1156-.6861.2236-1.087.2852-.3392.054-.7478.0848-1.1564.0617-.0154 0-.02312 0-.03854 0-.03084 0-.05395 0-.08479-.0077-.05396-.0077-.11564-.0154-.1696-.0231-.02313 0-.05397-.0077-.0771-.0077-.03854-.0077-.0848-.0155-.12335-.0232-.0848-.0154-.16189-.0308-.23898-.0539-.37775-.1002-.70924-.2853-.97906-.5551-.18502-.18501-.34691-.40857-.43171-.70923 0-.00771 0-.01542 0-.02313-.05396-.1696-.07709-.3392-.07709-.50109v-.00771c0-.04626 0-.0848 0-.13106 0-.04625.0077-.09251.01541-.13105.01541-.11564.04626-.23128.08481-.33921.00771-.03083.02313-.06167.03084-.0848.03084-.0848.06938-.16189.11563-.23898.01542-.02313.02312-.04626.03854-.07709.05396-.08481.11565-.16961.17732-.2467.03084-.03854.06168-.07709.10022-.10793.03855-.03854.0771-.0848.12335-.12334.03855-.03855.07707-.07709.12333-.11564.02313-.02313.05398-.04626.08481-.06167.19273-.14648.39316-.26982.5936-.36233.00771-.00771.01542-.00771.03084-.01542.15419-.06939.30837-.12335.45484-.15419.12335-.02312.25438-.03854.37778-.05396.0925-.01542.1773-.03084.2698-.03855s.185-.00771.2775-.01542c.1542-.0077.3161-.0077.4703-.0077h.1002.0231c.0617.0077.1234.0077.185.01541h.0309.0077c.0154 0 .0308.00771.054.00771.0385.00771.0771.00771.1156.01542h.0308c.0463.00771.1003.01542.1542.02313.0154 0 .0309.00771.0463.00771.0462.00771.1002.01542.1464.03084.0155 0 .0309.0077.0463.0077.0463.00771.0848.02313.1311.03084.0154.00771.0308.00771.0462.00771-.239-.06167-.4625-.10022-.6938-.12335.2313.03084.4625.06939.6938.13106.6168.16189 1.2643.44713 1.9582.89426 1.6343 1.04074 1.5264 1.37995 2.6596 1.4262 0 0 .478.00771.5396.02313.1003.03083.1388.10022-.2698.31607-.4086.21586-1.1332.72466-3.0143.33921-.0154 0-.0308-.00771-.0462-.00771.0077 0 .0231.00771.0308.00771-.0077 0-.0231 0-.0308-.00771 0 .01542.0385.18502.0462.51656v.0925.1079c0 .1388 0 .2852-.0077.4625 0 .0077.0077.0309.0077.0463v.0154c.054.0848.1542.2621.2467.478-.0154 0-.0385-.0077-.0616-.0231.0077.0154.0077.0308.0154.0385.0077.0231.0154.0463.0231.0694.0154.0539.0386.1002.054.1542.0077.0231.0154.0539.0231.0771.0154.0462.0308.1002.0385.1464.0078.0309.0077.0617.0155.0925.0077.0386.0154.0848.0231.1234.0617.131.054.1773.054.2236zm-2.174.4085-.0077.0078-.0077.0154-.0771.1619s0 0-.0077-.0077c0 0-.108-.0617-.2313-.1003-.0154 0-.0231-.0077-.0386-.0154-.0231-.0077-.0462-.0154-.0771-.0231-.0385-.0077-.077-.0154-.1156-.0154-.0385 0-.0617.0154-.0848.0308-.0154.0154-.0231.0308-.0385.0463 0 .0077-.0078.0077-.0078.0154 0 0 0 0-.0077 0l-.0077.0077c-.0231.0231-.0539.0385-.1002.0462-.0771.0155-.131.0078-.1696-.0077-.0385-.0154-.0617-.0385-.0848-.0771v-.0077c-.0077-.0154-.0154-.0462-.0154-.0771 0 0 0 0 0-.0077s0-.0154 0-.0231c0-.0231 0-.0385.0077-.0617.0077-.0462.0154-.0771.0154-.0771.0077-.0308 0-.0462-.0154-.0616-.0077-.0077-.0077-.0232-.0154-.0309-.0077-.0154-.0232-.0154-.0386-.0231-.0077 0-.0154-.0077-.0231-.0077-.0231-.0077-.0385-.0077-.054-.0077h-.0077c-.0154 0-.0308 0-.0308 0-.2082.0539-.2929.2081-.3777.3006 0 0-.0001.0078-.0078.0078l-.0077.0077c-.0308.0231-.0539.0462-.0925.0539-.0385.0077-.0694 0-.0848-.0077-.0077-.0077-.0077-.0154-.0154-.0154-.0154-.0154-.0154-.0308-.0231-.0617 0-.0077-.0078-.0077-.0078-.0154s.0078-.0077.0078-.0154c0-.0463.0154-.0925.0539-.1465 0-.0077 0-.0077.0078-.0154.1079-.1773.2852-.4317.7246-.4934s.5551.3084.7401.4626c.1773.1696.3161.2004.3238.2389zm5.5429-2.1431c-.0463-.0231-.0925-.0386-.1388-.054.054.0154.0925.0386.1388.054zm-.3238-.1234c-.054-.0154-.1002-.0308-.1542-.0462.054.0154.1002.0308.1542.0462zm-.4009-.1079c-.0462-.0077-.0848-.0231-.1311-.0308.0386.0077.0849.0231.1311.0308zm-1.9735 8.8887c-.0463-.0077-.1003-.0154-.1465-.0308-.2159-.0617-.3932-.2082-.4394-.424-.0232-.1234-.0078-.2699.077-.4472.0463-.0925.0771-.1696.108-.2467.0925-.2158.1464-.3777.1696-.4857.0077-.0385.0154-.0693.0231-.1002 0-.0077.0077-.0077.0077-.0077.0077-.0077.0077-.0154.0154-.0154.0154 0 .0232 0 .0309.0154.0539.1079.1079.3469-.0463.8403-.1465.478.0771.7401.2159.848.0154.0077.0154.0232.0077.0386 0 .0077-.0077.0154-.0231.0154zm.6167-8.9195c-.7555.1156-1.2258-.1927-1.511-.42402.2852.23132.7555.53962 1.511.42402.1233-.0231.2467-.0309.3623-.0386-.1156.0155-.239.0232-.3623.0386zm-3.2225-5.33477c-.2312-.19272-.4239-.39316-.5858-.60902.1541.20815.3469.4163.5858.60902 1.619 1.32598 7.2004-.94822 7.2929 4.77198 0 .20044-.0077.39319-.0231.57819.0154-.185.0308-.38546.0231-.57819-.1002-5.7202-5.6816-3.446-7.2929-4.77198zm7.8171 11.50977c.0925-.6475.1388-1.3722.1388-1.9427 0-.6861-.0848-1.326-.4934-2.0044.4086.6707.4934 1.3183.4934 1.9967 0 .5782-.0386 1.3029-.1388 1.9504z" fill="#ffeded"/></svg>