<svg fill="none" height="16" viewBox="0 0 86 16" width="86" xmlns="http://www.w3.org/2000/svg"><path d="m66.2326 7.40945h-1.696v-2.34358c0-.40859.3855-.80947.8095-.80947h.8634c.6862 0 1.1795.10793 1.5264.54735.4009.53965.4703 1.10242.2159 1.65748-.2698.55506-.9483.94822-1.7192.94822zm19.5813-6.699266v15.140816h-85.348171v-15.140816zm-62.9299 8.094626h-1.0176v1.24889c0 1.0407-.4163 2.0738-2.0275 2.0738h-.6476c-.6321 0-.979-.3778-.9713-.8095v-6.25984c0-.56277.4085-.80947.8094-.80947h1.1409v-.94822h-5.5428v.94822h.902c.3777 0 .8094.23128.8171.80947v6.25984c0 .424-.293.8095-.8095.8095h-.9019v.979h8.2488zm9.2355.48568h-.9944v1.13321c0 1.0793-.7247 1.7115-1.7115 1.7115h-1.6651c-.3855 0-.8095-.4317-.8095-.8095v-2.72903h1.5418c.4703 0 .7401.43171.7478 1.20263v.3855h.8326v-4.29405h-.8326v.43942c-.0077.82488-.3161 1.0947-.7478 1.0947h-1.5418v-2.359c0-.45485.3778-.80947.8095-.80947h1.4493c1.1101.00771 1.696.39317 1.696 1.66518v.94052h1.0562v-3.56163h-8.8116v.94822h1.1178c.5011 0 .8095.34692.8095.81718v6.25213c0 .4317-.3546.8095-.8095.8095h-.6784v.979h8.5494v-3.81601zm12.8898-.97906c-1.087-.87885-2.4516-1.07929-3.739-1.46474-.424-.14648-.8479-.25441-1.1949-.57048-.316-.30837-.424-.7555-.3006-1.18722.1619-.44713.609-.77091 1.0253-.94051 0 0 1.5881-.64758 2.8986.54735.5628.51651.7632 1.16408.7632 1.94271h.8634v-2.99116c-2.6365-.93281-4.6177-.8403-6.0594.20044-.8634.63986-1.4107 1.61892-1.1332 2.71362.8172 2.24337 3.3149 2.12774 5.0881 2.97574.4625.23128.8557.67842.8326 1.24122.0077.4625-.3084.848-.6631 1.087-.9251.4933-2.2896.4856-3.1684-.0771-.8403-.5705-1.195-1.511-1.1718-2.52094h-.9867v3.15304c1.8887.8095 3.6155.9868 5.3655.4857.9097-.293 2.0353-.902 2.2511-2.1123.1773-.89428.0694-1.86564-.6707-2.48237zm9.4745 3.54617c.6707-.6707 1.3569-1.95038 1.3491-3.86225 0-1.44162-.4625-2.8601-1.3413-3.73124-.8172-.80175-1.9427-1.24117-3.3458-1.24117-1.3954 0-2.5286.43942-3.3458 1.24117-.8788.87114-1.3413 2.28962-1.3413 3.73124-.0077 1.91958.6861 3.19935 1.3491 3.86225.9482.9483 1.9581 1.326 3.3303 1.326 1.3876 0 2.3898-.3777 3.3457-1.326zm6.3524-8.55713h-5.2576v.94822h1.0638c.4086.00771.8095.4163.8095.80947v6.25984c0 .4086-.4086.8095-.8095.8095h-1.0638v.979h5.2576v-.979h-.7092c-.3932 0-.8095-.4009-.8095-.8095v-6.25213c0-.40859.3855-.81718.8095-.81718h.7092zm10.4845 8.82703h-.5859c-.3006 0-.6784-.1157-.8788-.5011-.4317-.9945-.3932-1.5958-.7864-2.36675-.4163-.79404-1.2874-1.0099-2.0891-1.13324 1.0484-.20044 2.1739-.50881 2.7521-1.511.3315-.5859.2852-1.43391-.0386-1.99667-.8403-1.31056-2.0583-1.31827-3.3072-1.31056h-4.9801v.94822h.4471c.4009.00771.8172.40859.8172.80947v6.25983c0 .4163-.4163.8095-.8172.8095h-.4471v.979h4.587v-.979h-.6476c-.3931 0-.8095-.4163-.8095-.8095v-2.89864h1.3954c.2776 0 .6321.13106.8172.31608 1.0021 1.14867.9713 2.59796 1.3568 4.00106.0539.185.2389.3469.4394.3623h2.783v-.979zm-20.1749-8.27968c-1.4493-.00771-2.3282 1.0947-2.6366 2.45922-.2929 1.55726-.2544 2.49777 0 3.57706.3701 1.5573 1.2952 2.3744 2.6366 2.3821 1.3414 0 2.2588-.8248 2.6366-2.3821.2544-1.05616.3006-2.0198 0-3.57706-.3084-1.36452-1.1796-2.45922-2.6366-2.45922z" fill="#ffeded"/></svg>