<svg fill="none" height="49" viewBox="0 0 120 49" width="120" xmlns="http://www.w3.org/2000/svg"><path d="m50.6111 14.9675c.0008.5847-.1729 1.1566-.4992 1.6432-.3263.4865-.7904.866-1.3337 1.0903s-1.1413.2834-1.7184.1698-1.1074-.3948-1.5236-.808c-.4163-.4132-.6999-.9399-.815-1.5133-.115-.5735-.0564-1.168.1686-1.7083.2249-.5403.6061-1.0022 1.0952-1.3271.4891-.325 1.0642-.4984 1.6525-.4984.3903-.0005.7769.0754 1.1376.2235.3608.1482.6886.3655.9648.6397.2762.2741.4953.5997.6448.9581s.2264.7425.2264 1.1305zm-9.3153-10.38032c.2728.46994.3993 1.00972.3635 1.55111-.0358.54138-.2322 1.06009-.5644 1.49054-.3323.43046-.7855.75336-1.3023.92788-.5169.17452-1.0742.19284-1.6015.05263-.5273-.1402-1.0009-.43264-1.3611-.84034-.3601-.4077-.5906-.91237-.6622-1.45023-.0717-.53786.0187-1.08476.2596-1.57159.241-.48683.6217-.89173 1.0941-1.16354.3141-.18069.6609-.29807 1.0206-.34542s.7253-.02375 1.0759.06945c.3505.09321.6791.25419.967.47374s.5294.49336.7108.80577zm-13.2395-4.249345c.4307.247739.7777.616829.9974 1.060615.2196.44378.302.94232.2366 1.43261-.0654.49028-.2756.9503-.6039 1.32188-.3284.37158-.7602.63805-1.2409.76573-.4808.12767-.9888.11081-1.4598-.04845-.4711-.15926-.8841-.45377-1.1868-.8463s-.4815-.86545-.5138-1.35898c-.0324-.49353.0832-.9855.3322-1.41373.165-.284895.385-.5346.6473-.73479.2623-.200189.5618-.346924.8814-.4317843.3195-.08486068.6527-.1061775.9805-.0627273.3279.0434502.6438.1508126.9298.3159266zm-13.4643 2.842045c.4634.00387.9153.14404 1.2987.40285s.6811.62465.8556 1.0514c.1744.42675.2179.8953.1248 1.34655-.0931.45126-.3185.86501-.6479 1.18909-.3293.32408-.7478.54398-1.2027.63195-.4549.08798-.9259.0401-1.3534-.1376-.4276-.17769-.7926-.47725-1.0491-.8609-.2566-.38364-.393-.83419-.3923-1.29483.0005-.30763.0623-.61211.1817-.89593.1193-.28381.294-.54135.514-.75778.2199-.21643.4808-.38747.7675-.50329.2867-.11581.5936-.1741.9031-.17151zm-10.18691 9.11022c.37572-.219.80838-.3223 1.24318-.2967.43481.0255.8522.1788 1.19933.4403s.60838.6195.75067 1.0287.15922.8511.04864 1.2699c-.11057.4187-.34368.7954-.6698 1.0824s-.73058.4713-1.16217.5297c-.43159.0583-.8709-.0119-1.26228-.2019-.39139-.19-.71726-.4911-.93634-.8653-.29187-.5006-.37274-1.0956-.22497-1.6552.14776-.5595.51218-1.0384 1.01374-1.3319zm-4.133145 12.9048c.200113-.3434.498155-.6201.856455-.7952s.76078-.2407 1.15657-.1884c.39578.0522.76711.2199 1.06705.4818.29993.2619.51502.6064.61806.9898.10305.3834.08943.7885-.03913 1.1643-.12856.3757-.36629.7051-.68315.9465-.31686.2415-.69861.3841-1.09702.41-.39841.0258-.79559-.0663-1.14134-.2648-.229819-.1319-.431225-.3075-.592695-.5169-.16147-.2093-.279838-.4483-.3483335-.7031-.06849554-.2549-.0857754-.5206-.0508514-.7821s.1213669-.5136.2543849-.7419zm2.934215 13.1361c-.00078-.363.10681-.7181.30914-1.0203.20234-.3022.49033-.538.82752-.6774.33719-.1395.70842-.1764 1.06672-.106.35829.0703.68754.2447.94606.5012.25852.2564.4347.5833.50624.9392.07154.356.03522.7251-.10437 1.0606-.13958.3354-.37614.6222-.67976.8239-.30361.2018-.66061.3095-1.02583.3095-.2422.0005-.48212-.0465-.70603-.1382-.22391-.0918-.42741-.2266-.59885-.3966-.17144-.1701-.30746-.372-.40026-.5944-.09281-.2224-.14058-.4607-.14058-.7015zm9.13004 9.8354c-.1659-.2852-.2431-.6128-.2216-.9416.0214-.3288.1404-.6438.342-.9053.2015-.2616.4765-.4579.7903-.5641.3137-.1062.6521-.1175.9724-.0326.3202.0849.6079.2623.8268.5097.2188.2475.3589.5538.4026.8804s-.011.6587-.1572.9543c-.1461.2957-.3772.5417-.664.7069-.1904.1102-.4009.182-.6193.2111-.2185.0292-.4405.0151-.6535-.0414-.2129-.0564-.4125-.1542-.5873-.2876s-.3214-.2999-.4312-.4898zm6.2785-15.5155v-15.8371h3.518v15.8371zm6.4837 0v-8.1459h3.5495v8.1459zm1.7866-9.9923c-.5858 0-1.1475-.2312-1.5617-.6429s-.6469-.9701-.6469-1.5523.2327-1.1406.6469-1.5523c.4142-.4116.9759-.6429 1.5617-.6429.5857 0 1.1475.2313 1.5617.6429.4141.4117.6468.9701.6468 1.5523s-.2327 1.1406-.6468 1.5523c-.4142.4117-.976.6429-1.5617.6429zm11.6067 10.0158h-3.6717l-4.4013-8.1694h3.8925l1.5776 3.3007c.3848.9433.6921 1.916.9189 2.9087.2029-.993.4932-1.9663.8676-2.9087l1.5224-3.3007h3.5967zm8.495-1.568c.2248.7487 1.4159 1.568 1.4159 1.568h-4.4053s-.631-1.6739-.631-2.6657c0-3.3516 2.7015-5.7428 6.1642-5.7428 4.0148 0 6.1918 2.9635 5.9158 6.8326h-8.4596zm-.0552-2.0306h4.9574c-.1577-1.2192-.9465-1.9601-2.3347-1.9601-1.3883 0-2.3308.6351-2.6227 1.9601zm15.9489 6.1192c-2.386 0-3.9872-1.568-3.9872-4.1553v-6.6641h1.0254v6.5073c0 2.156 1.0215 3.3752 3.0683 3.3752 2.3072 0 3.9438-1.5328 3.9438-3.975v-5.9192h1.0254v10.5841h-1.0254l.0277-2.352c-.34.7847-.9095 1.4495-1.6347 1.9081-.7251.4587-1.5724.6898-2.4314.6634zm9.6861-.2313v-10.5842h1.0254l-.0276 2.1286c.6034-1.5327 1.7589-2.352 3.1235-2.352.6875-.0452 1.3698.1458 1.9325.541l-.4969.831c-.461-.3194-1.0166-.4754-1.5776-.4429-1.5223 0-2.9657 1.274-2.9657 3.8455v6.033zm13.5668.2078c-1.4733 0-2.8862-.5818-3.9279-1.6172-1.0417-1.0355-1.627-2.4399-1.627-3.9042 0-1.4644.5853-2.8688 1.627-3.9043 1.0417-1.0354 2.4546-1.6171 3.9279-1.6171s2.8862.5817 3.9279 1.6171c1.0418 1.0355 1.627 2.4399 1.627 3.9043 0 1.4643-.5852 2.8687-1.627 3.9042-1.0417 1.0354-2.4546 1.6172-3.9279 1.6172zm0-.9095c2.6779 0 4.4881-1.9992 4.4881-4.6257 0-2.6264-1.8102-4.5982-4.4881-4.5982s-4.5394 1.96-4.5394 4.5982 1.8576 4.6257 4.5315 4.6257zm9.343 6.2094v-16.1075h1.0254l-.0513 2.599c.4079-.8625 1.0586-1.5889 1.8734-2.0913.8148-.5023 1.7582-.759 2.7172-.739 3.072 0 5.301 2.3912 5.301 5.5077 0 3.1164-2.225 5.5312-5.313 5.5312-.942.003-1.8659-.2556-2.668-.7467-.8021-.491-1.4501-1.1951-1.8712-2.0327v8.0793h-1.0214zm5.4227-6.2094c2.65 0 4.338-1.9992 4.338-4.6257 0-2.6264-1.703-4.5982-4.338-4.5982-2.6344 0-4.488 1.96-4.488 4.5982s1.7905 4.6257 4.488 4.6257zm9.528-4.3905c.079 2.5716 1.783 4.3905 4.54 4.3905.711.0317 1.419-.1021 2.069-.3906.65-.2886 1.223-.724 1.673-1.2715l.683.5958c-.539.642-1.219 1.1526-1.987 1.4924-.769.3398-1.606.4998-2.446.4677-3.384 0-5.589-2.4697-5.589-5.5077-.016-.7155.11-1.4271.372-2.0937.262-.6665.655-1.2747 1.155-1.7892.501-.5146 1.099-.9252 1.76-1.2082.662-.2829 1.373-.4325 2.093-.4401 3.253 0 5.3 2.5206 5.249 5.7429h-9.572zm.028-.831h8.503c-.158-2.1835-1.522-4.0259-4.196-4.0259-2.442 0-4.043 1.7131-4.303 4.0259zm-47.0974-16.2643c.0002.288-.0574.5732-.1696.8389-.1074.2598-.2641.4966-.4614.6977-.1983.2005-.4323.3627-.6902.4783-.2674.1207-.5581.1823-.8518.1803-.2665-.0011-.5316-.0367-.7888-.1058-.2651-.0673-.5125-.1903-.7257-.3607-.2195-.1884-.3946-.4226-.5127-.686-.1502-.3406-.2216-.7103-.209-1.0819v-5.22546c-.0024-.29641.0525-.59052.1617-.86633.0987-.25733.249-.49204.4417-.68993.2001-.20076.4389-.35941.702-.46649.2874-.11297.5942-.1689.9032-.16464.2986-.00322.5949.05275.8715.16464.2622.10668.4998.26541.6981.46649.1997.20368.3566.44489.4614.70953.1145.29095.1721.60096.1696.91337v.53313h-1.3685v-.43905c.0053-.25041-.0753-.49514-.2287-.69385-.0712-.09466-.1642-.17083-.2714-.22202-.1071-.05119-.2251-.07589-.3439-.07198-.1314-.01758-.2651.00261-.3853.05819-.1202.05557-.2219.1442-.293.25541-.118.24426-.1748.51323-.1657.78401v4.86088c-.0087.2439.0544.485.1815.6938.0747.0987.174.1763.2881.2251.1142.0488.2391.0672.3626.0533.0978-.0014.1948-.0172.2879-.0471.1029-.0314.1981-.0834.28-.1529.0917-.0805.1632-.1812.209-.294.0578-.1485.0847-.3072.0789-.4664v-.4626h1.3685v.588zm1.0412-2.3717c-.0011-.2545.0173-.50873.0552-.76045.0371-.27427.1375-.53628.2935-.76549.156-.2292.3634-.41936.6057-.55557.3351-.17511.708-.26661 1.0865-.26661.3786 0 .7515.0915 1.0866.26661.2423.13621.4496.32637.6056.55557.156.22921.2565.49122.2936.76549.0376.25175.0561.50595.0552.76045v2.2266c.0011.2546-.0174.5088-.0552.7605-.0371.2743-.1376.5363-.2936.7655s-.3633.4194-.6056.5556c-.3351.1751-.708.2666-1.0866.2666-.3785 0-.7514-.0915-1.0865-.2666-.2423-.1362-.4497-.3264-.6057-.5556s-.2564-.4912-.2935-.7655c-.0377-.2517-.0561-.5059-.0552-.7605zm1.3685 2.4383c-.0162.2093.0487.4169.1814.5802.1324.1237.3073.1926.4891.1926.1817 0 .3566-.0689.489-.1926.1327-.1633.1976-.3709.1814-.5802v-2.6499c.0162-.20935-.0487-.41689-.1814-.58021-.1324-.12376-.3073-.19266-.489-.19266-.1818 0-.3567.0689-.4891.19266-.133.16313-.198.37081-.1814.58021v2.6538zm3.723-2.4383c-.0011-.2545.0173-.50873.0552-.76045.0371-.27427.1375-.53628.2935-.76549.156-.2292.3634-.41936.6057-.55557.3351-.17511.708-.26661 1.0865-.26661.3786 0 .7515.0915 1.0866.26661.2423.13621.4496.32637.6056.55557.156.22921.2565.49122.2936.76549.0376.25175.0561.50595.0552.76045v2.2266c.0011.2546-.0174.5088-.0552.7605-.0371.2743-.1376.5363-.2936.7655s-.3633.4194-.6056.5556c-.3351.1751-.708.2666-1.0866.2666-.3785 0-.7514-.0915-1.0865-.2666-.2423-.1362-.4497-.3264-.6057-.5556s-.2564-.4912-.2935-.7655c-.0377-.2517-.0561-.5059-.0552-.7605zm1.3685 2.4383c-.0162.2093.0487.4169.1814.5802.1324.1237.3073.1926.4891.1926.1817 0 .3566-.0689.489-.1926.1327-.1633.1976-.3709.1814-.5802v-2.6499c.0162-.20935-.0487-.41689-.1814-.58021-.1324-.12376-.3073-.19266-.489-.19266-.1818 0-.3567.0689-.4891.19266-.133.16313-.198.37081-.1814.58021v2.6538zm3.8453-4.70405h1.3685v.72129c.252-.22928.5315-.42678.8321-.58801.3087-.15092.6501-.22364.9939-.21168v1.43866c-.1318-.05223-.2723-.07885-.4141-.0784-.1567.00259-.3121.02767-.4615.07448-.1681.04971-.3239.13384-.4575.24696-.1456.12399-.2627.27775-.3431.45085-.096.2185-.1418.4555-.1341.6938v4.0102h-1.3685v-6.75815zm5.2255 4.55905c-.0106.2328.0454.4639.1617.6664.0542.0838.1299.1517.2194.1965s.1894.0649.2894.0583c.0957.0028.1906-.0171.277-.058s.1618-.1017.2199-.1772c.1322-.1746.1991-.3894.1893-.6076v-2.6225c.0071-.19351-.0622-.38206-.1932-.52533-.0619-.06731-.1376-.12067-.2219-.15651-.0844-.03583-.1755-.05331-.2672-.05125-.1016-.01196-.2046.004-.2978.04616s-.173.1089-.2306.19296c-.0973.17074-.1463.36437-.142.56057v2.4775zm1.3528 1.568-.2564.2744c-.0798.084-.1699.1577-.2681.2195-.1039.0656-.2168.1158-.3353.149-.144.0383-.2926.0568-.4417.0549-.2381.0178-.4764-.033-.6862-.1464-.2098-.1133-.3824-.2843-.4969-.4926-.0881-.1763-.1467-.3656-.1736-.5606-.0409-.2961-.0594-.5949-.0552-.8937v-2.5598c-.0056-.35982.0076-.71964.0395-1.07806.0155-.19729.0747-.38873.1735-.56056.1137-.17625.2644-.32601.4417-.43905.2409-.13134.5146-.1912.7888-.17248.2511-.00443.4989.05782.7177.18032.2073.13107.3825.30652.5127.51353h.0277v-3.34773h1.3685v9.49043h-1.3567zm2.6226-6.14273h1.3685v6.77383h-1.3685zm0-2.74404h1.3685v1.36026h-1.3685zm2.6227 2.74404h1.3685v.65465h.0276c.1369-.20632.3122-.38464.5167-.52529.2346-.14951.5104-.22217.7887-.20776.1732.00079.3451.02992.5088.08624.1726.05902.3292.15696.4575.28616.1431.14649.2533.32153.3234.51353.0893.25152.1308.51739.1222.78401v5.18229h-1.3685v-4.6766c.0127-.2101-.0487-.41801-.1735-.58801-.0606-.07127-.137-.12751-.2233-.16426-.0863-.03674-.18-.05298-.2737-.04742-.1027-.01171-.2068.00432-.3012.0464-.0943.04208-.1756.10865-.2351.19272-.1106.21401-.161.45377-.1459.69387v4.5433h-1.3685zm7.935 6.06433h-.0276c-.1498.2182-.3335.4114-.5443.5723-.2342.1498-.511.22-.7887.1999-.1684-.0012-.3357-.0263-.497-.0744-.177-.0524-.3401-.1435-.4772-.2666-.1625-.1506-.2868-.3373-.3628-.5449-.1037-.2931-.1519-.6028-.142-.9134-.004-.3381.0278-.6758.0947-1.0074.0512-.2654.1693-.5135.3431-.7213.1778-.1995.4068-.3472.6626-.4273.3437-.1031.7019-.1508 1.0609-.1411h.2957l.3629.0274v-.7056c.0083-.2008-.0424-.39967-.1459-.57231-.0624-.07286-.1417-.12951-.231-.16503s-.186-.04884-.2817-.03882c-.178.00103-.3503.06182-.4891.17249-.1549.12794-.2573.30782-.2879.50567h-1.3291c.0153-.54492.2314-1.0653.6074-1.46217.1887-.17216.4099-.3054.6507-.392.2685-.1056.5553-.15755.844-.15288.2686-.0004.5354.04467.7888.13328.2428.08248.4648.21621.6507.392.1901.1894.3379.41647.4338.66641.1185.29294.18.60552.1815.92126v4.704h-1.3686v-.6938zm0-2.2109c-.13-.0246-.262-.0377-.3944-.0392-.2676-.0072-.5312.0651-.7572.2077-.1129.0882-.2012.2037-.2565.3355-.0552.1318-.0755.2754-.059.4172-.0095.2243.0571.4452.1893.6272.0618.0787.1417.1415.2329.1831.0913.0416.1913.0608.2916.056.1021.0056.2042-.0119.2985-.0513s.1783-.0996.2458-.176c.1398-.1829.2084-.4098.1932-.639zm2.5043-5.90362h1.3685v2.05411h.844v1.06625h-.844v3.74366c-.0065.1324.0095.2649.0474.392.0257.0805.0769.1507.1459.1999.0788.0473.1683.0743.2603.0784h.3944v1.2897h-.564c-.2704.0095-.5396-.04-.7888-.145-.1947-.0913-.3659-.2253-.5008-.392-.1257-.1511-.2195-.3258-.2761-.5136-.0561-.179-.0853-.3652-.0868-.5527v-4.0886h-.6862v-1.06625h.6823v-2.05019zm2.7607 4.31202c-.0014-.2478.0157-.4955.0513-.74085.037-.27427.1375-.53628.294-.76549.156-.2292.363-.41936.605-.55557.335-.17511.708-.26661 1.087-.26661.378 0 .751.0915 1.086.26661.237.13933.439.33086.59.55988.152.22901.248.48941.282.76118.037.25175.056.50595.055.76045v2.2266c.001.2546-.017.5088-.055.7605-.037.2743-.138.5363-.294.7655s-.363.4194-.605.5556c-.335.1751-.708.2666-1.087.2666-.378 0-.751-.0915-1.086-.2666-.238-.1393-.44-.3309-.591-.5599-.1507-.229-.247-.4894-.281-.7612-.0377-.2517-.0561-.5059-.0552-.7605v-2.2266zm1.3683 2.4383c-.016.2093.049.4169.182.5802.132.1237.307.1926.489.1926.181 0 .356-.0689.489-.1926.132-.1633.197-.3709.181-.5802v-2.6303c.016-.20935-.049-.41689-.181-.58021-.133-.12376-.308-.19266-.489-.19266-.182 0-.357.0689-.489.19266-.139.16078-.21.36871-.198.58021v2.6538zm3.845-4.70405h1.369v.74089c.247-.22823.521-.42569.816-.58801.309-.15092.65-.22364.994-.21168v1.43866c-.132-.05223-.272-.07885-.414-.0784-.157.00259-.312.02767-.461.07448-.167.05032-.321.1344-.454.24696-.145.12407-.262.27785-.343.45085-.096.2185-.142.4555-.134.6938v4.0102h-1.369v-6.75815zm6.362 2.26575c-.001-.2545.017-.50873.055-.76045.037-.27427.138-.53628.294-.76549.156-.2292.363-.41936.605-.55557.335-.17511.708-.26661 1.087-.26661.378 0 .751.0915 1.086.26661.243.13621.45.32637.606.55557.156.22921.257.49122.294.76549.037.25175.056.50595.055.76045v2.2266c.001.2546-.018.5088-.055.7605-.037.2743-.138.5363-.294.7655s-.363.4194-.606.5556c-.335.1751-.708.2666-1.086.2666-.379 0-.752-.0915-1.087-.2666-.242-.1362-.449-.3264-.605-.5556s-.257-.4912-.294-.7655c-.038-.2517-.056-.506-.055-.7605zm1.368 2.4383c-.016.2093.049.4169.182.5802.132.1237.307.1926.489.1926s.357-.0689.489-.1926c.133-.1633.197-.3709.181-.5802v-2.6303c.016-.20935-.048-.41689-.181-.58021-.132-.12376-.307-.19266-.489-.19266s-.357.0689-.489.19266c-.133.16313-.198.37081-.182.58021v2.6538zm4.019-3.6378h-.67v-1.04665h.67v-.9173c-.008-.28397.041-.56669.146-.83105.088-.21343.223-.40484.394-.56057.163-.14576.356-.25535.564-.32144.211-.06605.43-.09911.651-.098h.631v1.27794h-.615c-.263 0-.394.15549-.394.46648v.98786h1.017v1.06625h-1.017v5.68798h-1.369z" fill="#ffeded"/></svg>