<svg fill="none" height="56" viewBox="0 0 56 56" width="56" xmlns="http://www.w3.org/2000/svg"><path d="m49.3572 27.622c-.0308 1.8347-2.6674 4.1012-6.3369 4.1706-3.6696.0694-4.7335-1.7345-4.7335-2.968s1.3337-4.0011 5.2037-3.4383c0 0-1.403 2.0661-1.2951 3.0991.1002 1.033.7015 1.033 1.1641 1.033.4702 0 1.5649-.2004 1.696-2.2356.0848-1.3183-1.3722-2.6057-2.6982-2.4361-.7709.1002-2.0352.2621-3.3072.8325 0 0 1.1718-1.4801 4.6409-1.7345 3.5616-.2621 5.6971 1.8733 5.6662 3.6773zm-13.2366-3.7004h2.0815l-.532 3.8314h-2.1508l-.4857 2.6674s-.4703 1.7654 1.3028 1.7654h6.1751l-.7324 3.7698h-6.9691s-2.4052.239-3.6696-2.1971c-1.1024-2.1278-.4317-4.6718-.4317-4.6718l1.4339-8.2411h4.4714zm-7.7863 0h2.0815l-.5319 3.8314h-2.1509l-.4934 2.6674s-.4702 1.7654 1.3029 1.7654h1.6035l-.7324 3.7698h-2.3976s-2.4052.239-3.6695-2.1971c-1.1024-2.1278-.4317-4.6718-.4317-4.6718l1.4339-8.2411h4.4713zm-5.9283 3.7004c-.0309 1.8347-2.6674 4.1012-6.337 4.1706-3.6695.0694-4.7334-1.7345-4.7334-2.968s1.3337-4.0011 5.2037-3.4383c0 0-1.4031 2.0661-1.3029 3.0991s.7016 1.033 1.1641 1.033c.4703 0 1.5727-.2004 1.7037-2.2356.0848-1.3183-1.3722-2.6057-2.7059-2.4361-.7709.1002-2.0352.2621-3.2995.8325 0 0 1.1641-1.4801 4.6409-1.7345 3.5694-.2621 5.7048 1.8733 5.6663 3.6773zm-10.1376-8.7422-1.8348 10.9778s-.56274 2.7059 1.3723 2.7059h5.1034l-.6013 3.6002h-5.1035s-3.19157.1927-4.64089-2.1663c-1.2643-2.066-.56275-4.533-.56275-4.533l1.83476-10.5769h4.43278zm42.8321 8.6419c0-15.2024-12.3192-27.5217-27.5217-27.5217s-27.5217321 12.327-27.5217321 27.5217c0 15.1948 12.3192321 27.5218 27.5217321 27.5218s27.5217-12.3193 27.5217-27.5218z" fill="#ffeded"/></svg>