<svg fill="none" height="25" viewBox="0 0 88 25" width="88" xmlns="http://www.w3.org/2000/svg"><g fill="#fff"><path d="m13.416.354387c-.8089.263747-1.5825 1.160493-1.8287 2.109983-.3165 1.17807-.0176 2.02207 1.1781 3.32322.7561.82641.9495 1.16049.9495 1.63524 0 .77366-.4044 1.19566-1.1253 1.12532-.4924-.05275-.5451-.12308-.5979-.70332-.0527-.633-.0703-.633-.7033-.54508-1.0022.14066-1.0902.19341-1.0902.70332 0 .70333.5451 1.67041 1.055 1.93416 1.1078.56267 2.8485 0 3.6046-1.14291.9495-1.44182.7736-2.58473-.7209-4.25513-.7385-.844-.9495-1.19566-.9495-1.65282 0-1.12533 1.4242-1.65282 1.5473-.58025.0528.36925.1407.47475.3341.40441.1407-.05275.4923-.10549.7736-.10549.4748 0 .51-.05275.51-.68575 0-1.371488-1.3539-2.109982-2.9364-1.564903z"/><path d="m4.3958 1.4094c-.12308.61541-.43958 2.0924-.72091 3.30564-.26375 1.21324-.7385 3.30564-1.03741 4.65955-1.00224 4.55401-1.56491 7.01571-2.092401 9.44221-.298914 1.3187-.545079 2.4968-.545079 2.6023 0 .1231.281331.1758.738494.1406l.756076-.0527 2.32098-10.3741c1.26599-5.71453 2.32098-10.479575 2.32098-10.602658.01759-.140665-.24616-.210998-.75607-.210998h-.75608z"/><path d="m17.4249.969814c-.1055.351666-.1407.685746-.0879.738496.0527.05275.4044.07033.7737.03516.4044-.01758.7033.03517.7033.14067s-.1934 1.05499-.4396 2.12757c-.2462 1.05499-.633 2.81331-.8792 3.8683-.2461 1.07257-.4395 1.9869-.4395 2.02206 0 .05275.3868.08792.844.08792h.844l.756-3.48147c1.1605-5.34529.9495-4.83538 1.8814-4.74746.8264.05275.7913.08791 1.0199-.967078l.1055-.474746h-2.4441-2.4617z"/><path d="m23.4912.969814c-.1055.632996-.5803 2.760556-1.5649 7.121196l-.4396 1.89898h.8616c.7385 0 .8615-.05275.9495-.40441.3165-1.40666 2.022-9.108095 2.022-9.178428 0-.05275-.3868-.087916-.8615-.087916-.8616 0-.8616 0-.9671.650578z"/><path d="m26.8319 1.67315c-.1582.75608-.633 2.91881-1.0549 4.80021l-.7561 3.42872 1.5121.05275c1.9518.07037 2.9013-.19341 3.4815-.94949.9495-1.24841 1.1957-2.84848.5627-3.6573l-.3693-.47475.4572-.35166c1.266-1.00225 1.4418-3.34081.2813-3.938638-.3517-.175832-1.0374-.263748-2.1627-.263748h-1.6528zm2.8485.26375c.4044.40441.2462 1.3539-.2989 1.91657-.6506.65057-1.5297.72091-1.3539.10549.0527-.21099.1934-.80882.2989-1.31873.1934-.82641.2638-.91433.6858-.91433.2461 0 .545.08792.6681.211zm-.9319 3.8683c.2462.1055.4396.3165.4572.47475.1055 1.40665-.4924 2.30339-1.5298 2.30339-.334 0-.5978-.08791-.5978-.19341 0-.19342.4572-2.12757.6154-2.58473.0879-.26375.4748-.26375 1.055 0z"/><path d="m35.7818.530242c-.0527.123082-.5978 2.637478-1.2308 5.591458-.633 2.95397-1.3891 6.4706-1.688 7.8245-1.5297 7.086-1.6001 7.508-1.3891 7.6487.1231.0703.8616.2638 1.6529.422 1.7935.3692 5.6618 1.2132 8.6157 1.8814 1.2484.2813 2.321.4747 2.3562.422.0527-.0528.2813-.9671.5099-2.0572.8792-4.1145 1.477-6.9102 2.7781-12.87093.844-3.92105 1.266-6.18928 1.1429-6.25962-.1055-.05275-.9846-.28133-1.9869-.49233-.9846-.21099-3.6573-.79124-5.9255-1.28357-2.2682-.492327-4.2727-.931907-4.4485-.967074-.1583-.052749-.3341.017584-.3869.140666zm8.1235 21.310858c-.0528.1406-.1583.545-.2286.8967-.1407.7737.1231.7913-4.2024-.1407-4.5189-.9846-4.5189-.967.2462-.9846 3.6397-.0176 4.2551.0176 4.1848.2286z"/><path d="m53.1364.969814c-.0879.369246-.422 1.811066-.7209 3.217726-.3165 1.40665-.7209 3.2353-.9143 4.06171-.1758.844-.3341 1.56491-.3341 1.63524 0 .05275 1.0198.1055 2.2682.1055 2.3034 0 2.4793-.05275 2.4793-.72091 0-.08792-.7913-.15825-1.7583-.15825h-1.7584l.1055-.47475c.0704-.26374.2462-1.09015.4045-1.81106l.2813-1.31874 1.2836-.05275c.6857-.03517 1.2659-.12308 1.2659-.211 0-.07033.0528-.26375.1055-.422.088-.24616-.0703-.28133-1.1429-.28133-.6857 0-1.2484-.03516-1.2484-.07033 0-.07033.1055-.54508.6154-2.88364.088-.36925.1759-.38683 1.7408-.38683 1.6528 0 1.8638-.08792 1.8638-.720915 0-.087916-.9847-.158249-2.1979-.158249h-2.1803z"/><path d="m58.552 2.90396c0 1.44183.0528 3.60456.1231 4.83538l.1055 2.25065h.4923c.3341 0 .5275-.1055.5978-.36925.0704-.211.422-1.01982.7913-1.81107.3692-.79124.844-1.82865 1.055-2.30339.211-.49233.8264-1.81107 1.3363-2.95398.5275-1.14291.9495-2.109982.9495-2.162731 0-.035167-.2286-.070333-.4923-.070333-.4748 0-.5627.123082-1.1781 1.529734-.5978 1.37149-2.0397 4.62438-2.4792 5.59146-.1055.22858-.1759-.98466-.211-3.39356l-.0352-3.727634h-.5275-.5275z"/><path d="m64.2841 4.2227c-.4747 2.16274-.9495 4.34305-1.0725 4.83538l-.2286.93191h2.3561 2.3562v-.43958c0-.43958 0-.43958-1.688-.43958h-1.688l.1231-.66816c.0527-.35166.2286-1.17807.3692-1.84624l.2814-1.17807h1.3011c1.266 0 1.3012-.01758 1.3012-.43958s-.0352-.43958-1.1605-.43958h-1.1605l.1055-.75608c.0703-.42199.211-1.16049.3341-1.63523l.211-.86158 1.7231-.05275c.9319-.01758 1.7056-.12308 1.7056-.211 0-.070329.0527-.263744.1055-.421993.0879-.246165-.1583-.281331-2.1627-.281331h-2.2683z"/><path d="m70.9833.442317c-.0351.087916-.2813 1.090163-.545 2.250653-.2638 1.16049-.7034 3.1298-1.0023 4.36063-.6506 2.84847-.6506 2.93639-.0176 2.93639h.4748l.6857-3.12981c1.0374-4.78263 1.1078-5.06396 1.2133-4.78263.0527.14067.3165 1.9869.5802 4.0793l.4923 3.83314h.5803c.4571 0 .5978-.08792.6681-.40441.3341-1.40666 2.0221-9.02018 2.0221-9.143263 0-.070332-.2286-.123082-.5099-.123082-.5627 0-.5275-.070333-1.7232 5.398035-.334 1.58249-.4571 1.52974-.6505-.29891-.0704-.63299-.2462-2.00448-.3869-3.04189-.1406-1.03741-.2461-1.934153-.2461-1.969319 0-.140666-1.5649-.087916-1.6353.035166z"/><path d="m76.9616.442318c-.0703.05275-.1231.263748-.1231.43958 0 .263752.1407.316502.844.316502.4747 0 .8967.03516.9495.08791.0527.05275.0352.40441-.0528.75608-.0703.35166-.3868 1.75832-.6857 3.11222-.2989 1.35391-.6682 2.95398-.8088 3.55181-.1407.59783-.2462 1.14291-.2462 1.19565 0 .05275.2286.08792.5099.08792.6154 0 .4923.36921 1.5122-4.30788.4395-2.03965.8264-3.8683.8791-4.0793.0704-.33408.2286-.38683 1.1078-.43958.8791-.05275 1.0022-.1055 1.055-.457164.0527-.38683.0527-.38683-2.3914-.38683-1.3363 0-2.4968.05275-2.5495.123082z"/><path d="m84.8213.969826c-.0527.369244-.2989 1.459404-.5099 2.426484-.2286.96707-.7033 3.05947-1.055 4.65954-.633 2.91885-1.2308 5.55625-2.1979 9.89935-.2813 1.266-.5627 2.6199-.633 2.9715l-.1055.6682h1.5122c1.4242 0 1.5121-.0176 1.6-.4044.0528-.211 1.0726-4.853 2.2858-10.3213 1.2133-5.46841 2.2331-10.075206 2.2683-10.251038.0703-.263748-.0879-.298914-1.477-.298914h-1.5649z"/><path d="m65.1457 12.012c-1.1429.4045-2.0221 1.688-2.0221 2.954 0 .6154.5627 1.6353 1.3188 2.4089.422.4396.8439.9847.9319 1.2308.2285.633 0 1.2836-.5451 1.5474-.6858.334-1.1781.0175-1.1781-.7209v-.5803l-.8264.1055c-.7912.0879-.844.1231-.8967.6154-.0528.6858.4571 1.688 1.0198 1.9693 1.5297.7737 3.798-.5275 4.1496-2.3561.1758-.9495-.1934-1.8462-1.2484-3.0243-.7561-.844-.9671-1.2133-.9671-1.6704 0-1.1078 1.4243-1.6528 1.5474-.5803.0527.4572.0879.4748.7912.3693.4044-.0704.8088-.1759.8792-.2462.2285-.1934-.1759-1.477-.5627-1.8286-.4748-.422-1.5473-.51-2.3913-.1935z"/><path d="m71.6515 11.9066c-1.3363.3165-2.1979 1.4769-2.1979 2.9188 0 1.0022.3516 1.7055 1.3363 2.7254.9143.9495 1.1253 1.6879.6506 2.233-.7033.8264-1.6353.5627-1.6353-.4747 0-.3693-.0703-.4748-.2989-.4396-1.3363.2637-1.2835.2286-1.2835.9847 0 .8967.2285 1.3187.8791 1.6528 1.7759.9143 4.22-.6506 4.22-2.743 0-.9671-.2638-1.4946-1.2308-2.5671-.4924-.5275-.932-1.1605-1.0023-1.4243-.1582-.633.2813-1.3363.8792-1.4066.422-.0528.5275.0351.7033.4923.1583.422.2813.5275.5627.4572.1934-.0528.5275-.1055.756-.1055.2814 0 .3869-.1055.3869-.422 0-1.5474-1.055-2.2683-2.7254-1.8814z"/><path d="m6.68163 11.9769c0 .0352-.211.9671-.45717 2.0748-.24616 1.1078-.66816 3.0243-.94949 4.2903-.26375 1.266-.54508 2.4968-.61541 2.7606-.12308.4747-.1055.4923.633.4923h.77366l.66816-3.0419c.35166-1.6528.65058-3.165.65058-3.3232 0-.1583.07033-.3341.15824-.3868.08792-.0528.1055 1.3715.05275 3.3232l-.08791 3.4287h.42199c.40442 0 .56267-.2989 1.81107-3.3056.7561-1.8111 1.4594-3.376 1.5473-3.4639.1231-.1231.1407-.0528.0704.1758-.0528.1934-.3693 1.5825-.721 3.0771-.334 1.4945-.65053 2.9012-.70328 3.1298-.08792.3516-.03517.3868.68578.3868.756 0 .7736-.0176.8791-.6682.1055-.6154.5803-2.7605 1.5649-7.1211l.4396-1.899-1.1429.0527-1.1429.0528-1.1078 2.6023c-.59778 1.4242-1.16044 2.655-1.23077 2.7254-.07034.0703-.08792-1.1253-.07034-2.6551l.07034-2.7605h-1.09016c-.61541 0-1.10774.0351-1.10774.0527z"/><path d="m14.1721 16.531c-.5627 2.5319-1.055 4.7122-1.1078 4.8353-.0703.1759.1407.2286.8088.2286.4924 0 .8968-.0527.8968-.1055 0-.1231 1.7759-8.0531 2.0572-9.1784.0879-.3693.0352-.3868-.7736-.3868h-.8616z"/><path d="m17.9348 16.7595v4.8354h.844.8264l1.477-3.4815c.8264-1.8989 1.7407-4.0793 2.0748-4.8353l.5627-1.3539h-.8264-.8264l-1.3012 3.2528c-.7033 1.7935-1.3187 3.2529-1.3539 3.2529-.0703 0 .0176-2.233.1934-5.1518l.0879-1.3539h-.8791-.8792z"/><path d="m24.5461 12.311c-.0527.211-.3516 1.5121-.633 2.866-.2989 1.354-.7385 3.3057-.9846 4.3255-.2286 1.0198-.422 1.899-.422 1.9693 0 .0704.8088.1231 1.811.1231 1.9518-.0176 2.6024-.2286 3.2529-1.055.3869-.4923.9144-1.9341.9144-2.4792 0-.4396-.3165-1.055-.6682-1.3188-.211-.1406-.1758-.2285.2286-.4923 1.0725-.7033 1.4945-2.8485.7209-3.7452-.4044-.4747-.4923-.4923-2.2858-.5451-1.8111-.0703-1.8463-.0527-1.9342.3517zm2.6727 1.2308c.123.1231.211.4748.211.8088 0 .7385-.8089 1.6177-1.5122 1.6177-.4396 0-.4572-.0352-.3517-.6682.2638-1.5825.4396-1.9693.9495-1.9693.2814 0 .5803.0879.7034.211zm-.6858 4.0969c.3517.3517.1055 1.7056-.4044 2.1803-.2989.2813-.5802.3693-1.0198.3341l-.6154-.0528.3341-1.4594.3516-1.4594.5451.1055c.3165.0704.6682.2286.8088.3517z"/><path d="m50.2879 14.4913c-.3165 1.4418-.8088 3.587-1.0901 4.7826-.2638 1.1957-.4924 2.1979-.4924 2.2507 0 .0351.3869.0703.8616.0703h.8616l.1758-.844c.1055-.4571.2814-1.3187.3869-1.899l.211-1.0725 1.1429-.1055c.633-.0704 1.389-.2638 1.7055-.4396.9847-.5803 1.688-1.9869 1.688-3.4112 0-.4747-.1406-.8264-.5099-1.2308-.5099-.5626-.5275-.5802-2.4265-.633l-1.9165-.0703zm3.3584-.9847c.2286.1407.3341.3693.3341.8089 0 1.2132-.7209 2.0045-1.8638 2.0045-.5451 0-.5451-.1055.0176-2.6024.0703-.2989.211-.3868.633-.3868.2989 0 .6857.0879.8791.1758z"/><path d="m58.9037 11.9769c0 .0352-.4748 1.2484-1.0726 2.6902-.5802 1.4419-1.4242 3.4815-1.8638 4.5541-.422 1.055-.8264 2.0396-.8792 2.1627-.0703.1758.1055.211.7561.1758l.8616-.0527.3517-1.0198.3516-1.0023h.9143.9319l-.123 1.055-.1055 1.055h.7912.7913l.123-2.6023c.0528-1.4242.1583-3.587.211-4.8354l.1231-2.233h-1.0901c-.5803 0-1.0726.0175-1.0726.0527zm.5978 2.9716c-.0352.422-.1055 1.2835-.1758 1.9341l-.1055 1.1957h-.5978c-.3341 0-.5979-.0352-.5979-.0879 0-.0528.2286-.7034.5275-1.4594.2814-.7385.5979-1.565.6858-1.8463.2637-.6681.334-.5978.2637.2638z"/></g></svg>