<svg fill="none" height="19" viewBox="0 0 88 19" width="88" xmlns="http://www.w3.org/2000/svg"><path d="m16.9646 3.43902c.6707 0 1.0407.09251 1.0407.09251l-.4394 2.45923s-.3623-.03855-.6013-.03855c-1.4724 0-2.1509.89426-2.1509 2.25879v6.044h-2.5517v-6.22902c.0077-2.6057 1.696-4.58696 4.7026-4.58696zm-6.175 5.49664c0 3.53084-2.15092 5.49664-5.04186 5.49664-.9251 0-1.76539-.239-2.49776-.6938v4.7874h-2.551738v-9.59024c0-3.5308 2.150888-5.49664 5.041828-5.49664 2.90636 0 5.04953 1.96584 5.04953 5.49664zm-2.54405 0c0-2.15086-.9791-3.06054-2.49009-3.06054-1.511 0-2.49777.90968-2.49777 3.06054 0 2.15084.97906 3.03744 2.49777 3.03744 1.50328 0 2.49009-.8866 2.49009-3.03744zm20.18265 0c0 3.53084-2.2588 5.49664-5.1498 5.49664-2.8986 0-5.1343-1.9658-5.1343-5.49664 0-3.5308 2.2434-5.49664 5.1343-5.49664 2.8987 0 5.1498 1.96584 5.1498 5.49664zm-2.5441 0c0-2.15086-1.0715-3.06054-2.6057-3.06054-1.511 0-2.5903.90968-2.5903 3.06054 0 2.15084 1.0716 3.03744 2.5903 3.03744 1.5342 0 2.6057-.8866 2.6057-3.03744zm57.6184-1.18721c-1.7809-.61674-2.1663-.80176-2.1663-1.28743 0-.40088.2004-.73238 1.1486-.73238 1.9505 0 3.5694.49339 3.5694.49339l.4702-2.19711c-.8325-.26982-1.9273-.5859-3.9702-.5859-3.022 0-3.7544 1.60351-3.7544 3.11451 0 1.56496.8018 2.29733 3.4923 3.22243 1.804.63984 2.2588.87114 2.2588 1.41844 0 .5628-.532.9483-1.7115.9483-.9867 0-2.4052-.3469-3.6078-.8557l-.6013 2.2048c1.1486.5627 2.3821.9482 4.186.9482 3.1839 0 4.2632-1.511 4.2632-3.2378.0077-1.66523-.7709-2.50553-3.577-3.45375zm-8.5958 1.95042c0 1.74993-.979 2.29733-2.2048 2.29733-1.2257 0-2.1817-.5474-2.1817-2.29733v-6.08254h-2.5517v6.08254c0 3.15303 1.6343 4.73343 4.7334 4.73343 3.1145 0 4.7488-1.5804 4.7488-4.73343v-6.08254h-2.5517v6.08254zm-13.0131-6.25985c-1.1486 0-2.4206.36233-3.2224 1.16409-.8017-.80176-2.0738-1.16409-3.2224-1.16409-2.4901 0-4.5176 1.37994-4.5176 4.07815v6.73783h2.5518v-6.55281c0-1.07157.4393-1.81936 1.9426-1.81936 1.3491 0 1.9659.5859 1.9659 1.81936v6.55281h2.5517v-6.55281c0-1.07157.4317-1.81936 1.9504-1.81936 1.3491 0 1.9659.5859 1.9659 1.81936v6.55281h2.5517v-6.73783c0-2.89865-2.1354-4.07815-4.5176-4.07815zm-15.1639 10.80828h2.5517v-10.63097h-2.5517zm-1.6729 1.0176c0 .0077-.0077.0077-.0077.0154-.131.2775-.3315.5705-.6167.8634-.6938.6939-1.4108.8635-1.935.8635-.0694 0-.1311 0-.1927-.0078-1.3723-.1079-2.3359-1.3028-2.4978-1.5264-.7401-.9251-1.2797-2.2125-1.5958-3.7158-.4009-.0385-.8095-.0617-1.2258-.0617s-.8248.0232-1.2257.0617c-.3161 1.5033-.8557 2.7907-1.5958 3.7158-.1619.2236-1.1256 1.4185-2.4978 1.5264-.0617.0078-.1234.0078-.1928.0078-.5319 0-1.2411-.1696-1.9349-.8635-.0232-.0231-.0386-.0462-.0617-.0693-.0694-.0771-.1388-.1542-.2005-.2236-.0077-.0077-.0077-.0154-.0154-.0231-.0694-.0926-.1388-.1851-.1927-.2699-.0077-.0077-.0077-.0231-.0154-.0308-.054-.0848-.1002-.1773-.1388-.2621-.0077-.0154-.0077-.0231-.0154-.0386-.0385-.0848-.0694-.1619-.0925-.2467-.0077-.0154-.0077-.0308-.0154-.0462-.0232-.0771-.0463-.1542-.0617-.2236 0-.0154-.0077-.0308-.0077-.0462-.0154-.0771-.0232-.1465-.0309-.2159 0-.0077 0-.0231 0-.0308-.0077-.0694-.0077-.1388-.0077-.2082 0-.0077 0-.0154 0-.0231 0-.054 0-.1156.0077-.1619 0-.0077 0-.0077 0-.0154s0-.0077 0-.0154c.1234-1.3568 1.3029-2.3051 1.5188-2.467.0385-.0308.0847-.0616.1233-.0925.6013-.4548 1.3414-.8326 2.1817-1.1178.2544-.0848.5088-.1696.7786-.239.2082-.0539.4163-.1002.6322-.14646.0385-.40087.0616-.80946.0616-1.22576 0-.41629-.0231-.82488-.0616-1.22575-1.5033-.31608-2.7907-.85572-3.7158-1.5958-.0463-.03855-.1388-.11564-.2544-.21586-.4241-.37775-1.1641-1.18721-1.2566-2.25108 0-.00771 0-.00771 0-.01541 0-.00771 0-.01542 0-.01542 0-.04626-.0001-.10022-.0078-.14648 0-.01542 0-.03083 0-.04625 0-.03855 0-.0848.0078-.13106 0-.03854 0-.07709.0077-.11564 0-.03083.0077-.06167.0154-.09251.0077-.05396.0154-.10792.0231-.16189.0077-.02313.0154-.04625.0154-.06938.0155-.06938.0309-.13106.054-.20044.0077-.01542.0154-.03084.0154-.04625.1233-.35463.3469-.74008.7169-1.11012.7864-.786339 1.5881-.894268 2.1278-.855722 1.3722.100219 2.3359 1.302852 2.4977 1.518702.7401.9251 1.2798 2.21254 1.5958 3.71582.4009.03855.8095.06168 1.2258.06168s.8172-.02313 1.2258-.06168c.316-1.50328.8557-2.79072 1.5958-3.71582.1619-.22356 1.1255-1.418483 2.4978-1.518702.5396-.046255 1.3413.077092 2.1277.855722.0616.06167.1079.12334.1619.18502.0308.03854.0694.07709.1002.11563.0231.02313.0385.05397.054.0771.0539.06938.1079.14647.1542.21585.0077.01542.0154.03855.0308.05397.0462.07709.0925.16189.131.23898.0077.01542.0155.03084.0155.04626.0308.07709.0693.15418.0925.23127.0077.02313.0077.03855.0154.06167.0231.06939.0385.13877.054.20815.0077.02313.0076.03855.0076.06167.0155.06939.0232.13106.0309.19273v.04626c.0077.06938.0077.13106.0077.19273v.02313c0 .05396 0 .11563-.0077.1696v.01542.01541c-.1156 1.34911-1.2874 2.30505-1.511 2.46694-.0154.00771-.0308.02313-.0463.03084-.9251.72466-2.1894 1.25659-3.6695 1.56496-.0386.40087-.0617.80946-.0617 1.22575 0 .4163.0231.82489.0617 1.22576 1.5033.31606 2.7907.85576 3.7158 1.59576.0231.0155.0694.054.1156.0925.3701.3007 1.2952 1.1796 1.4031 2.3745v.0154.0154c.0077.054.0077.1079.0077.1619v.0308c0 .054 0 .1157-.0077.1774v.0616c-.0077.0463-.0154.1002-.0231.1542-.0077.0386-.0078.0694-.0155.1079-.0077.0386-.0231.0771-.0308.1157-.0154.0539-.0231.1002-.0462.1542-.0077.0231-.0154.0462-.0309.0693-.0308.0617-.0616.1311-.0925.2082zm-3.6156-12.07257c-.3931.49339-.7246 1.18721-.9636 1.99667.3084-.09251.6013-.20044.8711-.31607.4395-.19273.8326-.40088 1.1333-.64757l.0385-.02313c.1696-.12335.6707-.60903.6938-.99448 0-.01542 0-.03855 0-.06168 0-.03083-.0077-.06167-.0231-.10022l-.0077-.00771c-.0309-.0848-.0925-.18502-.2236-.31607-.2698-.26982-.4317-.2544-.4934-.2544-.3854.03083-.8711.53193-.9944.70153zm-10.4305-.47797c-.1388.13876-.2004.24669-.2313.33149v.01542c-.0077.03855-.0154.06938-.0231.09251v.00771.05397c.0231.31607.3546.69382.5705.89426.0463.04625.0925.0848.1233.10793l.0386.02312c.4934.39317 1.1949.71696 2.0044.96365-.2467-.80946-.5705-1.511-.9637-1.99667l-.0231-.03084c-.2005-.26211-.663-.67841-1.0022-.70153-.0617-.01542-.2313-.03084-.4934.23898zm1.5187 11.47124c.3932-.4934.7247-1.1872.9637-1.9967-.8095.2467-1.511.5628-2.0044.9637l-.0309.0231c-.0231.0154-.0462.0385-.0771.0617-.2081.185-.5936.5936-.6167.9328v.0462.0232.0077c.0077.0848.054.2235.2544.424.2698.2698.4317.2544.4934.2544.3855-.0309.8711-.5319.9945-.7015zm4.4559-4.57924c.3238 0 .6399.01541.9482.03083-.0154-.31607-.0308-.63215-.0308-.95593 0-.32379.0154-.63986.0308-.95594-.3161.01542-.6321.03084-.9482.03084-.3238 0-.6398-.01542-.9559-.03084.0154.31608.0308.63215.0308.95594 0 .32378-.0154.63986-.0308.95593.3161-.01542.6321-.03083.9559-.03083zm5.9746 5.05724c.0617-.0617.1079-.1234.1465-.1773.1156-.1696.1079-.2699.1079-.3161-.0154-.2467-.2312-.5319-.424-.7401-.1079-.1156-.2158-.2081-.2698-.2544l-.0385-.0231c-.4934-.3932-1.1949-.717-2.0044-.9637.2467.8095.5705 1.511.9636 1.9967l.0231.0308c.2005.2622.663.6784 1.0022.7016.0617 0 .2236.0154.4934-.2544z" fill="#ffeded"/></svg>