<svg fill="none" height="37" viewBox="0 0 38 37" width="38" xmlns="http://www.w3.org/2000/svg"><path d="m15.904 11.5179h-1.9273c.0694.4317.1234.8711.1234 1.3722 0 2.8755-2.3899 5.0264-6.6916 5.0264-4.77968 0-7.3391175-2.2973-7.4085-5.9438h3.54629c.19273 1.9042 1.15634 3.0914 3.71578 3.0914 1.78853 0 3.35343-.6244 3.35343-2.174 0-.6013-.1464-1.0099-.4316-1.3722h1.9273c-.4086-.4857-1.1102-.7709-2.0738-.9174l-2.41302-.3623c-3.16076-.47801-5.16516-1.90421-5.21912-4.90307v-.14648c0-3.04512 2.65968-5.1420153 6.56823-5.1420153 4.13211 0 6.56821 2.1739853 6.66071 5.5274753h-3.5c-.0771-1.73456-1.2026-2.68279-3.23779-2.68279-1.90416 0-3.04508.72466-3.04508 2.07376 0 .12335-.00007.23899.02305.36234.12335 1.01761.84036 1.44932 2.65972 1.74227l2.1739.3392c2.9218.46255 4.7103 1.7654 5.196 4.10901zm5.2885 15.2333h-.2467v-2.6057h-3.1145v9.0583h-1.9273v3.261h3.261v-3.261h1.9273v-2.8755c0-2.174 1.1101-3.3535 3.4075-3.3535h.7477v-3.0914h-.3623c-1.9812 0-3.022 1.1101-3.6927 2.8678zm-6.4294 3.5771c.1233.3623.1696.7477.1696 1.1563 0 1.8117-.8712 3.2841-2.3128 4.1321-.9174.532-2.1971.8481-3.62326.8481h-7.6321v-17.3919h7.14641c1.47246 0 2.58255.2158 3.43055.6552 1.5187.771 2.413 2.1972 2.413 4.0088 0 1.9581-1.2335 3.0914-3.2378 3.5v.2929c1.5495.1388 3.1453 1.0331 3.6464 2.7985zm-9.89857-4.2015h3.49999c1.66518 0 2.55938-.7247 2.55938-2.0507 0-1.4493-1.13318-2.0506-2.55938-2.0506h-3.49999zm6.49877 5.0726c0-.3161-.0462-.6013-.1233-.8711-.3392-1.0177-1.32595-1.4725-2.7059-1.4725h-3.66957v4.664h3.66957c1.7654 0 2.8292-.7555 2.8292-2.3204zm11.7103-17.4382v-2.2433h-1.6884v-3.76981h2.2897v-2.41296h-2.2897v-3.13764h-3.2609v3.13764h-1.8117v2.41296h1.8117v3.76981h1.6883v2.3898c0 2.3899 1.0408 3.7467 3.6696 3.7467h1.881v-2.7753h-1.2335c-.8171 0-1.0561-.3161-1.0561-1.1179zm11.2245-8.42607v6.61447c0 1.8116-.6321 3.3072-2.3898 3.3072-1.5727 0-2.1971-.9405-2.1971-2.5363v-7.38537h-3.261v7.53187c0 3.1607 1.3491 5.0495 4.1012 5.0495 1.7886 0 2.8524-.9405 3.6696-2.1277h.2159v1.8579h3.1145v-12.31157zm0 25.42487c0 1.8116-.6321 3.3072-2.3898 3.3072-1.5727 0-2.1971-.9405-2.1971-2.5363v-7.3854h-3.261v7.5319c0 3.1607 1.3491 5.0495 4.109 5.0495 1.7885 0 2.8447-.9406 3.6695-2.1278h.2159v1.8579h3.1145v-12.3115h-3.261z" fill="#ffeded"/></svg>