<svg fill="none" height="59" viewBox="0 0 44 59" width="44" xmlns="http://www.w3.org/2000/svg"><path d="m3.01281 48.0217h.24674v3.3072c.51652-.3623 1.07147-.609 1.81155-.609 1.02532 0 1.7885.4163 2.2896 1.0562.50109.6321.74795 1.4955.74795 2.3821 0 1.1255-.30078 2.1354-.89438 2.8601-.60903.7247-1.48784 1.1718-2.66734 1.1718-.43943 0-.94815-.0617-1.45695-.1696-.50881-.108-1.0177-.2698-1.43399-.4471v-9.2742zm.24674 8.4107c.44714.1465.9405.2081 1.32596.2081.63215 0 1.09475-.2775 1.40312-.6938.30837-.4086.45472-.9559.45472-1.5033 0-.5473-.14652-1.0793-.43176-1.4878-.28524-.4086-.71689-.6785-1.28737-.6785-.49339 0-1.04065.1774-1.45695.4472v3.7081zm10.39965-3.7852c-.4086-.2467-.8018-.3623-1.2104-.3623-.5242 0-1.0021.1927-1.4338.5242v5.2345h-1.61126v-7.1849h1.35686l.1618.5859c.4934-.424 1.0948-.7247 1.8118-.7247.1927 0 .4547.0154.7169.0617.2621.0462.5164.1156.7014.2235zm6.4141 5.3964-.1621-.5628c-.6629.4395-1.4646.6939-2.2664.6939-.6784 0-1.3338-.1851-1.804-.6013-.478-.4163-.7785-1.0562-.7785-1.9505v-4.7719h1.6034v4.294c0 .5319.1928.9019.4858 1.1332.2929.2313.7092.3469 1.1255.3469.5474 0 1.1101-.1696 1.5496-.4471v-5.327h1.6033v7.1849h-1.3566zm2.5439-1.9119c.2004.1157.4702.2313.7786.3315.3007.1002.6476.1696.9791.1696.2929 0 .5859-.0539.8095-.185.2158-.131.37-.3392.37-.6476 0-.4625-.3392-.6707-.7786-.8403-.2236-.0848-.4625-.1619-.7169-.2467-.5242-.1541-.9792-.424-1.2799-.8942-.1541-.239-.2234-.5551-.2234-.9637 0-.7555.293-1.2951.7478-1.642s1.0638-.4934 1.7191-.4934c.5474 0 1.1641.1079 1.5804.2698v1.4493l-.0848.0617c-.3855-.185-.7633-.2929-1.2259-.2929-.3006 0-.5857.0462-.7938.1541-.2082.1003-.3394.2622-.3394.4857 0 .3392.3315.5165.7709.6707.2236.0771.4627.1619.7171.2467.5165.1773.9713.4857 1.2642.9945.1465.2544.2159.5936.2159 1.0099 0 .8326-.3315 1.4339-.8404 1.8194-.5088.3931-1.1949.5782-1.9041.5782s-1.3413-.1774-1.827-.4857v-1.5187zm5.1498 0c.2005.1157.478.2313.7787.3315.3006.1002.6474.1696.9789.1696.2929 0 .5859-.0539.8095-.185.2235-.131.37-.3392.37-.6476 0-.4625-.3392-.6707-.7786-.8403-.2236-.0848-.4625-.1619-.7169-.2467-.5243-.1541-.979-.424-1.2797-.8942-.1542-.239-.2236-.5551-.2236-.9637 0-.7555.2929-1.2951.7478-1.642.4548-.3469 1.0638-.4934 1.7191-.4934.5473 0 1.1641.1079 1.5804.2698v1.4493l-.0849.0617c-.3854-.185-.7631-.2929-1.2256-.2929-.3007 0-.5782.0462-.7864.1541-.2004.1003-.3391.2622-.3391.4857 0 .3392.3238.5165.7709.6707.2236.0771.4625.1619.7169.2467.5165.1773.9713.4857 1.2642.9945.1388.2544.2159.5936.2159 1.0099 0 .8326-.3314 1.4339-.8402 1.8194-.5088.3931-1.1951.5782-1.9043.5782-.7093 0-1.3413-.1774-1.827-.4857v-1.5187zm10.9625.054v1.5727c-.6322.316-1.4109.4317-2.0277.4317-.9867 0-1.904-.3084-2.5747-.9251-.6707-.6168-1.0948-1.5573-1.0948-2.7984 0-1.2181.4009-2.1432 1.0022-2.7754.6013-.6321 1.4032-.9559 2.2049-.9559.2236 0 .6321.0309 1.0483.1696.4163.1388.879.424 1.2182.902s.5781 1.1795.5781 2.1817v1.0793h-4.3249c.1311.5859.4241.979.8095 1.2257.3778.2467.8403.3546 1.2951.3546.6013 0 1.2412-.1696 1.7886-.4702zm-1.1026-2.413c-.0308-.5242-.2157-.9019-.4624-1.1486s-.5629-.347-.8713-.347c-.3238 0-.6629.1157-.9405.3547-.2775.2467-.4934.6167-.5936 1.1409zm4.4791-5.751v10.0219h-1.6034v-9.8831l1.4029-.1388zm-26.9127-37.2199c1.7809-2.359 4.6256-3.48454 7.5551-3.48454 8.5571 0 10.8929 6.75324 10.8929 11.40184v14.0307c.2082 2.9526 1.989 4.3326 3.8546 4.957 3.8238-3.9625 6.1828-9.3666 6.1828-15.3335 0-12.142-9.7598-21.986581-21.7939-21.986581-5.1805 0-10.7542 2.135441-14.36205 5.311621 3.97025.22356 6.66835 2.79072 7.67055 5.10346zm13.4216 21.9403v-14.0307c-.0077-.1696-.0231-.3315-.0308-.4857-.1619-3.2609-2.8292-5.8589-6.0979-5.8589-3.1993 0-5.9438 2.4746-6.2137 5.6354-.0308.239-.0385.4702-.0385.7092v11.5946 1.5033.0154c-.0078 1.3877-1.1256 2.5132-2.5132 2.5132-1.38 0-2.4901-1.1178-2.5055-2.5055l-.0384-16.9293c-.3238-4.6718-4.58696-5.40414-6.93055-5.4504-2.61341 3.6233-4.1553466 8.0869-4.1553466 12.9052 0 12.1496 9.7598266 21.9865 21.8015966 21.9865 4.1475 0 8.0329-1.1718 11.3324-3.207-4.4251-2.7213-4.6101-8.3953-4.6101-8.3953z" fill="#ffeded"/></svg>