<svg fill="none" height="15" viewBox="0 0 138 15" width="138" xmlns="http://www.w3.org/2000/svg"><g fill="#ffeded"><path d="m11.6938 13.7767h-2.97335l-2.61613-8.65212c-.06304-.18387-.11558-.35723-.1471-.50432l-.07354-.25216-.05779.2364-.07354.2469c-.02627.08406-.04728.17862-.07355.27843l-2.63715 8.65217h-3.04165l4.43377-13.553484h2.84203z"/><path d="m24.3859.228516-3.5985 5.657784c.8458.22064 1.6075.68818 2.1801 1.34484.5621.65141.8458 1.48143.8458 2.49531.0052.55685-.1051 1.10315-.3257 1.61275-.2154.4938-.5306.9298-.9351 1.2818-.4308.373-.9351.6619-1.4762.8458-.6199.2101-1.2713.3152-1.9227.3047h-4.8645v-13.542984h2.9681v6.403754l3.7666-6.403754zm-3.9978 8.237144c-.3047-.30994-.7144-.46229-1.2345-.46229h-1.8912v3.26233h1.8912c.436.0105.8668-.1366 1.1978-.4203.3257-.2784.5095-.6934.4938-1.1242-.0053-.53058-.1576-.95085-.4571-1.25554z"/><path d="m38.8996 5.72354v8.05326h-2.9523v-8.05326c.0052-.43602-.0736-.86154-.2312-1.27129-.1471-.37298-.3624-.71445-.6409-.99813-.2679-.27842-.5883-.49906-.9456-.6514-.3677-.1576-.7669-.2364-1.1662-.23115-.767-.0105-1.5024.30995-2.012.88255-.2627.28893-.4623.6304-.5884.99813-.1365.40975-.2048.83527-.2048 1.27129v8.05326h-2.9892v-8.05326c-.0157-.84052.1419-1.68105.4623-2.45853.289-.68293.7197-1.29231 1.2661-1.79137.5358-.483306 1.161-.856289 1.8439-1.092687.7144-.252157 1.4656-.37823614 2.2169-.37298286.7722-.00525328 1.5339.12082586 2.2641.37298286.6987.236398 1.3396.609381 1.8912 1.092687.5569.49906.9981 1.10844 1.2976 1.79137.3362.77223.499 1.61275.4885 2.45853z"/><path d="m53.9152 2.19304-1.7073 1.94896c-.2207-.21013-.4466-.40975-.6672-.59887-.2259-.18912-.4728-.34672-.7302-.47805-.2837-.14184-.5831-.25741-.8931-.33621-.3677-.0893-.7407-.13658-1.1189-.13133-1.2608 0-2.2221.394-2.8788 1.18724-.6567.79325-.9876 1.88593-.9876 3.2833-.0053.58837.084 1.17148.2679 1.72833.1628.50432.4203.96661.7617 1.37109.3257.3835.7355.6935 1.1978.8983.4938.2207 1.0349.3362 1.5759.3257 1.2346 0 2.3062-.4623 3.2098-1.3553l1.6705 1.949c-.6251.6619-1.3763 1.1872-2.2168 1.5392-1.7284.6356-3.6301.6199-5.3426-.0473-.8143-.3257-1.555-.8143-2.1801-1.4289-.6304-.6251-1.1295-1.3711-1.4657-2.19062-.3625-.88781-.5463-1.83865-.5306-2.79475-.0157-1.00338.1524-2.0015.4991-2.94184.3099-.83527.7932-1.59174 1.4131-2.22739.6199-.61989 1.3711-1.10319 2.1906-1.407881.8983-.325703 1.8544-.49380838 2.8158-.48330181 1.1767 0 2.1643.19437181 2.9681.58311481.809.399249 1.5392.945588 2.1486 1.607508z"/><path d="m67.4623.228516v13.548184h-2.9681v-5.62623h-4.7175v5.62623h-2.9681v-13.548184h2.9681v5.416134h4.7175v-5.416134z"/><path d="m78.7088 11.2709v2.5058h-8.2791v-2.5058h2.6949v-11.042384h2.9681v11.042384z"/><path d="m92.2582 13.7761h-2.9681l-2.6161-8.65213c-.063-.18386-.1156-.35197-.1523-.50432l-.0736-.25741-.0578.2364-.0735.24691c-.0263.08405-.0473.17861-.0736.27842l-2.6371 8.65213h-3.0416l4.4337-13.553444h2.842z"/><path d="m102.655.228516v2.505814h-4.8275v11.04237h-2.9681v-13.548184z"/><path d="m113.787.228516v2.505814h-5.196v2.85779h4.565v2.50581h-4.565v3.17297h4.922v2.5058h-7.89v-13.548184z"/><path d="m125.333.228516v2.505814h-5.201v2.85779h4.571v2.50581h-4.571v3.17297h4.923v2.5058h-7.891v-13.548184z"/><path d="m137.101 5.50652c-.147.37823-.363.7302-.631 1.04015-.252.28367-.546.53583-.872.73546-.315.19437-.64.36773-.982.52007-.394.17336-.788.33096-1.177.4728-.362.13133-.714.28367-1.061.46228-.284.1471-.546.33621-.767.56211-.199.21013-.305.4938-.294.78271 0 .1471.032.2995.095.436.068.1682.178.3152.315.4256.173.1418.367.2521.578.3257.283.0945.577.1366.872.1313.488 0 .972-.0735 1.434-.2206.41-.1209.793-.31 1.145-.5569l1.334 2.2116c-.567.4098-1.213.7145-1.891.8931-.662.1786-1.339.2732-2.022.2784-.594 0-1.188-.0735-1.765-.2259-.557-.1365-1.083-.3677-1.55-.6934-.452-.3152-.825-.7355-1.093-1.2188-.294-.5463-.436-1.1609-.415-1.7808-.01-.47282.053-.94036.184-1.39214.116-.36773.289-.70919.52-1.01388.221-.28894.483-.54109.778-.75122.304-.21539.619-.40976.95-.59363.331-.18386.678-.33621 1.041-.46228.404-.1471.798-.3152 1.187-.49381.352-.16285.683-.37299.972-.6304.252-.21538.399-.53058.399-.86154 0-.40975-.116-.72495-.357-.94559-.242-.22063-.694-.33621-1.371-.33621-.568.00526-1.13.12083-1.65.34672-.51.20488-.982.4833-1.413.82477l-1.539-2.07505c.63-.49906 1.324-.914072 2.059-1.239776.788-.32045 1.634-.4780483 2.485-.46228848 1.471 0 2.632.35722348 3.477 1.06641448.846.7092 1.272 1.71257 1.272 2.99963 0 .49381-.084.97711-.247 1.4394z"/></g></svg>